<?xml version="1.0" encoding="UTF-8"?>
<svg id="Layer_2" data-name="Layer 2" xmlns="http://www.w3.org/2000/svg" viewBox="0 0 588.06 728.52">
  <defs>
    <style>
      .cls-1 {
        fill: #c5a6fb;
      }

      .cls-1, .cls-2, .cls-3, .cls-4, .cls-5, .cls-6, .cls-7, .cls-8, .cls-9, .cls-10 {
        stroke-width: 0px;
      }

      .cls-2 {
        fill: #9bd9e1;
      }

      .cls-3 {
        fill: #f58f99;
      }

      .cls-4 {
        fill: #f7ca94;
      }

      .cls-5 {
        fill: #fc908a;
      }

      .cls-6 {
        fill: #fff;
      }

      .cls-7 {
        fill: #fc9189;
      }

      .cls-8 {
        fill: #a7b5ee;
      }

      .cls-9 {
        fill: #73371a;
      }

      .cls-10 {
        fill: #fc6b60;
      }
    </style>
  </defs>
  <g id="objects">
    <g>
      <path class="cls-4" d="m396.21,4.7c97.65,14.44,79.19,223.59-26.4,220.49-105.59-3.11-83.85-236.79,26.4-220.49Z"/>
      <path class="cls-9" d="m372.16,229.11c-.82,0-1.64-.01-2.47-.04-26.3-.77-46.95-14.98-59.72-41.1-21.74-44.44-15.16-113.78,14.66-154.58C343.28,7.89,368.25-3.35,396.77.86c52.24,7.72,71.13,66.73,66.58,118.29-4.71,53.35-35.24,109.95-91.18,109.96Zm13.18-221.34c-26.44,0-44.01,15.93-54.45,30.21-27.82,38.06-34.21,105.18-13.96,146.59,7.97,16.29,23.63,35.88,52.98,36.75,52.57,1.58,81.22-52.23,85.69-102.85,4.25-48.04-12.71-102.93-59.98-109.93-3.57-.53-7-.77-10.29-.77Z"/>
      <path class="cls-2" d="m261.2,179.57c4.34-9.47,3.86-19.46-1.2-28.04-14.02,14.56-28.8,10.56-48.68,5.18-10.6-2.87-22.61-6.12-37.54-7.64-29.47-3.01-57.8,12.86-71.66,28.86-6.79,7.85-10.32,15.82-10,22.38,3.79-3.23,8.25-5.74,13.37-7.49,27.98-9.6,66.75,6.5,80.35,16.84.78.6,1.55,1.12,2.32,1.62-.23-10.76,6.35-20.64,17.52-25.29,11.06-4.6,26.55-3.16,35.69,10.24,7.95-1.24,15.73-7.69,19.84-16.67Z"/>
      <path class="cls-8" d="m214.97,210.73c1.56-1.47,4.01-1.41,5.49.15,1.47,1.56,1.41,4.01-.15,5.49-5.93,5.62-21.75,12.74-39.18-.5-13.27-10.08-49.05-23.95-73.13-15.68-10.28,3.53-17.29,10.85-20.89,21.77,2.15,1.07,4.18,2.21,6.02,3.46,11.83-4.41,25.27,2.04,42.01,10.08,15.24,7.32,32.51,15.61,53.52,18.46,20.09,2.72,36.76-3.37,45.74-16.73,7.22-10.75,7.84-24.13,1.62-34.94-6.58-11.42-18.48-12.8-27.36-9.11-7.99,3.33-14.76,11.34-12.25,21.83,10.92,2.75,18.18-3.91,18.57-4.28Z"/>
      <path class="cls-1" d="m228.39,116.84c-13.88,14.6-37.2,15.64-60.64,14.41-24.45-1.28-52.61,8.71-62.81,33.11,16.66-14.09,42.69-25.73,69.62-22.99,15.56,1.58,28.44,5.07,38.78,7.86,3.22.87,6.22,1.68,9.03,2.37,2.84-4.81,10.85-20.29,6.02-34.76Z"/>
      <path class="cls-6" d="m329.44,416.18c-1.55,0-3.02-.94-3.62-2.48-.78-2,.21-4.25,2.21-5.02,6.52-2.54,12.48-5.29,17.98-8.19.07-.04.13-.1.2-.14.09-.05.18-.07.26-.11,46.89-24.95,58.03-61.36,60.65-77.08,3.61-21.68-3.48-31.9-12.46-44.83-1.84-2.66-3.75-5.4-5.62-8.35-3.6-5.66-7.17-12.91-10.95-20.58-7.91-16.06-16.88-34.27-29.48-45.36-.86-.76-1.35-1.86-1.32-3.01.01-.57,1.2-55.56-17.04-84.46-10.11,3.94-44.72,18.3-61.12,36.07,3.86,9.56,3.66,20.25-.88,30.17-4.83,10.54-13.53,18.13-23.1,20.57,4.99,12.36,3.5,26.54-4.32,38.17-10.69,15.91-30.09,23.23-53.22,20.09-22.22-3.01-40.86-11.96-55.83-19.15-15.89-7.63-28.44-13.65-37.4-9.17-1.33.67-2.92.51-4.1-.39-18.49-14.23-65.87-16.64-81.9-9.77-6.31,39.32,37.83,90.57,38.28,91.09.71.81,1.04,1.88.93,2.95-1.5,14.47,1.76,30.34,5.21,47.15,1.75,8.52,3.56,17.33,4.86,26.43,3.7,25.9,10.59,74.11,127.79,63.45,2.14-.18,4.02,1.38,4.22,3.51.19,2.14-1.38,4.02-3.51,4.22-6.8.62-13.26,1.04-19.39,1.27,1.89,17.67-.62,36.46-3.05,54.68-2.37,17.77-4.67,35.02-3.01,50.64.2.55.27,1.14.21,1.73,1.65,13.05,6.21,24.92,16.01,34.94.94.96,1.32,2.34,1,3.64-3.18,12.94-7.24,25.12-11.17,36.91-9.14,27.42-16.36,49.07-5.44,59.52,3.35,3.2,7.45,4.18,12.54,3,15.88-3.69,40.1-29.67,55.66-72.18.74-2.01,2.97-3.05,4.98-2.31,2.01.74,3.05,2.97,2.31,4.98-.4,1.1-.82,2.2-1.24,3.29,44,12.39,83.58-1.91,83.98-2.06,2.01-.74,4.24.28,4.99,2.29.74,2.01-.28,4.24-2.29,4.99-.76.28-9.01,3.27-21.94,5.43,2.29,15.85.47,29.75-1.01,41.04-2.41,18.36-2.69,24.81,8.32,26.81,4.87.89,10.86-1.49,17.32-6.88,21.29-17.77,43.32-64.51,43.32-111.96,0-.65.16-1.29.47-1.86,27.54-50.5,7.99-133.49-22.28-190.88-4.86,2.43-10.04,4.76-15.61,6.93-.46.18-.94.26-1.41.26Zm-18.92,85.52c-3.73,13.12-20.93,35.8-94.19,40.24-.08,0-.16,0-.24,0-2.04,0-3.75-1.59-3.87-3.65-.13-2.14,1.5-3.98,3.64-4.11,71.04-4.3,84.64-25.64,87.19-34.62,2.07-7.29-.73-13.85-4.57-16.56-6.29-4.44-22.56-3.56-41.4-2.55-16.26.88-34.7,1.87-53.76.14-2.14-.19-3.71-2.08-3.51-4.22.19-2.13,2.08-3.71,4.22-3.51,18.5,1.68,36.64.71,52.64-.16,21.12-1.14,37.8-2.04,46.29,3.96,5.89,4.16,10.77,13.76,7.56,25.03Z"/>
      <path class="cls-4" d="m88.01,553.58c16.97-12.55,42.24-18.93,64.51-1.61.06-1.71.14-3.43.24-5.15-.25-.15-.49-.32-.71-.53-30.63-29.66-55.17-15.72-71.41-6.5-7.11,4.04-12.24,6.95-16.85,5.66-1.42-.4-3.4-1.4-4.81-3.95-1.04-1.87-.37-4.24,1.51-5.28,1.87-1.04,4.24-.37,5.28,1.51.12.21.2.28.2.28,1.38.38,6.86-2.71,10.85-4.98,3.51-2,7.69-4.37,12.44-6.5-10.33-10.99-28.51-8.93-41.07-.05-11.35,8.03-19.32,22.62-9.11,40.12.49-.25.96-.52,1.46-.76,10.98-5.15,22.7-3.92,31.7,3.21,4.91-5.59,10.02-11.23,15.78-15.49Z"/>
      <path class="cls-2" d="m115.33,574.77c-15.24,7.69-28.44,23.93-32.1,39.5-3.79,16.12-9.46,26.24-16.86,30.09-2.18,1.13-4.47,1.7-6.78,1.7-1.88,0-3.78-.37-5.65-1.12-1.99-.8-2.96-3.06-2.16-5.05.8-1.99,3.05-2.96,5.05-2.16,2.08.83,4.03.75,5.97-.26,2.18-1.13,5.78-4.3,9.23-13-13.12-7.79-23.2,1.29-26.93,5.56-10.6,12.14-14.02,34.17-1.42,50.03,10.6,13.33,27.72,19.22,44.67,15.38,18.07-4.1,31.62-18.56,36.23-38.67,9.7-42.28,17.44-64.32,32.76-68.34-1.87-5.07-3.11-10.35-3.88-15.77-15.92-6.03-29.45-2.26-38.13,2.12Z"/>
      <path class="cls-7" d="m111.83,567.84c13.18-6.65,27.16-7.89,40.8-3.7-.04-.64-.07-1.29-.09-1.94-.16-.11-.33-.23-.48-.37-19.9-19.16-43.75-13.6-59.44-2-5.58,4.13-10.78,10.06-15.81,15.79-8.18,9.33-15.25,17.39-23.59,17.78-.2,0-.41.01-.61.01-3.55,0-6.91-1.47-9.99-4.38-1.56-1.47-1.63-3.93-.16-5.49,1.47-1.56,3.93-1.63,5.49-.16,2.25,2.12,3.88,2.31,4.91,2.26,4.03-.19,9.08-5.06,14.22-10.75-6.66-5.11-15.05-5.85-23.25-2-9.23,4.33-18.36,15.14-17.95,29.51.5,17.34,7.25,23.52,10.92,25.6.77-1.07,1.59-2.1,2.43-3.08,9.86-11.3,23.24-14.23,35.26-7.93.4-1.42.79-2.89,1.17-4.51,4.22-17.92,18.75-35.86,36.16-44.65Z"/>
      <path class="cls-6" d="m437.88,407.53c.19-4.52-.89-10.69-7.16-14.41-9.98-5.92-19.64-1.44-34.24,5.34-10.54,4.89-23.42,10.85-39.64,13.76,8.63,17.43,16.23,36.85,21.93,56.88,39.83-20.11,58.41-45.22,59.12-61.58Z"/>
      <path class="cls-9" d="m108,200.18c24.08-8.27,59.86,5.6,73.13,15.68,17.43,13.25,33.25,6.12,39.18.5,1.56-1.47,1.62-3.93.15-5.49-1.47-1.56-3.93-1.62-5.49-.15-.39.37-7.65,7.04-18.57,4.28.05.21.08.41.14.62.56,2.07-.66,4.2-2.72,4.77-2.07.56-4.2-.65-4.77-2.72-.58-2.14-.86-4.27-.91-6.38-.76-.49-1.53-1.02-2.32-1.62-13.6-10.34-52.37-26.44-80.35-16.84-5.12,1.76-9.58,4.26-13.37,7.49.05,1.02.18,2.01.42,2.96.52,2.08-.74,4.19-2.82,4.71-.32.08-.63.12-.95.12-1.04,0-2.02-.43-2.74-1.15-2.51,3.46-4.54,7.44-6.07,11.93,2.52.92,4.91,1.94,7.16,3.06,3.6-10.92,10.61-18.24,20.89-21.77Z"/>
      <path class="cls-9" d="m161.98,456.59c2.13-.3,4.09,1.18,4.38,3.3.16,1.11.29,2.23.41,3.35,6.13-.24,12.58-.65,19.39-1.27,2.14-.19,3.71-2.08,3.51-4.22-.19-2.13-2.08-3.7-4.22-3.51-117.19,10.66-124.09-37.55-127.79-63.45-1.3-9.11-3.11-17.91-4.86-26.43-3.45-16.8-6.71-32.68-5.21-47.15.11-1.07-.23-2.14-.93-2.95-.45-.52-44.59-51.77-38.28-91.09,16.02-6.87,63.4-4.46,81.9,9.77,1.18.91,2.77,1.06,4.1.39,8.96-4.48,21.51,1.54,37.4,9.17,14.98,7.19,33.62,16.14,55.83,19.15,23.14,3.14,42.54-4.19,53.22-20.09,7.81-11.63,9.31-25.81,4.32-38.17-1.85.47-3.74.77-5.63.85-2.12.1-3.94-1.59-4.02-3.74-.08-2.14,1.59-3.94,3.74-4.02.71-.03,1.41-.11,2.12-.22-9.13-13.4-24.63-14.84-35.69-10.24-11.17,4.65-17.75,14.52-17.52,25.29,2.93,1.89,5.69,3.07,8.26,3.72-2.52-10.5,4.25-18.51,12.25-21.83,8.88-3.7,20.79-2.31,27.36,9.11,6.22,10.8,5.6,24.19-1.62,34.94-8.97,13.36-25.64,19.45-45.74,16.73-21-2.85-38.28-11.14-53.52-18.46-16.75-8.04-30.18-14.49-42.01-10.08-1.84-1.25-3.86-2.4-6.02-3.46-.29.87-.56,1.77-.81,2.69-.46,1.74-2.03,2.89-3.75,2.89-.33,0-.67-.04-1-.13-2.07-.55-3.31-2.68-2.75-4.75.34-1.29.74-2.53,1.15-3.75-25.63-9.37-63.7-9.03-76.91-1.76-1,.55-1.71,1.51-1.93,2.63-8.18,40.18,31.28,89.57,38.61,98.32-1.23,15.16,2.04,31.05,5.49,47.84,1.73,8.41,3.51,17.1,4.78,25.97,3.43,24.01,10.22,71.6,104.88,71.6,1.35,0,2.73-.01,4.11-.03-.09-.83-.19-1.66-.3-2.48-.3-2.12,1.18-4.09,3.3-4.38Z"/>
      <path class="cls-9" d="m193.82,220.4c2.07-.56,3.29-2.7,2.72-4.77-.06-.21-.09-.41-.14-.62-2.57-.65-5.33-1.82-8.26-3.72.04,2.1.32,4.24.91,6.38.56,2.07,2.7,3.29,4.77,2.72Z"/>
      <path class="cls-9" d="m81.56,227.39c.33.09.67.13,1,.13,1.72,0,3.29-1.15,3.75-2.89.24-.92.52-1.81.81-2.69-2.25-1.11-4.64-2.13-7.16-3.06-.42,1.22-.81,2.46-1.15,3.75-.55,2.07.68,4.2,2.75,4.75Z"/>
      <path class="cls-9" d="m92.11,200.33c-.31-6.56,3.21-14.53,10-22.38,13.85-16,42.19-31.87,71.66-28.86,14.93,1.52,26.94,4.77,37.54,7.64,19.89,5.38,34.66,9.37,48.68-5.18,5.06,8.58,5.54,18.57,1.2,28.04-4.12,8.99-11.89,15.43-19.84,16.67.48.7.95,1.4,1.39,2.16.93,1.61,1.73,3.28,2.41,4.97,9.57-2.45,18.27-10.04,23.1-20.57,4.54-9.91,4.75-20.61.88-30.17-.41.44-.81.88-1.2,1.33-1.4,1.62-3.85,1.81-5.47.41-1.62-1.4-1.81-3.85-.41-5.47,1.01-1.17,2.1-2.32,3.24-3.46-.61-.9-1.24-1.78-1.93-2.64-.74-.92-1.85-1.46-3.03-1.46h-.01c-1.18,0-2.3.55-3.03,1.48-8.15,10.35-16.08,12.14-26.93,10.44-1.34,2.47-2.37,4-2.54,4.25-1.21,1.77-3.63,2.21-5.4,1-1.77-1.21-2.21-3.63-1-5.4.02-.03.38-.57.94-1.52-2.81-.69-5.81-1.5-9.03-2.37-10.35-2.8-23.23-6.28-38.78-7.86-26.92-2.74-52.95,8.9-69.62,22.99-1.33,3.19-2.37,6.61-3.04,10.29-.34,1.87-1.97,3.19-3.81,3.19-.23,0-.46-.02-.7-.06-1.47-.27-2.57-1.33-2.99-2.66-8.32,10.45-11.65,21.05-9.39,30.06.18.71.54,1.31,1.02,1.79,1.79-2.47,3.81-4.69,6.09-6.63Z"/>
      <path class="cls-9" d="m89.71,208c2.08-.52,3.34-2.63,2.82-4.71-.24-.95-.37-1.94-.42-2.96-2.28,1.94-4.3,4.17-6.09,6.63.72.72,1.7,1.15,2.74,1.15.31,0,.63-.04.95-.12Z"/>
      <path class="cls-9" d="m241.36,196.25c-.71.11-1.41.19-2.12.22-2.14.08-3.81,1.88-3.74,4.02.08,2.14,1.9,3.84,4.02,3.74,1.9-.07,3.78-.37,5.63-.85-.68-1.69-1.48-3.36-2.41-4.97-.44-.76-.91-1.47-1.39-2.16Z"/>
      <path class="cls-9" d="m104.94,164.35c10.2-24.39,38.36-34.39,62.81-33.11,23.44,1.23,46.76.19,60.64-14.41,4.83,14.47-3.18,29.95-6.02,34.76,2.85.7,5.5,1.27,7.99,1.67,4.57-8.47,12.73-28.06,2.26-45.73-.68-1.15-1.9-1.87-3.24-1.9-1.36-.04-2.59.62-3.33,1.73-8.77,13.16-25.54,17.84-57.9,16.13-30.93-1.62-67.26,13.25-73.9,49.76-.12.64-.05,1.27.13,1.85.59-.75,1.21-1.49,1.85-2.24,2.49-2.88,5.41-5.74,8.7-8.52Z"/>
      <path class="cls-9" d="m97.38,177.77c.24.04.47.06.7.06,1.84,0,3.47-1.31,3.81-3.19.67-3.69,1.71-7.11,3.04-10.29-3.28,2.78-6.21,5.64-8.7,8.52-.64.74-1.26,1.49-1.85,2.24.42,1.33,1.53,2.4,2.99,2.66Z"/>
      <path class="cls-9" d="m221.43,153.12c-1.21,1.77-.77,4.18,1,5.4,1.77,1.21,4.18.77,5.4-1,.17-.25,1.2-1.78,2.54-4.25-2.5-.39-5.15-.97-7.99-1.67-.56.94-.92,1.48-.94,1.52Z"/>
      <path class="cls-9" d="m330.26,116.57c18.24,28.89,17.05,83.89,17.04,84.46-.03,1.15.45,2.25,1.32,3.01,12.6,11.09,21.57,29.29,29.48,45.36,3.78,7.67,7.35,14.92,10.95,20.58,1.87,2.94,3.78,5.69,5.62,8.35,8.98,12.93,16.07,23.15,12.46,44.83-2.62,15.72-13.76,52.14-60.65,77.08,1.84-.83,4.02-.13,5,1.66.55,1.01,1.09,2.05,1.63,3.08.41-.06.81-.12,1.21-.19,46.4-26.46,57.72-63.92,60.46-80.36,4.13-24.8-4.55-37.3-13.73-50.53-1.8-2.59-3.66-5.28-5.45-8.09-3.37-5.3-6.85-12.37-10.54-19.84-7.96-16.16-16.95-34.4-29.98-46.54.09-10.47-.51-62.18-20.15-89.83-1.01-1.42-2.84-2-4.48-1.4-1.87.67-43.91,16.01-65.15,37.25,1.55,2.3,2.83,4.71,3.84,7.2,16.4-17.77,51.01-32.13,61.12-36.07Z"/>
      <path class="cls-9" d="m346.01,400.49c-5.5,2.9-11.46,5.66-17.98,8.19-2,.78-2.99,3.03-2.21,5.02.6,1.54,2.06,2.48,3.62,2.48.47,0,.94-.09,1.41-.26,5.57-2.17,10.74-4.49,15.61-6.93-.6-1.13-1.19-2.27-1.79-3.38-.99-1.81-.37-4.04,1.35-5.13Z"/>
      <path class="cls-9" d="m262.46,154.38c1.62,1.4,4.07,1.22,5.47-.41.38-.45.79-.89,1.2-1.33-1.01-2.49-2.28-4.9-3.84-7.2-1.14,1.14-2.23,2.29-3.24,3.46-1.4,1.62-1.22,4.07.41,5.47Z"/>
      <path class="cls-9" d="m376.8,478.29c-1.45,0-2.83-.81-3.5-2.2-.93-1.93-.12-4.25,1.81-5.18,1.24-.6,2.45-1.2,3.65-1.8-5.7-20.03-13.3-39.45-21.93-56.88-1.68.3-3.39.58-5.15.81-2.13.28-4.08-1.22-4.36-3.34-.05-.4-.02-.78.04-1.16-.3.15-.61.3-.91.45,30.27,57.39,49.82,140.39,22.28,190.88-.31.57-.47,1.21-.47,1.86,0,47.45-22.02,94.19-43.32,111.96-6.46,5.39-12.45,7.77-17.32,6.88-11.01-2-10.74-8.45-8.32-26.81,1.49-11.29,3.31-25.2,1.01-41.04-2.41.4-4.97.78-7.69,1.1,2.14,14.81.4,28.12-1.02,38.93-2.26,17.19-4.21,32.04,14.63,35.46,1.11.2,2.25.3,3.41.3,6.34,0,13.28-3.02,20.28-8.86,22.51-18.79,45.8-67.55,46.1-116.94,18.03-33.91,16.42-81.02,4.82-125.98-.79.39-1.56.78-2.36,1.17-.54.26-1.12.38-1.68.38Z"/>
      <path class="cls-9" d="m346.01,400.49c.16-.08.31-.17.47-.25-.09.04-.18.06-.26.11-.07.04-.13.09-.2.14Z"/>
      <path class="cls-9" d="m350.67,405.34c.83-.11,1.64-.24,2.45-.36-.54-1.03-1.08-2.07-1.63-3.08-.98-1.8-3.17-2.5-5-1.66-.16.08-.31.17-.47.25-1.72,1.08-2.33,3.32-1.35,5.13.6,1.11,1.2,2.25,1.79,3.38.3-.15.62-.3.91-.45.28-1.63,1.57-2.97,3.3-3.2Z"/>
      <path class="cls-9" d="m157.54,546.2c-.76.79-1.77,1.18-2.79,1.18-.69,0-1.38-.19-1.99-.56-.1,1.72-.19,3.44-.24,5.15,1.66,1.29,3.3,2.7,4.93,4.26,1.54,1.49,1.59,3.94.1,5.49-1.34,1.4-3.47,1.56-5.01.48.03.65.06,1.29.09,1.94,2,.62,4,1.34,5.98,2.19,1.02.44,1.75,1.26,2.11,2.23-1.66-15.62.64-32.86,3.01-50.64,2.43-18.22,4.93-37.01,3.05-54.68-2.66.1-5.26.17-7.8.21,1.91,16.92-.55,35.47-2.95,53.44-.9,6.74-1.8,13.52-2.48,20.26,1.29,1.13,2.59,2.3,3.9,3.56,1.54,1.49,1.58,3.95.09,5.49Z"/>
      <path class="cls-9" d="m228.67,644.09c.62-2.05,2.78-3.22,4.83-2.6.69.21,1.38.39,2.07.58.42-1.09.84-2.19,1.24-3.29.74-2.01-.3-4.24-2.31-4.98-2.01-.74-4.24.3-4.98,2.31-15.57,42.51-39.79,68.49-55.66,72.18-5.09,1.18-9.19.2-12.54-3-10.92-10.45-3.7-32.1,5.44-59.52,3.93-11.78,7.99-23.97,11.17-36.91.32-1.3-.06-2.68-1-3.64-9.8-10.01-14.36-21.88-16.01-34.94-.04.38-.12.77-.28,1.14-.85,1.97-3.13,2.88-5.1,2.04-.7-.3-1.4-.56-2.09-.82.77,5.42,2.01,10.7,3.88,15.77,1.34-.35,2.74-.58,4.2-.66,2.13-.14,3.97,1.53,4.08,3.67.11,2.14-1.53,3.97-3.67,4.08-.48.02-.94.08-1.41.16,2.43,4.69,5.49,9.18,9.34,13.39-3.02,11.89-6.81,23.25-10.48,34.25-9.62,28.83-17.92,53.74-3.45,67.58,3.9,3.73,8.66,5.63,13.98,5.63,1.83,0,3.73-.23,5.68-.68,19.34-4.49,41.95-31.22,57.02-66.55-.46-.13-.91-.24-1.36-.38-2.05-.62-3.22-2.78-2.6-4.83Z"/>
      <path class="cls-9" d="m166.36,459.89c-.3-2.12-2.25-3.6-4.38-3.3-2.12.3-3.6,2.26-3.3,4.38.12.82.21,1.65.3,2.48,2.54-.04,5.14-.11,7.8-.21-.12-1.12-.25-2.24-.41-3.35Z"/>
      <path class="cls-9" d="m295.39,646.82c2.11-.37,4.12,1.05,4.49,3.16.16.92.3,1.83.43,2.74,12.93-2.16,21.18-5.15,21.94-5.43,2.01-.74,3.04-2.98,2.29-4.99-.75-2.01-2.98-3.04-4.99-2.29-.4.15-39.98,14.45-83.98,2.06-.94,2.45-1.92,4.86-2.93,7.23,14.48,4.18,28.42,5.66,40.82,5.66,6.93,0,13.37-.45,19.16-1.14-.12-.83-.25-1.67-.39-2.52-.37-2.11,1.05-4.12,3.16-4.49Z"/>
      <path class="cls-9" d="m299.88,649.98c-.37-2.11-2.37-3.53-4.49-3.16-2.11.37-3.53,2.38-3.16,4.49.15.84.27,1.68.39,2.52,2.71-.32,5.28-.7,7.69-1.1-.13-.91-.27-1.82-.43-2.74Z"/>
      <path class="cls-9" d="m233.51,641.49c-2.05-.62-4.22.55-4.83,2.6-.62,2.05.55,4.22,2.6,4.83.46.14.91.25,1.36.38,1.01-2.37,1.99-4.79,2.93-7.23-.69-.19-1.38-.37-2.07-.58Z"/>
      <path class="cls-9" d="m302.95,476.67c-8.49-6-25.18-5.1-46.29-3.96-16,.86-34.14,1.84-52.64.16-2.14-.19-4.02,1.38-4.22,3.51-.19,2.14,1.38,4.02,3.51,4.22,19.06,1.73,37.5.74,53.76-.14,18.84-1.02,35.11-1.89,41.4,2.55,3.84,2.71,6.65,9.27,4.57,16.56-2.55,8.97-16.16,30.31-87.19,34.62-2.14.13-3.77,1.97-3.64,4.11.13,2.06,1.84,3.65,3.87,3.65.08,0,.16,0,.24,0,73.26-4.44,90.46-27.12,94.19-40.24,3.2-11.27-1.67-20.87-7.56-25.03Z"/>
      <path class="cls-9" d="m434.67,386.44c-13.5-8-26.46-1.99-41.47,4.98-10.9,5.06-23.15,10.73-38.88,13.37-.34.19-.66.39-1.01.59,1.19,2.25,2.36,4.53,3.51,6.85,16.22-2.91,29.11-8.88,39.64-13.76,14.61-6.78,24.26-11.26,34.24-5.34,6.27,3.72,7.36,9.89,7.16,14.41-.71,16.36-19.29,41.47-59.12,61.58.72,2.54,1.42,5.08,2.08,7.63,46.55-23.07,64.04-51.4,64.79-68.87.41-9.38-3.49-16.99-10.96-21.42Z"/>
      <path class="cls-9" d="m353.32,405.38c.34-.19.66-.39,1.01-.59-.4.07-.81.13-1.21.19.07.13.14.26.21.39Z"/>
      <path class="cls-9" d="m375.11,470.91c-1.93.93-2.74,3.25-1.81,5.18.67,1.39,2.06,2.2,3.5,2.2.56,0,1.14-.12,1.68-.38.8-.39,1.57-.78,2.36-1.17-.66-2.55-1.36-5.09-2.08-7.63-1.2.61-2.41,1.21-3.65,1.8Z"/>
      <path class="cls-9" d="m347.33,409.7c.28,2.13,2.23,3.62,4.36,3.34,1.76-.23,3.46-.51,5.15-.81-1.15-2.32-2.32-4.6-3.51-6.85-1.92,1.08-3.92,2.13-5.96,3.16-.06.38-.09.76-.04,1.16Z"/>
      <path class="cls-9" d="m350.67,405.34c-1.73.23-3.02,1.56-3.3,3.2,2.04-1.04,4.04-2.09,5.96-3.16-.07-.13-.14-.26-.21-.39-.81.13-1.62.25-2.45.36Z"/>
      <path class="cls-9" d="m111.83,567.84c-17.41,8.79-31.95,26.73-36.16,44.65-.38,1.61-.77,3.09-1.17,4.51.5.26,1,.51,1.5.81,1.84,1.1,2.45,3.48,1.35,5.32-1.1,1.84-3.48,2.45-5.32,1.35,0,0-.01,0-.02,0-3.44,8.7-7.05,11.86-9.23,13-1.93,1.01-3.88,1.09-5.97.26-1.99-.8-4.25.17-5.05,2.16-.8,1.99.17,4.25,2.16,5.05,1.88.75,3.77,1.12,5.65,1.12,2.32,0,4.6-.57,6.78-1.7,7.39-3.84,13.06-13.97,16.86-30.09,3.66-15.56,16.86-31.81,32.1-39.5,8.68-4.38,22.21-8.15,38.13-2.12-.4-2.8-.66-5.64-.83-8.51-13.64-4.19-27.63-2.95-40.8,3.7Z"/>
      <path class="cls-9" d="m160.72,568.56c.06.58.14,1.15.21,1.73.06-.59,0-1.18-.21-1.73Z"/>
      <path class="cls-9" d="m158.61,566.33c-1.98-.85-3.98-1.58-5.98-2.19.16,2.87.43,5.71.83,8.51.7.26,1.39.52,2.09.82,1.97.85,4.25-.07,5.1-2.04.16-.37.24-.76.28-1.14-.07-.58-.15-1.15-.21-1.73-.36-.97-1.08-1.79-2.11-2.23Z"/>
      <path class="cls-9" d="m124.57,656.76c-4.62,20.12-18.16,34.58-36.23,38.67-16.96,3.85-34.08-2.05-44.67-15.38-12.61-15.86-9.18-37.89,1.42-50.03,3.73-4.27,13.81-13.35,26.93-5.56.85-2.14,1.68-4.62,2.48-7.47-12.03-6.3-25.4-3.37-35.26,7.93-.85.97-1.66,2-2.43,3.08,1.28.73,2.19.96,2.32.99,2.06.48,3.39,2.54,2.94,4.61-.39,1.82-1.98,3.07-3.76,3.07-.25,0-.51-.02-.76-.08-.24-.05-2.16-.47-4.72-1.95-7.2,14.61-7.83,34.4,4.77,50.25,9.95,12.52,24.77,19.47,40.47,19.47,3.97,0,7.99-.44,12-1.35,21.05-4.77,36.78-21.41,42.08-44.51,10.36-45.15,17.45-61.06,28.4-62.82-1.22-2.37-2.29-4.78-3.2-7.25-15.32,4.02-23.06,26.06-32.76,68.34Z"/>
      <path class="cls-9" d="m165.62,591.43c-.11-2.14-1.95-3.81-4.08-3.67-1.46.08-2.86.31-4.2.66.91,2.47,1.98,4.89,3.2,7.25.46-.07.93-.13,1.41-.16,2.14-.11,3.79-1.94,3.67-4.08Z"/>
      <path class="cls-9" d="m77.35,623.12c1.1-1.84.49-4.23-1.35-5.32-.5-.3-1-.55-1.5-.81-.8,2.86-1.64,5.34-2.48,7.47,0,0,.01,0,.02,0,1.84,1.1,4.23.49,5.32-1.35Z"/>
      <path class="cls-9" d="m52.86,585.64c-1.03.05-2.66-.13-4.91-2.26-1.56-1.47-4.02-1.4-5.49.16-1.47,1.56-1.4,4.02.16,5.49,3.08,2.91,6.44,4.38,9.99,4.38.2,0,.41,0,.61-.01,8.34-.39,15.41-8.45,23.59-17.78,5.03-5.73,10.23-11.66,15.81-15.79,15.69-11.59,39.54-17.16,59.44,2,.15.14.31.26.48.37-.14-3.37-.13-6.79-.02-10.23-22.27-17.32-47.54-10.94-64.51,1.61-5.77,4.26-10.87,9.9-15.78,15.49.42.33.84.66,1.24,1.02,1.61,1.42,1.77,3.87.35,5.48-1.42,1.61-3.87,1.77-5.48.35-.41-.36-.83-.71-1.26-1.03-5.14,5.69-10.19,10.56-14.22,10.75Z"/>
      <path class="cls-9" d="m152.54,562.2c1.54,1.08,3.67.92,5.01-.48,1.49-1.54,1.44-4-.1-5.49-1.62-1.56-3.27-2.97-4.93-4.26-.11,3.44-.12,6.86.02,10.23Z"/>
      <path class="cls-9" d="m25.88,602.4c-.41-14.37,8.72-25.17,17.95-29.51,8.21-3.85,16.59-3.11,23.25,2,1.3-1.43,2.6-2.92,3.89-4.39.41-.47.83-.95,1.25-1.42-8.99-7.13-20.72-8.37-31.7-3.21-.5.23-.97.5-1.46.76.51.88,1.06,1.76,1.66,2.66,1.2,1.77.74,4.19-1.03,5.39-.67.45-1.43.67-2.18.67-1.24,0-2.46-.6-3.21-1.7-.62-.91-1.18-1.81-1.72-2.71-9.23,7.61-14.83,19.42-14.48,31.7.59,20.51,9.14,28.79,14.71,32.02,1.16-2.36,2.5-4.59,3.98-6.64-3.67-2.08-10.43-8.26-10.92-25.6Z"/>
      <path class="cls-9" d="m38.3,636.67c1.78,0,3.37-1.25,3.76-3.07.45-2.07-.88-4.13-2.94-4.61-.13-.03-1.04-.27-2.32-.99-1.48,2.05-2.81,4.28-3.98,6.64,2.55,1.48,4.48,1.9,4.72,1.95.26.05.51.08.76.08Z"/>
      <path class="cls-9" d="m73.82,575.57c1.42-1.61,1.26-4.06-.35-5.48-.41-.36-.83-.69-1.24-1.02-.42.47-.84.95-1.25,1.42-1.29,1.48-2.6,2.96-3.89,4.39.43.33.85.67,1.26,1.03,1.61,1.42,4.06,1.26,5.48-.35Z"/>
      <path class="cls-9" d="m96.5,529.55c-1.73,1.27-4.16.9-5.43-.82-.58-.78-1.19-1.51-1.83-2.19-4.75,2.13-8.93,4.51-12.44,6.5-3.99,2.27-9.47,5.36-10.85,4.98,0,0-.08-.07-.2-.28-1.04-1.88-3.41-2.55-5.28-1.51-1.87,1.04-2.55,3.4-1.51,5.28,1.41,2.54,3.4,3.55,4.81,3.95,4.61,1.29,9.74-1.62,16.85-5.66,16.24-9.22,40.78-23.16,71.41,6.5.22.21.46.38.71.53.2-3.21.47-6.44.79-9.68-21.76-18.95-41.38-18.57-56.66-13.58.14.18.29.36.43.55,1.27,1.73.9,4.16-.82,5.43Z"/>
      <path class="cls-9" d="m154.75,547.39c1.01,0,2.03-.39,2.79-1.18,1.49-1.54,1.45-4-.09-5.49-1.31-1.27-2.61-2.44-3.9-3.56-.33,3.24-.6,6.47-.79,9.68.61.37,1.3.56,1.99.56Z"/>
      <path class="cls-9" d="m48.18,526.49c12.55-8.88,30.74-10.94,41.07.05,2.4-1.08,4.96-2.09,7.65-2.97-12.82-16.65-36.99-14.88-53.2-3.42-13.69,9.68-24.37,28.59-11.1,50.77,2-1.65,4.16-3.09,6.48-4.31-10.21-17.5-2.24-32.09,9.11-40.12Z"/>
      <path class="cls-9" d="m37.53,575.34c.75,0,1.51-.22,2.18-.67,1.77-1.2,2.23-3.62,1.03-5.39-.61-.89-1.15-1.78-1.66-2.66-2.31,1.21-4.48,2.66-6.48,4.31.54.9,1.1,1.8,1.72,2.71.75,1.11,1.97,1.7,3.21,1.7Z"/>
      <path class="cls-9" d="m91.07,528.73c1.27,1.73,3.7,2.09,5.43.82,1.73-1.27,2.09-3.7.82-5.43-.14-.19-.29-.36-.43-.55-2.69.88-5.24,1.89-7.65,2.97.64.68,1.25,1.41,1.83,2.19Z"/>
      <path class="cls-10" d="m219.97,358.34c7.76-6.21,11.26-12.81,11.26-12.81l17.86,2.72s10.87,38.43.39,43.87c-10.48,5.43-22.9-20.19-22.9-20.19l-6.6-13.59Z"/>
      <path class="cls-2" d="m538.28,182.49c61.03,41.82-3.11,196.42-84.62,157.6s.78-215.05,84.62-157.6Z"/>
      <path class="cls-9" d="m479.98,350.28c-8.89,0-18.26-2.05-27.99-6.68-22.27-10.6-34.96-32.04-35.73-60.35-1.15-42.31,24.22-89.76,57.75-108.01,15.38-8.38,39.41-14.49,66.46,4.05,35.26,24.16,31.48,81.73,7.45,123.44-14.52,25.21-38.6,47.55-67.95,47.55Zm24.04-175.3c-8.8,0-17.63,2.35-26.29,7.07-31.19,16.98-54.78,61.34-53.7,100.98.48,17.86,6.31,41.65,31.3,53.55,37.12,17.68,68.69-7.9,85.87-37.73,21.78-37.81,26.02-91.83-5.11-113.16h0c-10.4-7.13-21.22-10.71-32.07-10.71Z"/>
      <path class="cls-7" d="m442.01,257.02c-45.81-19.41-85.4-109.47-62.89-161.48,22.51-52.02,91.61-46.58,107.92-7.76,36.49-24.07,88.51-5.43,96.27,42.7,7.76,48.14-37.27,122.67-141.3,126.55Z"/>
      <g>
        <path class="cls-4" d="m191.24,217.43c-2.7-1.35-25.23-19.04-52.44-22.7-9.36-36.3-23.57-104.97-9.36-110.31,10.29-3.87,68.72,82.84,78.97,104.38-10.23,3.32-18.38,11.77-17.17,28.63Z"/>
        <path class="cls-9" d="m191.24,221.31c-.59,0-1.19-.14-1.73-.41-.47-.24-1.49-.89-2.95-1.87-7.13-4.78-26.07-17.46-48.26-20.45-1.56-.21-2.85-1.35-3.24-2.88-10.32-40.01-24.95-108.15-6.97-114.91,15.62-5.88,77.6,93.21,83.84,106.34.48,1.01.5,2.17.06,3.2-.44,1.03-1.3,1.81-2.37,2.16-10.55,3.43-15.43,11.72-14.5,24.66.1,1.39-.55,2.73-1.71,3.5-.65.43-1.41.66-2.16.66Zm-49.32-30.04c19.81,3.3,36.64,13.25,45.48,19.01,1.23-13.61,8.97-20.27,15.64-23.51-14.14-26.63-62.25-95.17-72.65-98.52-6.19,3.99-3.58,43.65,11.53,103.02Z"/>
        <path class="cls-9" d="m153.54,129.55c-8.21,0-19.82-1.76-30.77-9.63-1.74-1.25-2.14-3.68-.89-5.42,1.25-1.75,3.67-2.14,5.42-.89,16.54,11.88,35.22,7.3,35.4,7.25,2.07-.55,4.19.73,4.72,2.8.53,2.08-.73,4.19-2.8,4.72-.4.1-4.72,1.16-11.08,1.16Z"/>
        <path class="cls-9" d="m162.63,165.83c-9.57,0-21.03-1.93-32.85-8.3-1.89-1.02-2.59-3.37-1.57-5.26,1.02-1.89,3.37-2.6,5.26-1.57,25.99,14.01,50.78,3.53,51.04,3.43,1.97-.85,4.25.05,5.11,2.01.86,1.96-.03,4.25-1.99,5.11-.69.3-10.73,4.6-24.99,4.6Z"/>
      </g>
      <path class="cls-3" d="m310.44,332.77c3.99,11.1,16.21,16.86,27.31,12.88,11.1-3.99,16.86-16.21,12.88-27.31-3.99-11.1-16.21-16.86-27.31-12.88-11.1,3.99-16.86,16.21-12.88,27.31Z"/>
      <path class="cls-3" d="m160.65,386.57c3.99,11.1-1.78,23.32-12.88,27.31-11.1,3.99-23.32-1.78-27.31-12.88-3.99-11.1,1.78-23.32,12.88-27.31,11.1-3.99,23.32,1.78,27.31,12.88Z"/>
      <path class="cls-9" d="m175.61,356.78c3.33,9.28-1.49,19.51-10.77,22.84-9.28,3.33-19.51-1.49-22.84-10.77-3.33-9.28,1.49-19.51,10.77-22.84,9.28-3.33,19.51,1.49,22.84,10.77Z"/>
      <path class="cls-9" d="m213.92,361.69c-6.04,0-11.77-3.15-15.79-8.97-1.22-1.76-.78-4.18.98-5.4,1.77-1.22,4.18-.78,5.4.98,3.38,4.89,8.11,6.72,12.94,4.99,4.19-1.49,8.22-5.83,7.79-11.22-.14-1.75.91-3.37,2.56-3.96,1.65-.59,3.49,0,4.49,1.43,3.11,4.44,8.97,5.21,13.15,3.7,4.83-1.75,7.31-6.16,6.81-12.09-.18-2.14,1.41-4.02,3.54-4.19,2.15-.19,4.01,1.41,4.19,3.54.8,9.41-3.77,17.09-11.9,20.04-5.48,1.98-11.5,1.38-16.29-1.3-1.99,5.11-6.25,9.41-11.74,11.36-2.05.73-4.11,1.08-6.14,1.08Z"/>
      <path class="cls-9" d="m279.95,319.3c3.33,9.28,13.56,14.1,22.84,10.77,9.28-3.33,14.1-13.56,10.77-22.84-3.33-9.28-13.56-14.1-22.84-10.77-9.28,3.33-14.1,13.56-10.77,22.84Z"/>
      <path class="cls-5" d="m334.1,194.91c3.88-30.28-7.76-63.66-7.76-63.66,0,0-28.73,8.54-51.24,34.94,24.84-2.33,36.49,3.11,36.49,3.11,0,0-17.86.78-22.51,5.43,13.97-1.55,27.95,3.88,27.95,3.88,0,0-12.42-.78-15.53,2.33,11.65,1.55,32.61,13.97,32.61,13.97Z"/>
      <path class="cls-5" d="m51.5,299.72c-25.62-24.84-30.28-66.77-30.28-66.77,0,0,45.81-3.11,64.44,10.09-18.63,6.21-27.95,20.18-27.95,20.18,0,0,16.3-9.32,24.07-6.21-16.3,7.76-24.07,18.63-24.07,18.63,0,0,10.87-3.88,14.75-2.33-12.42,12.42-20.96,26.4-20.96,26.4Z"/>
      <path class="cls-9" d="m125.25,316.03c-.99,0-1.99-.38-2.75-1.14-1.52-1.52-1.52-3.97,0-5.49l16.31-16.31c1.52-1.52,3.97-1.52,5.49,0s1.52,3.97,0,5.49l-16.3,16.31c-.76.76-1.75,1.14-2.75,1.14Z"/>
      <path class="cls-9" d="m259.56,257.02c-2,0-3.7-1.53-3.87-3.56-.18-2.14,1.41-4.02,3.55-4.19l27.95-2.33c2.14-.19,4.01,1.41,4.19,3.55.18,2.14-1.41,4.01-3.55,4.19l-27.95,2.33c-.11,0-.22.01-.33.01Z"/>
      <path class="cls-9" d="m25.88,413.07c-1.41,0-2.77-.77-3.46-2.12-.97-1.91-.22-4.25,1.69-5.22,1.53-.78,37.65-19.06,66.2-19.06,2.14,0,3.88,1.74,3.88,3.88s-1.74,3.88-3.88,3.88c-26.67,0-62.31,18.02-62.67,18.21-.57.29-1.17.43-1.76.43Z"/>
      <path class="cls-9" d="m42.96,451.89c-.97,0-1.95-.37-2.71-1.1-1.54-1.49-1.57-3.95-.08-5.49,1.11-1.14,27.52-28.06,56.99-35.23,2.06-.52,4.18.76,4.69,2.85.51,2.08-.77,4.18-2.85,4.69-27.27,6.64-53,32.83-53.26,33.1-.76.78-1.77,1.18-2.78,1.18Z"/>
      <path class="cls-9" d="m365.93,286.52c-.8,0-1.61-.25-2.31-.76-1.72-1.28-2.08-3.71-.8-5.43,18.44-24.85,46.69-32.92,47.89-33.26,2.06-.57,4.2.63,4.78,2.7.58,2.06-.63,4.2-2.69,4.78-.27.07-26.93,7.75-43.73,30.4-.76,1.03-1.93,1.57-3.12,1.57Z"/>
      <path class="cls-9" d="m375.25,307.49c-1.3,0-2.56-.65-3.3-1.83-1.13-1.82-.57-4.22,1.25-5.35,29.49-18.34,55.65-16.18,56.75-16.1,2.13.19,3.7,2.08,3.51,4.21-.19,2.13-2.05,3.67-4.21,3.52-.24-.01-24.78-1.93-51.95,14.96-.64.4-1.35.59-2.05.59Z"/>
      <path class="cls-9" d="m247.21,396.27c-16.89,0-32.1-32.06-33.88-35.93-.89-1.95-.04-4.25,1.91-5.15,1.95-.88,4.25-.03,5.15,1.91,5.14,11.2,18.79,33.58,28.14,31.24,1.18-.3,2.01-.98,2.68-2.22,3.94-7.31-.75-27.51-4.62-38.53-.71-2.02.35-4.24,2.37-4.95,2.01-.71,4.24.35,4.95,2.37,1.14,3.25,10.97,32.09,4.13,44.78-1.69,3.15-4.34,5.25-7.63,6.08-1.07.27-2.14.39-3.2.39Z"/>
      <path class="cls-9" d="m442.01,260.91c-.52,0-1.04-.1-1.52-.31-22.94-9.72-45.76-37.19-59.57-71.69-14.18-35.43-16.14-70.02-5.36-94.91,10.93-25.25,33.59-40.29,60.68-40.29h.4c22.81.12,42.72,11.17,52.04,28.51,18.43-10.52,40.57-11.76,60.07-3.19,20.65,9.07,34.64,27.6,38.39,50.83,3.99,24.73-5.21,53.62-24.61,77.28-26.87,32.78-69.62,51.87-120.37,53.76-.05,0-.1,0-.15,0Zm-5.77-199.44c-23.89,0-43.9,13.29-53.56,35.61-9.81,22.67-7.77,55.92,5.45,88.95,12.91,32.24,33.77,57.84,54.61,67.08,48.11-1.99,88.49-20.05,113.78-50.9,18.01-21.97,26.59-48.55,22.95-71.12-3.32-20.58-15.66-36.97-33.85-44.96-18.43-8.09-39.53-6.27-56.45,4.88-.97.63-2.16.81-3.27.47-1.11-.34-2-1.15-2.45-2.21-7.05-16.78-25.44-27.69-46.87-27.81-.12,0-.23,0-.35,0Z"/>
      <path class="cls-9" d="m426.48,567.57c-1.8,0-3.41-1.25-3.79-3.08-3.18-14.98,1.74-26.63,6.09-36.91,3.49-8.26,6.79-16.06,5.52-24.66-1.02-6.89-2.97-13.82-5.03-21.15-4.21-14.97-8.99-31.94-8.99-57.06,0-34.5,5.61-101.91,17.92-168.4.39-2.11,2.42-3.51,4.52-3.11,2.11.39,3.5,2.42,3.11,4.52-12.23,66.01-17.79,132.84-17.79,166.99,0,24.05,4.62,40.47,8.69,54.96,2.13,7.58,4.14,14.73,5.24,22.11,1.6,10.76-2.29,19.94-6.05,28.83-4.28,10.12-8.32,19.68-5.64,32.27.45,2.09-.89,4.16-2.99,4.6-.27.06-.54.09-.81.09Z"/>
      <path class="cls-9" d="m410.95,552.81c-2.04,0-3.75-1.59-3.87-3.65-.03-.57-.72-14.27,7.99-38.05,4.28-11.66,2.46-21,.15-32.81-1.96-10.03-4.17-21.39-2.7-36.11,3.06-30.55,17.34-60.8,35.43-99.12l2.19-4.64c.91-1.94,3.23-2.76,5.17-1.85,1.94.91,2.77,3.23,1.85,5.17l-2.19,4.64c-18.46,39.11-31.81,67.36-34.73,96.57-1.36,13.58.65,23.88,2.59,33.85,2.33,11.97,4.54,23.28-.48,36.98-8.09,22.07-7.54,34.81-7.53,34.94.11,2.14-1.53,3.97-3.66,4.09-.07,0-.15,0-.22,0Z"/>
      <path class="cls-9" d="m470.75,506.28c-5.5,0-24.05-3.92-34.86-54.36-4.57-21.33-16.36-53.7-36.05-98.95-.86-1.97.04-4.26,2.01-5.11,1.98-.86,4.25.05,5.11,2.01,19.89,45.73,31.84,78.58,36.52,100.42,10.53,49.11,27.44,48.3,27.57,48.2,2.03-.21,4,1.32,4.25,3.4.25,2.08-1.13,3.97-3.19,4.29-.26.04-.72.09-1.36.09Z"/>
    </g>
  </g>
</svg>