<?xml version="1.0" encoding="UTF-8"?>
<svg id="Layer_2" data-name="Layer 2" xmlns="http://www.w3.org/2000/svg" viewBox="0 0 455.43 291.38">
  <defs>
    <style>
      .cls-1 {
        fill: #f7ca94;
      }

      .cls-1, .cls-2, .cls-3, .cls-4, .cls-5 {
        stroke-width: 0px;
      }

      .cls-2 {
        fill: #fc908a;
      }

      .cls-3 {
        fill: #fff;
      }

      .cls-4 {
        fill: #c96f3e;
      }

      .cls-5 {
        fill: #73371a;
      }
    </style>
  </defs>
  <g id="objects">
    <g>
      <path class="cls-3" d="m355.82,181.33c11.83-28.85,19.97-61.7,24.73-87.3.02-.16.05-.32.09-.48,3.42-18.47,5.07-33.1,5.07-39.63,0-13.7-73.34-46.17-188.97-46.17S7.76,40.23,7.76,53.93c0,18.6,13.41,103.16,43.01,154.6,28.66,49.8,59.1,75.08,145.96,75.08s117.3-25.28,145.96-75.08c4.78-8.3,9.13-17.47,13.08-27.08.01-.04.03-.07.05-.11Zm-163.31-83c-119.72,0-175.49-26.49-175.49-44.4,0-5.22,5.97-9.73,19.98-15.1,11-4.22,26.21-8.59,43.98-12.63,39.11-8.9,80.8-14.22,111.53-14.22s72.43,5.31,111.53,14.22c17.77,4.05,32.97,8.41,43.98,12.63,14.01,5.37,19.98,9.89,19.98,15.1,0,17.9-55.77,44.4-175.49,44.4Z"/>
      <path class="cls-4" d="m192.5,19.74c-4.06,0-8.34.11-12.78.3,16.45.17,32.91.61,49.36,1.72-13.24-1.31-25.66-2.01-36.58-2.01Z"/>
      <path class="cls-4" d="m195.42,64.95c20.19,1.55,41.92,21.74,62.11,9.32,20.19-9.32,48.14-9.32,55.9-24.84,4.31-7.18-2.68-12.36-13.41-16.17-.27-.06-.52-.12-.79-.18-23.56-5.22-48-9.13-70.14-11.32-16.45-1.1-32.91-1.54-49.36-1.72-27.47,1.17-61.53,5.85-93.94,13.04-41.1,9.11-59.06,17.68-60.99,21.09.35,2.69,6.57,10.86,30.76,19.24,44.82,8.99,93.84-12.18,139.87-8.45Z"/>
      <path class="cls-1" d="m300.02,33.25c10.74,3.81,17.72,8.99,13.41,16.17-7.76,15.53-35.71,15.53-55.9,24.84-20.19,12.42-41.92-7.76-62.11-9.32-46.03-3.73-95.05,17.45-139.87,8.45,1.92.67,3.95,1.33,6.1,2,22.42,6.92,63.32,15.17,130.84,15.17s108.42-8.25,130.84-15.17c29.29-9.04,36.5-18.33,36.87-21.23-1.91-3.39-19.67-11.87-60.2-20.91Z"/>
      <path class="cls-3" d="m431.86,103.5c-12.46-10.89-28.43-13.13-44.08-6.31-1.15,6.05-2.48,12.47-3.99,19.12,11.22-6.68,22.32-7.19,30.98-1.25,9.44,6.48,13.48,19.41,10.05,32.18-2.17,8.08-13.09,34.45-62.69,39.06-2.83,6.78-5.86,13.33-9.1,19.5,49.87-6.03,83.35-25.1,92.33-52.86,5.77-17.82.47-37.23-13.51-49.45Z"/>
      <path class="cls-5" d="m367.99,53.93c0-5.22-5.97-9.73-19.98-15.1-11-4.22-26.21-8.59-43.98-12.63-39.11-8.9-80.8-14.22-111.53-14.22s-72.43,5.31-111.53,14.22c-17.77,4.05-32.97,8.41-43.98,12.63-14.01,5.37-19.98,9.89-19.98,15.1,0,17.9,55.77,44.4,175.49,44.4s175.49-26.49,175.49-44.4Zm-44.65,21.46c-22.42,6.92-63.32,15.17-130.84,15.17s-108.42-8.25-130.84-15.17c-29.29-9.04-36.5-18.33-36.87-21.23,1.93-3.41,19.89-11.98,60.99-21.09,37.66-8.35,77.55-13.33,106.72-13.33s69.07,4.98,106.72,13.33c41.1,9.11,59.06,17.68,60.99,21.09-.37,2.91-7.58,12.2-36.87,21.23Z"/>
      <path class="cls-5" d="m436.97,97.66c-13.36-11.68-30.72-14.99-47.57-9.4,2.74-15.94,4.06-28.4,4.06-34.33C393.46,29.5,305.71,0,196.73,0S0,29.5,0,53.93c0,19.09,13.73,105.8,44.04,158.47,29.48,51.22,62.54,78.98,152.69,78.98s122.45-27.15,151.68-77.26c76.61-7.62,98.27-40.03,104.34-58.78,6.73-20.78.53-43.42-15.79-57.68Zm-94.28,110.87c-28.66,49.8-59.1,75.08-145.96,75.08s-117.3-25.28-145.96-75.08C21.17,157.1,7.76,72.53,7.76,53.93,7.76,40.23,81.1,7.76,196.73,7.76s188.97,32.46,188.97,46.17c0,6.52-1.65,21.16-5.07,39.63-.04.16-.07.31-.09.48-4.76,25.6-12.9,58.45-24.73,87.3-.01.04-.03.07-.05.11-3.95,9.61-8.3,18.78-13.08,27.08Zm41.57-83.24c9.76-7.12,19.28-8.51,26.12-3.82,6.73,4.62,9.53,14.17,6.95,23.77-4.66,17.34-23.88,29.41-51.93,32.92,6.55-17.03,11.9-35.11,16.1-52.16.94.12,1.93-.1,2.76-.71Zm61.11,27.66c-8.99,27.76-42.47,46.82-92.33,52.86,3.24-6.17,6.27-12.72,9.1-19.5,49.6-4.61,60.52-30.98,62.69-39.06,3.43-12.77-.61-25.7-10.05-32.18-8.66-5.94-19.76-5.43-30.98,1.25,1.51-6.65,2.84-13.07,3.99-19.12,15.65-6.82,31.62-4.58,44.08,6.31,13.97,12.22,19.28,31.63,13.51,49.45Z"/>
      <path class="cls-2" d="m199.84,234.71c48.92-20.46,67.6-62.26,54.26-86.28-13.34-24.02-37.36-20.46-54.26,8.01-16.9-28.46-40.91-32.02-54.26-8.01-13.34,24.02,5.34,65.82,54.26,86.28Z"/>
    </g>
  </g>
</svg>