<?xml version="1.0" encoding="UTF-8"?>
<svg id="Layer_2" data-name="Layer 2" xmlns="http://www.w3.org/2000/svg" viewBox="0 0 290.8 386.68">
  <defs>
    <style>
      .cls-1 {
        fill: #fc908a;
      }

      .cls-1, .cls-2, .cls-3, .cls-4 {
        stroke-width: 0px;
      }

      .cls-2 {
        fill: #fff;
      }

      .cls-3 {
        fill: #c96f3e;
      }

      .cls-4 {
        fill: #73371a;
      }
    </style>
  </defs>
  <g id="objects">
    <g>
      <path class="cls-2" d="m208.94,89.87c13.71-10.18,14.43-31.41,9.02-48-4.41-13.52-14.69-28.99-30.2-33.07,2.1,4.84,2.69,10.34,1.41,15.36-2.09,8.2-8.83,14.19-18.96,16.88-3.91,1.04-8.95,1.91-14.79,2.93-19.15,3.33-45.37,7.88-54.61,22.3-3.42,5.34-4.2,11.68-2.43,19.3,18.32,12.68,63.25,28.88,110.56,4.3Z"/>
      <path class="cls-3" d="m30.99,259.14c6.41,36.01,15.9,85.06,19.44,92.35,4.22,8.67,37.69,28.84,95.55,27.34,57.86-1.5,90.24-23.39,94-32.26,3.6-8.51,10.59-61.68,13.57-86.27-30.66,16.41-68.86,19.68-102.87,20.56-14.78.38-81.16.74-119.69-21.72Z"/>
      <path class="cls-2" d="m250.4,158.15c-2.15,5.54-5.67,10.08-10.45,13.16-.62.4-1.31.6-2,.62-1.31.03-2.6-.6-3.37-1.78-1.16-1.8-.64-4.2,1.16-5.37,7.53-4.86,10.79-15.14,8.72-27.51-2.63-15.67-14.03-34.61-32.96-39.99-50.75,25.8-99.01,7.81-118.21-5.8-10.11-2.19-24.84,3.7-35.35,14.22-6.97,6.97-17.78,21.75-12.7,42.87,4.72,5.43,43.53,46.33,128.31,33.86,2.12-.32,4.09,1.15,4.41,3.27.31,2.12-1.15,4.09-3.27,4.41-84.61,12.46-125.14-25.24-134.16-35.13-15.04,6.39-26.49,20.06-30.89,37.08-4.57,17.67-.66,35.81,10.45,48.55,22.56,25.86,82.15,33.74,130.4,32.48,36.61-.95,78.12-4.67,108.49-25.09,17.22-11.58,26.65-33.1,23.46-53.56-2.77-17.79-14.44-30.98-32.03-36.3Z"/>
      <path class="cls-4" d="m252.36,150.63c.67-4.51.62-9.44-.25-14.63-2.79-16.64-14.34-36.52-33.54-44.45,11.99-13.35,12.35-34.96,6.77-52.09C217.53,15.48,199.62,0,179.73,0c-1.56,0-3.02.97-3.6,2.44-.59,1.48-.22,3.16.93,4.25,3.42,3.25,6.09,9.63,4.58,15.54-1.39,5.43-6.03,9.34-13.43,11.3-3.58.95-8.47,1.8-14.12,2.78-20.57,3.57-48.74,8.47-59.82,25.76-3.91,6.1-5.28,13.24-4.18,21.25-12.04-.46-26.71,5.94-37.65,16.88-13.16,13.17-18.63,30.41-15.28,47.77-17.1,7.39-30.07,22.9-35.04,42.13-5.21,20.15-.68,40.93,12.11,55.59,2.31,2.65,4.93,5.09,7.8,7.36,2.38,13.59,16.05,90.78,21.41,101.81,6.92,14.23,46.47,33.17,102.73,31.71,56.26-1.46,94.77-22.43,100.95-37,4.95-11.69,13.66-84.33,14.64-92.58.06-.52.01-1.02-.12-1.5.55-.36,1.11-.71,1.65-1.07,19.67-13.22,30.44-37.82,26.8-61.2-3.26-20.96-17.01-36.47-37.74-42.62ZM100.81,66.27c9.23-14.42,35.46-18.97,54.61-22.3,5.84-1.01,10.88-1.89,14.79-2.93,10.13-2.69,16.87-8.69,18.96-16.88,1.28-5.02.7-10.53-1.41-15.36,15.51,4.08,25.79,19.55,30.2,33.07,5.41,16.6,4.69,37.82-9.02,48-47.31,24.58-92.24,8.38-110.56-4.3-1.77-7.62-.99-13.96,2.43-19.3Zm139.16,280.3c-3.76,8.87-36.14,30.76-94,32.26-57.85,1.5-91.33-18.68-95.55-27.34-3.55-7.29-13.03-56.34-19.44-92.35,38.53,22.46,104.91,22.1,119.69,21.72,34.01-.88,72.21-4.15,102.87-20.56-2.98,24.6-9.97,77.76-13.57,86.27Zm18.99-98.56c-30.37,20.41-71.88,24.14-108.49,25.09-48.25,1.25-107.84-6.62-130.4-32.48-11.11-12.73-15.01-30.88-10.45-48.55,4.4-17.01,15.85-30.69,30.89-37.08,9.01,9.89,49.54,47.59,134.16,35.13,2.12-.31,3.59-2.29,3.27-4.41-.31-2.12-2.29-3.6-4.41-3.27-84.78,12.47-123.59-28.43-128.31-33.86-5.08-21.12,5.73-35.9,12.7-42.87,10.51-10.52,25.24-16.41,35.35-14.22,19.2,13.61,67.46,31.6,118.21,5.8,18.93,5.39,30.33,24.32,32.96,39.99,2.07,12.37-1.18,22.65-8.72,27.51-1.8,1.16-2.32,3.56-1.16,5.37.76,1.18,2.06,1.81,3.37,1.78.69-.02,1.38-.22,2-.62,4.78-3.08,8.3-7.63,10.45-13.16,17.6,5.31,29.26,18.51,32.03,36.3,3.19,20.46-6.24,41.98-23.46,53.56Z"/>
      <path class="cls-4" d="m225.03,366.89c-.13,0-.26,0-.39-.02-2.13-.22-3.69-2.12-3.48-4.25l9.83-97.82c.22-2.13,2.14-3.66,4.25-3.48,2.13.22,3.69,2.12,3.48,4.25l-9.83,97.82c-.2,2-1.89,3.49-3.86,3.49Z"/>
      <path class="cls-4" d="m67.15,371.55c-1.87,0-3.52-1.36-3.83-3.27l-16.56-104.03c-.34-2.12,1.1-4.11,3.22-4.44,2.08-.35,4.11,1.1,4.44,3.22l16.56,104.03c.34,2.12-1.1,4.11-3.22,4.44-.2.03-.41.05-.62.05Z"/>
      <path class="cls-4" d="m88.89,378.28c-1.97,0-3.65-1.49-3.86-3.49l-10.35-101.96c-.22-2.13,1.34-4.04,3.47-4.25,2.12-.26,4.04,1.33,4.26,3.47l10.35,101.96c.22,2.13-1.34,4.04-3.47,4.25-.14.02-.26.02-.4.02Z"/>
      <path class="cls-4" d="m111.66,381.9c-2.05,0-3.77-1.61-3.87-3.69l-5.17-100.93c-.11-2.14,1.53-3.97,3.68-4.07,2.19-.09,3.96,1.54,4.07,3.68l5.17,100.93c.11,2.14-1.53,3.97-3.68,4.07-.07,0-.14,0-.2,0Z"/>
      <path class="cls-4" d="m204.32,374.14c-.06,0-.11,0-.17,0-2.14-.09-3.8-1.9-3.71-4.04l4.14-97.82c.09-2.14,1.95-3.83,4.04-3.72,2.14.09,3.8,1.9,3.71,4.04l-4.14,97.82c-.09,2.09-1.81,3.72-3.88,3.72Z"/>
      <path class="cls-4" d="m181.03,379.83s-.08,0-.12,0c-2.14-.06-3.82-1.86-3.76-4l3.11-99.89c.07-2.14,1.56-3.94,4.01-3.76,2.14.06,3.82,1.86,3.76,4l-3.11,99.89c-.07,2.1-1.79,3.76-3.88,3.76Z"/>
      <path class="cls-4" d="m157.22,384.49h-.1c-2.14-.06-3.83-1.84-3.78-3.98l2.59-103c.06-2.11,1.78-3.78,3.88-3.78h.1c2.14.06,3.83,1.84,3.78,3.98l-2.59,103c-.06,2.11-1.78,3.78-3.88,3.78Z"/>
      <path class="cls-4" d="m132.37,386.04c-2.13,0-3.86-1.71-3.88-3.85l-1.04-104.55c-.02-2.14,1.7-3.9,3.85-3.92,2.22.13,3.89,1.7,3.92,3.85l1.03,104.55c.02,2.14-1.7,3.9-3.84,3.92h-.04Z"/>
      <g>
        <path class="cls-1" d="m85.34,216.53c24.17-21.64,26.57-49.55,14.04-60.75-12.53-11.2-25.7-4.32-29.75,15.52-15.48-13.06-30.07-10.29-32.96,6.26-2.89,16.56,16.3,36.97,48.67,38.97Z"/>
        <path class="cls-4" d="m85.34,220.41c-.08,0-.16,0-.24,0-19.4-1.2-35.99-8.81-45.5-20.86-5.66-7.17-8.05-15.21-6.76-22.65,1.47-8.41,5.8-14.33,12.19-16.65,6.46-2.36,14.41-.71,22.33,4.5,2.99-9,8.19-15.21,14.73-17.38,6.47-2.14,13.51-.18,19.88,5.52,5.63,5.03,8.73,12.84,8.73,21.97,0,15.36-8.29,31.6-22.77,44.57-.71.64-1.63.99-2.59.99Zm-34.14-53.46c-1.26,0-2.45.19-3.52.59-4.7,1.71-6.5,6.75-7.18,10.69-.92,5.23.93,11.09,5.2,16.5,7.77,9.85,21.99,16.44,38.26,17.8,11.92-11.15,18.99-25.14,18.99-37.68,0-6.9-2.18-12.64-6.14-16.19-2.98-2.66-7.57-5.48-12.26-3.93-5.08,1.68-9.22,8.16-11.1,17.33-.27,1.34-1.23,2.44-2.53,2.89-1.31.46-2.73.18-3.78-.7-5.62-4.74-11.31-7.31-15.93-7.31Z"/>
      </g>
      <g>
        <path class="cls-1" d="m203.11,252.61c32.4-1.53,51.88-21.66,49.23-38.26-2.65-16.6-17.2-19.57-32.87-6.74-3.77-19.9-16.83-26.96-29.52-15.95-12.69,11.02-10.69,38.96,13.16,60.95Z"/>
        <path class="cls-4" d="m203.11,256.49c-.97,0-1.91-.37-2.63-1.03-14.29-13.17-22.36-29.54-22.13-44.89.14-9.13,3.35-16.89,9.06-21.84,6.45-5.6,13.52-7.46,19.95-5.23,6.51,2.26,11.62,8.54,14.48,17.59,7.99-5.1,15.94-6.62,22.39-4.18,6.35,2.42,10.59,8.39,11.94,16.83,1.19,7.46-1.32,15.47-7.09,22.55-9.69,11.92-26.38,19.28-45.79,20.2-.06,0-.12,0-.18,0Zm-1.21-66.14c-3.65,0-7.02,2.17-9.4,4.24-4.01,3.48-6.28,9.2-6.38,16.09-.18,12.54,6.68,26.63,18.44,37.96,16.29-1.13,30.6-7.51,38.51-17.25,4.35-5.35,6.29-11.18,5.45-16.43-.63-3.94-2.36-9.02-7.03-10.79-4.98-1.89-12.3.51-19.55,6.44-1.06.87-2.49,1.12-3.78.64-1.29-.47-2.24-1.58-2.49-2.93-1.74-9.2-5.79-15.74-10.84-17.49-.99-.34-1.96-.49-2.91-.49Z"/>
      </g>
      <g>
        <path class="cls-1" d="m169.05,138.55c30.02-12.3,41.63-37.79,33.58-52.54-8.05-14.75-22.76-12.68-33.23,4.65-10.21-17.49-24.89-19.77-33.16-5.14-8.27,14.63,2.97,40.29,32.81,53.03Z"/>
        <path class="cls-4" d="m169.06,142.43c-.52,0-1.04-.1-1.52-.31-17.88-7.63-30.96-20.35-35.88-34.9-2.93-8.65-2.5-17.03,1.22-23.61,4.2-7.44,10.26-11.56,17.06-11.61h.12c6.85,0,13.72,4.2,19.41,11.73,5.83-7.48,12.89-11.52,19.7-11.44,6.79.15,12.79,4.36,16.88,11.85,3.62,6.63,3.93,15.02.88,23.63-5.14,14.47-18.41,27-36.39,34.37-.47.19-.97.29-1.47.29Zm-19.02-62.66h-.06c-4.99.03-8.39,4.19-10.35,7.66-2.61,4.62-2.83,10.77-.62,17.3,4.02,11.88,15.21,22.85,30.08,29.59,14.97-6.52,26.31-17.32,30.51-29.14,2.31-6.5,2.17-12.64-.37-17.31-1.91-3.51-5.24-7.71-10.24-7.81-.06,0-.12,0-.19,0-5.29,0-11.28,4.7-16.06,12.62-.71,1.18-1.87,1.95-3.35,1.88-1.37,0-2.63-.74-3.32-1.93-4.7-8.05-10.69-12.85-16.02-12.85Z"/>
      </g>
    </g>
  </g>
</svg>