<?xml version="1.0" encoding="UTF-8"?>
<svg id="Layer_2" data-name="Layer 2" xmlns="http://www.w3.org/2000/svg" viewBox="0 0 473.36 634.97">
  <defs>
    <style>
      .cls-1 {
        fill: #c5a6fb;
      }

      .cls-1, .cls-2, .cls-3, .cls-4, .cls-5, .cls-6 {
        stroke-width: 0px;
      }

      .cls-2 {
        fill: #f58f99;
      }

      .cls-3 {
        fill: #f7ca94;
      }

      .cls-4 {
        fill: #fc908a;
      }

      .cls-5 {
        fill: #fff;
      }

      .cls-6 {
        fill: #73371a;
      }
    </style>
  </defs>
  <g id="objects">
    <g>
      <path class="cls-5" d="m134.3,42.05c-4.23,10.08-17.97,46.06-14.51,79.9,16.07-13.61,37.38-25.28,65.36-30.15,5.96-1.04,11.87-1.78,17.7-2.27-24.39-35.37-58.55-45.27-68.54-47.48Z"/>
      <path class="cls-6" d="m134.3,42.05c9.99,2.21,44.15,12.11,68.54,47.48,3-.25,5.98-.43,8.94-.55-30.66-48.02-77.29-54.9-79.28-55.17-1.68-.23-3.32.66-4.04,2.2-.91,1.94-22.16,48.13-15.85,91.23.05.34.16.65.28.96,2.18-2.12,4.48-4.2,6.89-6.25-3.46-33.84,10.29-69.82,14.51-79.9Z"/>
      <path class="cls-4" d="m131.21,114c-2.33-28.73,10.09-55.12,10.09-55.12,0,0,33.38,8.54,43.48,35.71-30.28,8.54-53.57,19.41-53.57,19.41Z"/>
      <path class="cls-5" d="m354.04,463.67c-2.45-7.47-6.01-14.87-9.85-22.83l-1.43-2.97c-10.68-22.26-14.28-43.96-13.39-57.25-8.66,1.54-17.84,2.41-27.58,2.52h-.04c-2.12,0-3.86-1.71-3.88-3.84-.02-2.14,1.69-3.9,3.84-3.92,75.91-.84,115.72-46.59,118.31-135.98.02-.51.13-1.01.34-1.47,20.1-44.98,21.53-105.79,18.03-114.93-9.16-.7-64.25,7.39-90.98,25.53-1.78,1.2-4.19.74-5.39-1.03-1.2-1.77-.74-4.19,1.03-5.39,2.79-1.89,5.9-3.69,9.23-5.4-18.81-12.08-86.96-50.96-165.8-37.25-38.27,6.66-68.33,27.05-89.35,60.62-15.8,25.23-20.28,48.85-20.33,49.09-.22,1.19-.98,2.2-2.05,2.75-1.6.83-39.16,20.8-24,62.5,17.97,49.42,84.43,70.5,112.17,77.26,2.08.51,3.36,2.61,2.85,4.69-.43,1.77-2.02,2.96-3.77,2.96-.3,0-.61-.04-.92-.11-3.76-.92-8.2-2.09-13.12-3.55-16.17,97.04-8.62,157.19,22.46,178.78,1.1.76,1.73,2.04,1.66,3.38-1.96,40.07,3.56,84.54,24.9,89.18.52.11,1.04.17,1.55.17,12.21,0,20.68-31.7,25.31-49.06,1.68-6.28,2.84-10.54,3.92-13.46-3.7-.61-7.41-1.46-11.05-2.63-2.04-.66-3.16-2.84-2.51-4.88.66-2.04,2.84-3.17,4.88-2.51,27.45,8.82,60.4-1.95,60.73-2.06,1.33-.45,2.8-.13,3.84.81.23.21,23.42,21.11,50.99,27.02,14.05,3.01,25.81,3.72,34,2.06,7.67-1.56,11.97-4.98,13.15-10.47.02-.09.04-.18.07-.27,4.78-16.47-2.78-22.08-13.25-29.85-7.58-5.63-16.18-12-20.79-23.53-.43-1.08-.36-2.29.2-3.3,10.95-20.08,11-35.13,6.53-49.77-.29-.5-.47-1.05-.52-1.64Zm-48.23-6.12c-17.6,4.47-32.92,6.33-45.95,6.33-24.17,0-40.46-6.38-48.83-14.33-6.15-5.84-8.74-13.06-7.29-20.32,3.06-15.3,22.18-18.95,44.32-23.18,12.96-2.47,27.65-5.28,40.82-10.7,1.98-.82,4.25.13,5.07,2.11.82,1.98-.13,4.25-2.11,5.07-13.9,5.72-29,8.6-42.32,11.15-19.39,3.7-36.13,6.9-38.17,17.08-1.17,5.84,2.09,10.39,5.02,13.17,10.86,10.32,40.3,18.11,87.52,6.11,2.08-.53,4.19.73,4.72,2.81.53,2.08-.73,4.19-2.81,4.72Z"/>
      <path class="cls-1" d="m389.36,475.52c11.25,2.39,25.24,5.37,42.8.41,16.02-4.53,27.89-23.34,28.24-44.74.34-21.07-10.84-37.26-29.91-43.32-23.6-7.49-37.83,2.4-43.28,14.16-4.97,10.72-3.71,26.22,8.39,33.91,4.45-1.27,8.88-2.9,13.13-5.42,9.22-5.46,9.48-12.43,9.33-14.43-.19-2.75-1.49-4.95-3.39-5.74-2.37-.99-5.72.16-9.19,3.16-1.62,1.4-4.07,1.22-5.48-.4-1.4-1.62-1.22-4.07.4-5.48,7.9-6.82,14.19-5.72,17.24-4.45,4.63,1.92,7.75,6.66,8.16,12.36.59,8.34-4.32,16.44-13.12,21.66-8.18,4.84-16.78,6.81-24.37,8.55-12.59,2.88-21.78,5.02-26.23,17.47,1.2,3.91,2.1,7.88,2.62,11.96,7.18-3.38,15.41-1.63,24.67.34Z"/>
      <path class="cls-2" d="m434.27,483.41c-7.81,2.21-14.92,3.01-21.41,3.01-9.63,0-17.9-1.76-25.11-3.3-11.37-2.42-17.54-3.47-22.58.99-.05,2.2-.22,4.44-.53,6.74,13.06-.91,21.49,5.91,29.65,12.56,9.31,7.59,18.94,15.42,37.13,14.32,23.33-1.43,30.77-21,32.49-26.96,3.27-11.32,1.6-22.58-3.99-28.88-6.09,10.62-15.12,18.54-25.66,21.52Z"/>
      <path class="cls-6" d="m145.05,349.55c2.11.36,3.54,2.36,3.18,4.47-.09.56-.18,1.09-.27,1.65,4.92,1.46,9.36,2.63,13.12,3.55.31.08.62.11.92.11,1.75,0,3.34-1.19,3.77-2.96.51-2.08-.77-4.18-2.85-4.69-27.74-6.77-94.2-27.84-112.17-77.26-15.16-41.7,22.4-61.68,24-62.5,1.07-.55,1.83-1.57,2.05-2.75.04-.24,4.53-23.86,20.33-49.09,21.02-33.57,51.09-53.97,89.35-60.62,78.84-13.71,146.98,25.17,165.8,37.25,2.62-1.34,5.39-2.62,8.25-3.84-10.26-7.03-72.08-46.97-148.74-43.88.38.59.76,1.16,1.14,1.76,1.13,1.82.56,4.22-1.26,5.34-1.83,1.13-4.22.56-5.34-1.26-1.13-1.83-2.29-3.58-3.47-5.29-5.83.49-11.73,1.23-17.7,2.27-27.97,4.87-49.29,16.54-65.36,30.15.14,1.39.3,2.79.51,4.17.31,2.12-1.16,4.09-3.28,4.4-.19.03-.38.04-.57.04-1.56,0-2.95-.95-3.55-2.36-9.56,9.28-16.94,19.07-22.51,28-14.14,22.67-19.5,43.61-20.86,49.77-8.05,4.88-41.64,28.3-26.08,71.1,15.54,42.75,63.78,65.41,97.03,76.27.03-.2.06-.4.1-.61.36-2.11,2.36-3.53,4.47-3.18Z"/>
      <path class="cls-6" d="m362.84,139.33c-1.27,1.73-3.7,2.09-5.43.82-.11-.08-1.9-1.38-5.14-3.46-3.33,1.71-6.43,3.51-9.23,5.4-1.77,1.2-2.24,3.62-1.03,5.39,1.2,1.77,3.62,2.23,5.39,1.03,26.73-18.14,81.82-26.22,90.98-25.53,3.5,9.14,2.07,69.95-18.03,114.93-.21.46-.32.96-.34,1.47-2.59,89.38-42.4,135.13-118.31,135.98-2.14.02-3.86,1.78-3.84,3.92.02,2.13,1.76,3.84,3.88,3.84h.04c9.74-.11,18.92-.98,27.58-2.52.13-1.93.35-3.68.66-5.23.42-2.1,2.46-3.46,4.57-3.05,2.1.42,3.47,2.47,3.05,4.57-.12.62-.23,1.32-.32,2.06,26.7-6.37,47.77-20.04,62.81-40.93,17.03-23.66,26.33-56.51,27.62-97.66,20.11-45.6,22.74-109.1,17.51-121-.84-1.9-2.04-3.13-3.58-3.64-7.01-2.34-50.16,3.86-81.17,17.1.92.63,1.44,1.01,1.5,1.05,1.73,1.27,2.09,3.7.82,5.43Z"/>
      <path class="cls-6" d="m357.42,140.16c1.72,1.27,4.16.9,5.43-.82,1.27-1.73.9-4.16-.82-5.43-.06-.04-.57-.42-1.5-1.05-2.86,1.22-5.63,2.5-8.25,3.84,3.24,2.08,5.03,3.37,5.14,3.46Z"/>
      <path class="cls-6" d="m116.45,130.56c.19,0,.38-.01.57-.04,2.12-.31,3.59-2.28,3.28-4.4-.2-1.38-.36-2.78-.51-4.17-2.41,2.05-4.71,4.13-6.89,6.25.6,1.41,1.99,2.36,3.55,2.36Z"/>
      <path class="cls-6" d="m206.32,94.82c1.13,1.82,3.52,2.39,5.34,1.26,1.82-1.13,2.39-3.52,1.26-5.34-.37-.6-.76-1.17-1.14-1.76-2.96.12-5.94.3-8.94.55,1.18,1.71,2.34,3.46,3.47,5.29Z"/>
      <path class="cls-6" d="m223.85,578.12c-4.63,17.35-13.1,49.06-25.31,49.06-.51,0-1.02-.06-1.55-.17-21.34-4.64-26.85-49.11-24.9-89.18.06-1.34-.56-2.61-1.66-3.38-31.08-21.59-38.63-81.74-22.46-178.78-2.39-.71-4.89-1.48-7.49-2.33-16.88,100.52-9.11,161.5,23.76,186.22-.95,23.14-.69,88.13,31.1,95.04,1.17.25,2.3.38,3.39.38,17.97,0,26.72-32.75,32.62-54.85,1.59-5.95,3.38-12.66,4.41-14.51-2.65-.2-5.32-.51-7.99-.95-1.07,2.92-2.24,7.17-3.92,13.46Zm11.03-12.04s0,0,0,0c0,0,0,0,0,0Z"/>
      <path class="cls-6" d="m148.23,354.03c.36-2.11-1.07-4.12-3.18-4.47-2.12-.35-4.12,1.07-4.47,3.18-.03.21-.06.4-.1.61,2.59.85,5.1,1.62,7.49,2.33.09-.55.17-1.09.27-1.65Z"/>
      <path class="cls-6" d="m357.2,495.92c-.4-2.11.99-4.14,3.09-4.54,1.51-.29,2.95-.44,4.35-.54.31-2.3.48-4.54.53-6.74,0,0-.02.01-.03.02-1.6,1.42-4.06,1.28-5.48-.32-1.42-1.6-1.28-4.06.32-5.48,1.52-1.35,3.09-2.37,4.71-3.14-.52-4.09-1.43-8.06-2.62-11.96-.15.43-.32.84-.46,1.3-.52,1.66-2.05,2.72-3.7,2.72-.38,0-.77-.06-1.16-.18-.96-.3-1.72-.95-2.19-1.76,4.47,14.63,4.42,29.68-6.53,49.77-.55,1.02-.63,2.23-.2,3.3,4.61,11.52,13.21,17.9,20.79,23.53,10.47,7.76,18.03,13.37,13.25,29.85-.03.09-.05.18-.07.27-1.18,5.49-5.48,8.91-13.15,10.47-8.19,1.66-19.95.95-34-2.06-27.57-5.91-50.76-26.81-50.99-27.02-1.04-.95-2.51-1.26-3.84-.81-.33.11-33.27,10.88-60.73,2.06-2.04-.66-4.23.47-4.88,2.51-.66,2.04.47,4.23,2.51,4.88,3.64,1.17,7.35,2.02,11.05,2.63,1.3-3.53,2.46-5.08,4.22-5.79,1.99-.8,4.25.17,5.05,2.16.66,1.66.1,3.5-1.25,4.53,0,.01-.02.03-.02.05,19.84,1.49,38.19-3.19,44.36-5,6.05,5.14,27.35,21.92,52.9,27.4,9.7,2.08,18.28,3.12,25.65,3.12,4.25,0,8.1-.35,11.52-1.04,13.44-2.73,17.85-10.34,19.17-16.31,6.21-21.56-5.14-29.98-16.11-38.12-6.67-4.95-13.56-10.06-17.51-18.55,3.42-6.53,5.78-12.59,7.29-18.31-.43.06-.86.12-1.3.2-2.1.4-4.14-.99-4.54-3.09Z"/>
      <path class="cls-6" d="m342.76,437.87l1.43,2.97c3.84,7.96,7.4,15.36,9.85,22.83-.04-.48,0-.98.16-1.46,1.11-3.55,2.55-6.5,4.22-9.01-2.16-5.19-4.66-10.38-7.24-15.73l-1.42-2.96c-11.41-23.77-13.67-45.29-12.43-55.54-2.6.62-5.25,1.17-7.96,1.65-.89,13.29,2.71,34.99,13.39,57.25Z"/>
      <path class="cls-6" d="m334.6,372.35c-2.11-.42-4.15.94-4.57,3.05-.31,1.55-.53,3.3-.66,5.23,2.7-.48,5.36-1.03,7.96-1.65.09-.74.19-1.44.32-2.06.42-2.1-.94-4.15-3.05-4.57Z"/>
      <path class="cls-6" d="m237.03,561.04c-.8-1.99-3.05-2.96-5.05-2.16-1.76.7-2.92,2.26-4.22,5.79,2.67.44,5.35.75,7.99.95,0-.01.02-.03.02-.05,1.36-1.03,1.91-2.87,1.25-4.53Z"/>
      <path class="cls-6" d="m388.31,445.75c7.59-1.74,16.2-3.7,24.37-8.55,8.8-5.22,13.71-13.32,13.12-21.66-.4-5.7-3.53-10.44-8.16-12.36-3.05-1.27-9.34-2.37-17.24,4.45-1.62,1.4-1.8,3.85-.4,5.48,1.4,1.62,3.85,1.8,5.48.4,3.47-2.99,6.82-4.15,9.19-3.16,1.9.79,3.2,2.99,3.39,5.74.14,2-.11,8.97-9.33,14.43-4.25,2.52-8.68,4.15-13.13,5.42.03.02.06.05.1.07,1.82,1.14,2.36,3.54,1.22,5.35-1.14,1.81-3.54,2.36-5.35,1.22-1.98-1.24-3.75-2.71-5.36-4.31-10.43,2.39-21.08,4.95-27.77,14.93,1.38,3.32,2.62,6.65,3.65,10.02,4.45-12.46,13.65-14.59,26.23-17.47Z"/>
      <path class="cls-6" d="m354.56,465.31c-.17-.55-.34-1.09-.52-1.64.05.58.23,1.14.52,1.64Z"/>
      <path class="cls-6" d="m354.04,463.67c.18.55.35,1.09.52,1.64.47.81,1.22,1.46,2.19,1.76.38.12.78.18,1.16.18,1.65,0,3.18-1.06,3.7-2.72.14-.46.31-.87.46-1.3-1.03-3.37-2.27-6.7-3.65-10.02-1.68,2.5-3.11,5.45-4.22,9.01-.15.49-.2.98-.16,1.46Z"/>
      <path class="cls-6" d="m395.59,435.94c-12.1-7.69-13.36-23.19-8.39-33.91,5.45-11.76,19.68-21.65,43.28-14.16,19.06,6.05,30.25,22.25,29.91,43.32-.34,21.4-12.22,40.21-28.24,44.74-17.55,4.96-31.55,1.98-42.8-.41-9.26-1.97-17.49-3.72-24.67-.34.37,2.9.54,5.87.47,8.92,5.04-4.46,11.21-3.4,22.58-.99,7.22,1.54,15.49,3.3,25.11,3.3,6.49,0,13.6-.8,21.41-3.01,10.54-2.98,19.57-10.9,25.66-21.52-.79-.89-1.65-1.68-2.59-2.35-1.74-1.25-2.13-3.68-.88-5.42,1.25-1.74,3.68-2.13,5.42-.88.56.4,1.09.84,1.62,1.3,2.86-7.09,4.53-14.99,4.66-23.21.4-24.69-12.81-43.69-35.32-50.84-28.43-9.02-46.15,4.21-52.68,18.29-6.44,13.89-3.72,29.73,6.03,39.5.13-.03.25-.06.38-.09,2.98-.68,6-1.38,9.01-2.24Z"/>
      <path class="cls-6" d="m364.7,475.19c-1.62.76-3.2,1.79-4.71,3.14-1.6,1.42-1.75,3.88-.32,5.48,1.42,1.6,3.88,1.75,5.48.32,0,0,.02-.01.03-.02.07-3.05-.1-6.01-.47-8.92Z"/>
      <path class="cls-6" d="m391.55,442.59c1.82,1.14,4.21.59,5.35-1.22,1.14-1.82.59-4.21-1.22-5.35-.03-.02-.06-.05-.1-.07-3.01.86-6.03,1.56-9.01,2.24-.13.03-.25.06-.38.09,1.61,1.61,3.38,3.07,5.36,4.31Z"/>
      <path class="cls-6" d="m463.5,454.53c-1.04,2.57-2.23,5.03-3.57,7.36,5.58,6.3,7.26,17.56,3.99,28.88-1.72,5.96-9.16,25.53-32.49,26.96-18.2,1.1-27.82-6.73-37.13-14.32-8.16-6.65-16.6-13.47-29.65-12.56-.35,2.59-.88,5.24-1.6,7.97,11.27-1.65,17.97,3.78,26.35,10.61,9.34,7.61,19.85,16.17,38.56,16.17,1.28,0,2.6-.04,3.96-.12,22.57-1.38,35.19-17.72,39.48-32.55,4.45-15.38,1.26-30.47-7.88-38.39Z"/>
      <path class="cls-6" d="m360.29,491.38c-2.11.4-3.49,2.43-3.09,4.54.4,2.11,2.43,3.49,4.54,3.09.45-.08.87-.14,1.3-.2.72-2.73,1.25-5.39,1.6-7.97-1.4.1-2.83.26-4.35.54Z"/>
      <path class="cls-6" d="m456.46,454.11c-1.25,1.74-.86,4.17.88,5.42.94.68,1.8,1.47,2.59,2.35,1.34-2.33,2.53-4.79,3.57-7.36-.52-.45-1.06-.89-1.62-1.3-1.74-1.25-4.17-.86-5.42.88Z"/>
      <g>
        <path class="cls-3" d="m297.06,4.17c-18.1-7.02-70.67,94.17-76,107.92-5.33,13.75,9.35,25.28,23.1,30.61,13.75,5.33,34.98,8.57,41.04-4.9,6.06-13.47,22.72-129.42,11.86-133.63Z"/>
        <path class="cls-6" d="m266.5,151.24c-7.77,0-16.29-2.02-23.75-4.92-4.79-1.86-13.8-6.05-20.19-13.18-6.32-7.04-8.09-14.81-5.12-22.46.47-1.23,56.33-119.69,81.03-110.14h0c1.73.67,3.07,2.14,3.99,4.38,7.28,17.77-7.76,121.22-13.71,134.47-3.89,8.66-12.48,11.85-22.23,11.85ZM294.62,7.6c-13.7,0-61.19,83.31-69.95,105.89-1.86,4.81-.63,9.68,3.67,14.47,3.88,4.33,10.16,8.38,17.22,11.12,10.25,3.98,31,8.5,36.09-2.87,7.23-16.07,19.65-118.18,13.56-128.55-.19-.04-.39-.06-.58-.06Z"/>
        <path class="cls-6" d="m295.73,60.83c-.6,0-1.21-.14-1.79-.44-.83-.43-20.37-10.85-25.54-34.21-.46-2.1.86-4.17,2.95-4.63,2.06-.46,4.17.85,4.63,2.95,4.4,19.87,21.38,28.92,21.55,29.01,1.9.99,2.64,3.34,1.65,5.24-.7,1.32-2.05,2.09-3.45,2.09Z"/>
        <path class="cls-6" d="m290.38,100.39c-.4,0-.81-.06-1.21-.19-1.19-.39-29.27-9.89-40.63-41.33-.73-2.02.32-4.24,2.34-4.97,2.03-.73,4.25.32,4.97,2.33,10.03,27.77,35.49,36.51,35.74,36.59,2.03.67,3.14,2.87,2.47,4.9-.54,1.63-2.06,2.67-3.68,2.67Z"/>
        <path class="cls-6" d="m283.82,134.49c-.31,0-.63-.04-.94-.12-1.56-.39-38.4-9.95-53.02-41.69-.9-1.95-.05-4.25,1.9-5.15,1.95-.9,4.25-.05,5.15,1.9,13.05,28.31,47.52,37.32,47.87,37.41,2.08.53,3.33,2.63,2.82,4.71-.44,1.76-2.03,2.93-3.76,2.93Z"/>
      </g>
      <path class="cls-2" d="m276.64,296.88c-2.95,11.42,3.92,23.06,15.34,26.01,11.42,2.95,23.06-3.92,26.01-15.34,2.95-11.42-3.92-23.06-15.34-26.01-11.42-2.95-23.06,3.92-26.01,15.34Z"/>
      <circle class="cls-2" cx="101.86" cy="251.78" r="21.35" transform="translate(-56.94 31.43) rotate(-13.75)"/>
      <path class="cls-6" d="m151.66,240.9c-2.46,9.55-12.2,15.29-21.75,12.83-9.55-2.46-15.29-12.2-12.83-21.75,2.46-9.55,12.2-15.29,21.75-12.83,9.55,2.46,15.29,12.2,12.83,21.75Z"/>
      <path class="cls-6" d="m219.69,277.1c-1.51,0-3.05-.19-4.6-.59-5.64-1.44-10.28-5.33-12.74-10.23-4.52,3.1-10.45,4.27-16.1,2.79-8.37-2.18-13.62-9.41-13.7-18.85-.02-2.14,1.71-3.89,3.85-3.91,2.4-.13,3.9,1.71,3.91,3.85.05,5.95,2.93,10.11,7.89,11.4,4.31,1.14,10.07-.19,12.76-4.9.87-1.52,2.62-2.28,4.34-1.83,1.69.44,2.88,1.96,2.91,3.71.07,5.41,4.47,9.35,8.79,10.45,4.98,1.28,9.51-.98,12.43-6.16,1.05-1.87,3.4-2.54,5.29-1.48,1.87,1.05,2.53,3.42,1.48,5.29-3.78,6.71-9.85,10.46-16.51,10.46Z"/>
      <path class="cls-6" d="m259,268.6c-2.46,9.55,3.28,19.29,12.83,21.75,9.55,2.46,19.29-3.28,21.75-12.83,2.46-9.55-3.28-19.29-12.83-21.75-9.55-2.46-19.29,3.28-21.75,12.83Z"/>
      <path class="cls-4" d="m109.7,518.22c101.49-20.81,156.87-96.82,139.3-149.05-14.54-43.22-56.46-60.3-102.27-24.59-34.16-49.69-74.53-52.79-103.78-19.15-36.15,41.58-17.54,132.54,66.75,192.78Z"/>
      <path class="cls-6" d="m109.7,522.1c-.8,0-1.6-.25-2.26-.72-47.73-34.11-79.52-82.5-85.06-129.44-3.26-27.69,3-52.21,17.64-69.04,14.23-16.37,31.14-24.46,48.61-23.49,20.71,1.17,41.04,14.87,58.97,39.67,21.65-15.77,44.12-21.23,63.63-15.36,19.07,5.73,33.79,21.44,41.45,44.22,6.93,20.58,3.25,44.92-10.33,68.53-23.9,41.54-73.19,73.53-131.87,85.55-.26.05-.52.08-.78.08Zm-23.91-215.02c-14.23,0-27.98,7.19-39.91,20.9-13.17,15.16-18.78,37.55-15.77,63.04,5.23,44.36,35.27,90.25,80.48,123.04,55.8-11.84,102.46-42.22,125.04-81.48,12.46-21.65,15.9-43.74,9.7-62.18-6.84-20.33-19.74-34.28-36.33-39.27-18.04-5.41-39.28.45-59.88,16.5-.84.66-1.92.94-2.98.77-1.06-.16-2-.75-2.61-1.64-17.07-24.84-36.21-38.55-55.34-39.63-.8-.05-1.61-.07-2.41-.07Z"/>
      <path class="cls-4" d="m413.03,218.81c14.75-34.16,13.2-82.3,13.2-82.3,0,0-38.82-.78-62.11,15.53,23.29,3.11,38.04,14.75,38.04,14.75,0,0-20.19-4.66-24.84-2.33,16.3,5.43,26.4,17.08,26.4,17.08l-13.97.78s16.3,17.08,23.29,36.49Z"/>
      <path class="cls-6" d="m135.86,179.22c-2.09,0-3.81-1.66-3.88-3.76-.07-2.14,1.62-3.93,3.76-4l24.85-.78c2.45-.14,3.94,1.62,4,3.76.07,2.14-1.62,3.93-3.76,4l-24.85.78s-.09,0-.12,0Z"/>
      <path class="cls-6" d="m309.76,227.35c-.75,0-1.5-.22-2.18-.67l-21.73-14.75c-1.77-1.2-2.24-3.62-1.03-5.39,1.2-1.77,3.6-2.25,5.39-1.03l21.73,14.75c1.77,1.2,2.24,3.62,1.03,5.39-.75,1.11-1.97,1.7-3.22,1.7Z"/>
      <path class="cls-6" d="m419.24,339.92c-.91,0-1.81-.31-2.54-.95-.28-.25-29.04-24.79-66.78-27-2.14-.13-3.77-1.96-3.65-4.1.13-2.14,2-3.71,4.1-3.65,40.45,2.38,70.17,27.81,71.41,28.89,1.62,1.41,1.79,3.85.39,5.47-.77.88-1.85,1.34-2.93,1.34Z"/>
      <path class="cls-6" d="m389.75,376.41c-1.34,0-2.65-.7-3.37-1.94-.17-.3-17.61-30.06-46.99-41.81-1.99-.8-2.96-3.06-2.16-5.05.8-1.99,3.05-2.95,5.05-2.16,31.94,12.78,50.08,43.83,50.84,45.15,1.07,1.86.43,4.23-1.43,5.3-.61.35-1.28.52-1.93.52Z"/>
      <path class="cls-6" d="m83.85,218.03c-1.12,0-2.24-.49-3.01-1.43-22.89-28.06-60.95-35.05-61.33-35.12-2.11-.37-3.52-2.39-3.15-4.5.38-2.11,2.42-3.51,4.49-3.15,1.68.3,41.3,7.59,66,37.86,1.36,1.66,1.11,4.1-.55,5.46-.72.59-1.59.87-2.45.87Z"/>
      <path class="cls-6" d="m72.2,237.44c-.89,0-1.77-.3-2.5-.91-23.22-19.59-64.79-13.18-65.2-13.11-2.14.36-4.11-1.1-4.45-3.22-.34-2.12,1.1-4.11,3.22-4.45,1.86-.29,45.53-7.02,71.44,14.84,1.64,1.38,1.85,3.83.46,5.47-.76.91-1.86,1.38-2.96,1.38Z"/>
      <g>
        <path class="cls-5" d="m261.64,408.24c-29.5,4.66-54.35,9.32-53.57,24.84.78,15.53,20.96,25.62,53.57,26.4,19.41-27.95,0-51.24,0-51.24Z"/>
        <path class="cls-6" d="m303.9,450.03c-47.23,11.99-76.66,4.2-87.52-6.11-2.93-2.79-6.19-7.34-5.02-13.17,2.04-10.18,18.78-13.38,38.17-17.08,13.32-2.54,28.42-5.43,42.32-11.15,1.98-.82,2.93-3.08,2.11-5.07-.82-1.98-3.09-2.93-5.07-2.11-13.17,5.42-27.86,8.23-40.82,10.7-22.14,4.23-41.26,7.88-44.32,23.18-1.45,7.26,1.14,14.48,7.29,20.32,8.37,7.95,24.66,14.33,48.83,14.33,13.03,0,28.35-1.86,45.95-6.33,2.08-.53,3.33-2.64,2.81-4.72-.53-2.08-2.64-3.34-4.72-2.81Z"/>
      </g>
      <path class="cls-6" d="m73.24,407.98c-.35,0-.71-.05-1.07-.15-2.06-.59-3.25-2.74-2.66-4.8l10.61-37.01c.59-2.06,2.73-3.25,4.81-2.66,2.06.59,3.25,2.74,2.66,4.8l-10.61,37.01c-.49,1.7-2.05,2.81-3.73,2.81Z"/>
      <path class="cls-6" d="m174.21,438.13c-1.73,0-3.51-.27-5.31-.81-5.22-1.57-9.02-4.88-10.99-9.59-5.64-13.5,5.1-34.49,6.35-36.83,1-1.9,3.37-2.61,5.25-1.61,1.89,1,2.61,3.35,1.61,5.24-2.9,5.49-9.64,21.62-6.04,30.21,1.09,2.59,3.01,4.23,6.06,5.14,2.97.89,5.44.58,7.76-.96,7.97-5.32,11.45-23.18,12.11-29.61.22-2.14,2.14-3.73,4.26-3.46,2.13.22,3.68,2.13,3.46,4.26-.28,2.74-3.12,27.01-15.53,35.28-2.74,1.83-5.79,2.75-8.99,2.75Z"/>
      <path class="cls-6" d="m114.87,422.64c22.87-3.51,35.19-19.25,32.07-30.82-3.12-11.58-13.67-12.6-23.82-2.33-4.16-13.84-13.95-17.87-22.13-9.11-8.18,8.77-4.68,28.44,13.89,42.26Z"/>
    </g>
  </g>
</svg>