<?xml version="1.0" encoding="UTF-8"?>
<svg id="Layer_2" data-name="Layer 2" xmlns="http://www.w3.org/2000/svg" viewBox="0 0 103.51 118.33">
  <defs>
    <style>
      .cls-1 {
        fill: #fff;
        stroke-width: 0px;
      }
    </style>
  </defs>
  <g id="objects">
    <path class="cls-1" d="m50.77,118.33c-.1,0-.19,0-.29,0-2.74-.13-5.08-2-5.8-4.64C33.75,73.63,4.15,60.65,3.85,60.53c-2.71-1.15-4.27-4.02-3.75-6.92.52-2.9,2.98-5.05,5.92-5.19,1.48-.08,36.65-2.44,41.34-41.94.07-.75.14-1.19.15-1.23.57-3.36,3.73-5.66,7.08-5.19,3.38.47,5.77,3.53,5.41,6.92-.06.6-.13,1.2-.21,1.78-.54,6.71-.33,34.54,38.85,43.76,3.04.72,5.11,3.56,4.84,6.69-.27,3.12-2.79,5.57-5.92,5.76-10.67.63-24.97,6.8-40.89,49.26-.93,2.47-3.29,4.09-5.91,4.09Zm-28.34-60.96c9,6.96,20.59,18.71,28.78,37.09,8.08-17.58,16.8-29.3,26.76-35.83-14.07-6.84-21.81-16.41-26.01-25.56-7.91,13.71-19.87,20.72-29.52,24.3Z"/>
  </g>
</svg>