<?xml version="1.0" encoding="UTF-8"?>
<svg id="Layer_2" data-name="Layer 2" xmlns="http://www.w3.org/2000/svg" viewBox="0 0 322.01 520.9">
  <defs>
    <style>
      .cls-1 {
        fill: #f58f99;
      }

      .cls-1, .cls-2, .cls-3, .cls-4, .cls-5, .cls-6, .cls-7 {
        stroke-width: 0px;
      }

      .cls-2 {
        fill: #f7ca94;
      }

      .cls-3 {
        fill: #88cf8d;
      }

      .cls-4 {
        fill: #fff;
      }

      .cls-5 {
        fill: #f06a76;
      }

      .cls-6 {
        fill: #ed5347;
      }

      .cls-7 {
        fill: #73371a;
      }
    </style>
  </defs>
  <g id="objects">
    <g>
      <path class="cls-1" d="m188.77,244.23c-10.09-.69-18.45-5.95-24.08-15-6.5,8.58-16.8,13.77-27.46,13.5-11.51-.34-21.29-6.91-27.57-18.28-7.13,8.04-17.94,13.1-28.18,12.78-11.06-.34-20.73-6.64-27.63-17.86-5.97,4.71-18.2,12.75-31.2,11.57-5.48-.49-10.46-2.52-14.88-6.05v200.83c6.86-10.11,18.92-25.09,37.94-40.17,29.54-23.42,82.13-51.3,165.56-52.37v-94.91c-5.32,3.51-12.57,6.05-20.18,6.05-.77,0-1.54-.03-2.31-.08Z"/>
      <polygon class="cls-4" points="245.59 28.44 59.11 8.2 58.71 34.51 245.59 56.91 245.59 28.44"/>
      <polygon class="cls-4" points="302.83 102.74 251.74 67.56 243.92 95.39 302.83 102.74"/>
      <polygon class="cls-4" points="221.9 173.69 307.9 111.2 241.79 102.95 221.9 173.69"/>
      <path class="cls-5" d="m7.76,440.74v46.45l203.5,25.44v-171.68c-80.93,1.05-131.82,27.87-160.37,50.4-28.43,22.43-40.92,45.1-43.12,49.4Z"/>
      <polygon class="cls-4" points="219.02 509.4 314.25 440.2 314.25 116.18 219.02 185.38 219.02 509.4"/>
      <path class="cls-4" d="m7.76,213.76c4.44,5.79,9.53,8.9,15.54,9.44,14.32,1.31,28.78-12.52,28.93-12.66.89-.86,2.14-1.25,3.35-1.04,1.22.21,2.27.98,2.82,2.09,5.7,11.4,13.76,17.59,23.31,17.88,10.91.35,20.98-7.07,25.31-14.57.75-1.29,2.17-2.06,3.66-1.92,1.49.11,2.78,1.07,3.32,2.46,4.78,12.29,13.1,19.22,23.44,19.53,9.96.27,19.64-5.87,23.98-15.34.64-1.4,2.09-2.29,3.6-2.26,1.55.03,2.92.97,3.51,2.4,5.35,13,14.24,16.26,20.75,16.71,9.57.63,18.79-4.28,21.95-8.48v-41.17L7.76,161.39v52.37Z"/>
      <polygon class="cls-1" points="57.23 42.15 10.64 153.93 212.31 179.14 244.51 64.6 57.23 42.15"/>
      <path class="cls-7" d="m321.88,107.58s-.01-.08-.03-.11c-.09-.3-.22-.58-.37-.84-.03-.05-.06-.11-.1-.16-.17-.26-.36-.5-.59-.72-.03-.03-.06-.05-.09-.07-.12-.11-.24-.21-.37-.31l-66.98-46.12V24.96c0-1.98-1.49-3.65-3.46-3.86L55.71.02c-1.08-.11-2.17.23-2.99.95-.82.72-1.29,1.76-1.31,2.85l-.5,33.32L2.45,153.41c-.41.16-.8.38-1.14.67-.83.74-1.31,1.8-1.31,2.91v333.62c0,1.96,1.46,3.61,3.4,3.85l211.26,26.41c.16.02.32.03.48.03h0c.22,0,.43-.02.65-.06.07-.01.14-.03.21-.05.15-.03.29-.07.43-.12.08-.03.15-.06.23-.09.13-.05.25-.11.37-.18.08-.04.15-.09.22-.14.06-.04.11-.06.17-.1l102.99-74.84c1.01-.73,1.6-1.9,1.6-3.14V108.56s-.01-.05-.01-.08c0-.31-.05-.61-.13-.9Zm-70.14-40.02l51.09,35.18-58.91-7.35,7.82-27.83Zm56.16,43.63l-86,62.49,19.89-70.74,66.11,8.25ZM59.11,8.2l186.48,20.24v28.48L58.71,34.51l.4-26.31Zm152.15,504.42L7.76,487.18v-46.45c2.21-4.3,14.7-26.97,43.12-49.4,28.55-22.53,79.44-49.34,160.37-50.4v171.68Zm0-179.45c-83.43,1.07-136.02,28.94-165.56,52.37-19.02,15.08-31.07,30.06-37.94,40.17v-200.83c4.42,3.54,9.4,5.57,14.88,6.05,13,1.18,25.23-6.85,31.2-11.57,6.9,11.23,16.57,17.52,27.63,17.86,10.23.32,21.04-4.74,28.18-12.78,6.28,11.37,16.06,17.94,27.57,18.28,10.66.27,20.96-4.92,27.46-13.5,5.64,9.05,13.99,14.31,24.08,15,.77.05,1.54.08,2.31.08,7.61,0,14.86-2.54,20.18-6.05v94.91Zm0-105.17c-3.17,4.2-12.39,9.12-21.95,8.48-6.51-.45-15.4-3.71-20.75-16.71-.59-1.43-1.97-2.37-3.51-2.4-1.52-.03-2.96.86-3.6,2.26-4.34,9.47-14.02,15.61-23.98,15.34-10.34-.3-18.67-7.24-23.44-19.53-.54-1.39-1.83-2.35-3.32-2.46-1.49-.14-2.91.63-3.66,1.92-4.34,7.49-14.4,14.92-25.31,14.57-9.55-.29-17.61-6.47-23.31-17.88-.55-1.11-1.6-1.88-2.82-2.09-1.22-.21-2.47.18-3.35,1.04-.14.14-14.61,13.97-28.93,12.66-6.01-.54-11.1-3.65-15.54-9.44v-52.37l203.5,25.44v41.17Zm1.05-48.87L10.64,153.93,57.23,42.15l187.28,22.45-32.2,114.53Zm101.94,261.06l-95.23,69.2V185.38l95.23-69.2v324.02Z"/>
      <polygon class="cls-2" points="289.24 349.32 233.34 387.62 233.34 189.91 289.24 151.6 289.24 349.32"/>
      <g>
        <path class="cls-6" d="m68.81,292.57c11.46-6.95,24.51-9.46,37.05-7.33,3.54.6,7.03,1.57,10.43,2.91,16.9,6.66,24.96,34.59,25.46,59.3.51,25.87-6.82,47.33-17.85,52.19-11.5,5.07-23.39,3.23-35.34-5.49-25.33-18.47-41.67-60.44-40.2-74.4,1.03-9.74,8.86-20.16,20.45-27.19Z"/>
        <path class="cls-3" d="m43,278.98c5.36-1.11,12.64,3.37,14.99,5.19,1.3,1.01,3.1,1.09,4.48.19,1.38-.89,2.06-2.55,1.68-4.15-1.03-4.37-2.9-16.91.75-22.43.87-1.32,1.98-2.05,3.5-2.32,10.07-1.74,15.93,16.34,15.99,16.52.44,1.43,1.64,2.43,3.15,2.7,1.48.22,2.96-.44,3.79-1.69.1-.16,11-15.94,19.81-11.06,2.63,1.46,3.21,3.05,3.42,4.12.79,4.08-2.78,9.57-4.22,11.35-.19.23-.33.47-.46.73-15.19-3.32-31.18-.64-45.1,7.8-6.18,3.75-11.45,8.41-15.5,13.51-3.75-1.55-10.51-5.16-12.3-9.82-.77-2.01-.53-4.02.75-6.34,1.35-2.44,3.07-3.85,5.27-4.3Z"/>
        <path class="cls-7" d="m30.94,279.52c-2.38,4.3-2.79,8.77-1.19,12.91,2.74,7.08,10.58,11.51,15.16,13.58-2.32,4.23-3.81,8.62-4.27,12.94-1.88,17.86,17.19,62.41,43.35,81.48,6.78,4.95,13.74,8.02,20.68,9.2,7.54,1.28,15.06.33,22.36-2.89,17.31-7.63,22.93-36.79,22.48-59.45-.5-25.29-8.76-57.85-30.37-66.37-.46-.18-.93-.33-1.39-.5,2.12-3.12,5.65-9.48,4.44-15.81-.53-2.77-2.21-6.66-7.27-9.47-10.34-5.75-20.25,2.19-25.71,8.13-3.5-7.16-10.63-17.45-22.13-15.47-3.62.62-6.61,2.59-8.66,5.69-3.64,5.51-3.77,13.8-3.17,20.06-3.94-1.78-8.93-3.19-13.79-2.2-4.44.91-8.07,3.73-10.52,8.15Zm37.87,13.05c11.46-6.95,24.51-9.46,37.05-7.33,3.54.6,7.03,1.57,10.43,2.91,16.9,6.66,24.96,34.59,25.46,59.3.51,25.87-6.82,47.33-17.85,52.19-11.5,5.07-23.39,3.23-35.34-5.49-25.33-18.47-41.67-60.44-40.2-74.4,1.03-9.74,8.86-20.16,20.45-27.19Zm-31.08-9.29c1.35-2.44,3.07-3.85,5.27-4.3,5.36-1.11,12.64,3.37,14.99,5.19,1.3,1.01,3.1,1.09,4.48.19,1.38-.89,2.06-2.55,1.68-4.15-1.03-4.37-2.9-16.91.75-22.43.87-1.32,1.98-2.05,3.5-2.32,10.07-1.74,15.93,16.34,15.99,16.52.44,1.43,1.64,2.43,3.15,2.7,1.48.22,2.96-.44,3.79-1.69.1-.16,11-15.94,19.81-11.06,2.63,1.46,3.21,3.05,3.42,4.12.79,4.08-2.78,9.57-4.22,11.35-.19.23-.33.47-.46.73-15.19-3.32-31.18-.64-45.1,7.8-6.18,3.75-11.45,8.41-15.5,13.51-3.75-1.55-10.51-5.16-12.3-9.82-.77-2.01-.53-4.02.75-6.34Z"/>
      </g>
      <g>
        <path class="cls-6" d="m164.19,368.43c-8.48-10.38-19.94-17.11-32.46-19.29-3.53-.62-7.15-.87-10.81-.74-18.16.63-35.09,24.25-43.82,47.38-9.13,24.21-9.39,46.89-.63,55.15,9.15,8.63,20.97,10.86,35.14,6.64,30.04-8.94,59.48-43.03,62.76-56.68,2.29-9.52-1.61-21.96-10.18-32.46Z"/>
        <path class="cls-3" d="m193.06,364.25c-4.69-2.84-13.04-1.05-15.86-.12-1.56.52-3.28-.01-4.29-1.31-1.01-1.3-1.09-3.09-.19-4.48,2.43-3.77,8.38-14.96,6.79-21.39-.38-1.53-1.18-2.6-2.52-3.35-8.91-5.01-20.48,10.07-20.59,10.22-.89,1.2-2.36,1.74-3.88,1.49-1.47-.29-2.64-1.41-3.01-2.86-.05-.18-5.04-18.7-14.97-17.04-2.97.5-4.05,1.8-4.6,2.74-2.11,3.59-.58,9.95.18,12.1.1.28.16.56.19.84,15.42,1.95,29.6,9.82,39.89,22.43,4.57,5.6,7.98,11.75,10.09,17.91,4.06-.21,11.63-1.35,14.88-5.14,1.4-1.63,1.85-3.61,1.42-6.22-.46-2.75-1.61-4.65-3.53-5.82Z"/>
        <path class="cls-7" d="m197.06,357.59c-4.25-2.56-9.42-2.9-13.73-2.54,2.65-5.69,5.3-13.56,3.72-19.96-.89-3.6-3.06-6.46-6.26-8.26-10.17-5.72-20.33,1.6-26.02,7.18-3.16-7.42-9.85-18.22-21.51-16.25-5.71.96-8.6,4.06-10.02,6.49-3.25,5.56-2.05,12.73-1.1,16.38-.49,0-.99,0-1.48,0-23.22.8-41.88,28.73-50.81,52.4-8,21.2-12.46,50.56,1.31,63.54,5.8,5.47,12.58,8.89,20.11,10.2,6.94,1.21,14.53.63,22.57-1.76,31.03-9.24,63.9-44.84,68.1-62.3,1.02-4.22,1.08-8.86.31-13.62,5-.41,13.88-1.97,18.82-7.73,2.89-3.37,4-7.71,3.19-12.56-.83-4.99-3.31-8.86-7.19-11.2Zm-22.68,43.3c-3.28,13.65-32.72,47.73-62.76,56.68-14.17,4.22-25.99,1.98-35.14-6.64-8.76-8.27-8.5-30.95.63-55.15,8.73-23.13,25.66-46.75,43.82-47.38,3.66-.13,7.27.13,10.81.74,12.53,2.18,23.99,8.91,32.46,19.29,8.57,10.5,12.47,22.94,10.18,32.46Zm20.8-24.6c-3.25,3.79-10.82,4.94-14.88,5.14-2.11-6.16-5.52-12.31-10.09-17.91-10.29-12.61-24.47-20.48-39.89-22.43-.03-.28-.09-.56-.19-.84-.77-2.15-2.29-8.52-.18-12.1.55-.94,1.63-2.24,4.6-2.74,9.93-1.66,14.93,16.86,14.97,17.04.37,1.46,1.54,2.57,3.01,2.86,1.52.25,2.98-.29,3.88-1.49.11-.15,11.68-15.23,20.59-10.22,1.34.75,2.14,1.82,2.52,3.35,1.6,6.42-4.36,17.62-6.79,21.39-.89,1.38-.81,3.18.19,4.48,1.01,1.3,2.72,1.83,4.29,1.31,2.82-.93,11.18-2.71,15.86.12,1.92,1.16,3.07,3.06,3.53,5.82.43,2.61-.02,4.59-1.42,6.22Z"/>
      </g>
    </g>
  </g>
</svg>