<?xml version="1.0" encoding="UTF-8"?>
<svg id="Layer_2" data-name="Layer 2" xmlns="http://www.w3.org/2000/svg" viewBox="0 0 333.99 659.14">
  <defs>
    <style>
      .cls-1 {
        fill: #c98e73;
      }

      .cls-1, .cls-2, .cls-3, .cls-4, .cls-5 {
        stroke-width: 0px;
      }

      .cls-2 {
        fill: #fff;
      }

      .cls-3 {
        fill: #fc9189;
      }

      .cls-4 {
        fill: #a7b5ee;
      }

      .cls-5 {
        fill: #73371a;
      }
    </style>
  </defs>
  <g id="objects">
    <g>
      <path class="cls-4" d="m321.64,218.88c-.85,1.54-1.75,3.14-2.64,4.73-10.75,19.16-28.73,51.23-35.2,95.54-9.38,64.25-16.55,103.01-24.75,133.76-5.96,22.35-29.79,37.91-64.39,43.22-.03,0-.05,0-.08.01-8.57,1.31-17.8,2-27.58,2s-19.02-.69-27.59-2.01c-.01,0-.03,0-.04,0-34.62-5.31-58.46-20.87-64.42-43.22-8.2-30.75-15.37-69.5-24.75-133.76-6.47-44.32-24.46-76.39-35.2-95.55-.89-1.59-1.79-3.19-2.64-4.73,17.17,8.18,58.3,19.47,154.65,19.47s137.48-11.29,154.65-19.47Z"/>
      <path class="cls-2" d="m32.89,222c10.28,16.91,17.79,38.32,23.32,60.48,6.21,24.69,9.95,50.28,12.41,71.55,4.64,40.37,10.08,90.06,25.6,106.36,15.53,16.3,44.61,23.8,72.76,23.8s57.25-7.5,72.78-23.8c15.53-16.3,20.96-65.99,25.6-106.36,1.44-12.55,3.34-26.6,5.92-41.07,5.73-32.11,14.83-66.32,29.81-90.96,0,0-116.14,31.01-268.2,0Z"/>
      <path class="cls-1" d="m56.21,282.48c6.21,24.69,9.95,50.28,12.41,71.55,2.56,22.27,5.36,47.36,9.97,68.12,3.74,16.89,8.66,30.93,15.64,38.24,15.53,16.3,44.61,23.8,72.76,23.8s57.25-7.5,72.78-23.8c4.61-4.83,8.32-12.61,11.4-22.2,7.28-22.75,10.95-55.76,14.21-84.16,1.44-12.55,3.34-26.6,5.92-41.07l-2.02-3.18c-34.16-9.32-65.99,23.29-104.81,20.19-38.82-3.11-61.33-55.9-107.14-48.91l-1.1,1.43Z"/>
      <path class="cls-5" d="m166.99,488.07c-32.41,0-60.66-9.35-75.57-25.01-16.12-16.92-21.57-64.36-26.38-106.21l-.27-2.38c-3.16-27.46-7.19-50.7-12.31-71.05-6.12-24.52-13.81-44.5-22.88-59.41-.8-1.32-.75-2.99.14-4.25.89-1.26,2.42-1.91,3.95-1.57,149.33,30.45,265.27.35,266.43.05,1.53-.41,3.16.15,4.11,1.42.95,1.27,1.03,2.99.21,4.34-12.51,20.57-22.37,50.73-29.31,89.62-2.25,12.63-4.18,25.99-5.88,40.83l-.27,2.38c-4.81,41.85-10.26,89.29-26.38,106.21-14.91,15.66-43.17,25.01-75.58,25.01ZM40.43,227.44c7.64,14.52,14.21,32.67,19.55,54.09,5.2,20.67,9.29,44.24,12.5,72.05l.27,2.39c4.44,38.63,9.96,86.7,24.28,101.74,13.48,14.15,39.63,22.6,69.95,22.6s56.49-8.45,69.96-22.6c14.33-15.04,19.85-63.12,24.28-101.74l.27-2.39c1.73-15,3.67-28.51,5.95-41.31,6.29-35.26,15-63.64,25.94-84.53-29.25,6.21-129.14,23.32-252.98-.31Z"/>
      <path class="cls-5" d="m78.59,422.15c3.74,16.89,8.66,30.93,15.64,38.24,15.53,16.3,44.61,23.8,72.76,23.8s57.25-7.5,72.78-23.8c4.61-4.83,8.32-12.61,11.4-22.2l-1.3-3.42c-14.75-7.76-33.38.78-52.02,3.88-18.63,3.11-32.61-16.3-50.46-17.08-17.86-.78-24.07,16.3-38.04,13.97-13.97-2.33-14.75-14.75-30.28-13.97l-.47.57Z"/>
      <path class="cls-4" d="m166.99,529.61c14.42,0,24.74-3.61,28.52-5.17,6.17,2.35,14.18,7.12,14.18,11.24,0,6.82-9.84,9.57-15.66,10.12-.22.02-.44.06-.66.12-.01,0-.03,0-.04,0-.1.03-10.65,2.96-26.35,2.96s-26.24-2.93-26.35-2.96c-.01,0-.03,0-.04,0-.21-.06-.43-.1-.66-.12-5.82-.55-15.66-3.3-15.66-10.12,0-4.14,8.01-8.91,14.18-11.25,3.77,1.56,14.09,5.17,28.52,5.17Z"/>
      <path class="cls-4" d="m203.28,589.76c10.84,6.48,28.17,14.96,43.76,18.96,2.51.64,4.72,1.44,6.62,2.35-4.77,6.71-23.21,24-86.67,24s-81.95-17.34-86.68-23.99c1.9-.92,4.12-1.71,6.63-2.36,15.98-4.11,33.79-12.92,44.57-19.45,4.3,2.54,19.69,10.9,35.48,10.9,14.95,0,30.75-7.52,36.29-10.42Z"/>
      <path class="cls-4" d="m259.82,615.81c.65.89,1.12,1.82,1.39,2.8.92,3.38-.66,6.5-2.46,8.29-.44.44-.92.95-1.44,1.5-6.45,6.88-21.54,22.98-90.33,22.98s-83.88-16.1-90.33-22.98c-.52-.56-1-1.06-1.44-1.5-1.79-1.79-3.38-4.91-2.46-8.29.27-.98.74-1.91,1.39-2.8,6.58,9.09,27.81,27.03,92.83,27.03s86.25-17.95,92.83-27.03Z"/>
      <path class="cls-4" d="m138.8,584.41c.32-.25.62-.48.88-.71,5.97-5.01,6.63-17.06,6.69-20.63.03-1.84-.02-4.98-.57-8.12,4.98.84,12.28,1.71,21.19,1.71s16.21-.87,21.19-1.71c-.55,3.14-.6,6.28-.57,8.12.06,3.57.72,15.63,6.69,20.64.41.34.88.71,1.42,1.11-6.69,3.1-18.19,7.6-28.73,7.6s-22.26-4.93-28.19-8Z"/>
      <path class="cls-3" d="m237.04,119.48l51.63-111.38c4.71.77,12.34,2.69,15.72,6.29l-52.45,113.14c-4.62-2.9-9.58-5.6-14.9-8.05Z"/>
      <path class="cls-2" d="m37.42,198.56c8.43-33.18,44.14-85.42,129.57-85.42s121.14,52.24,129.57,85.42c-9.24,3.24-43.45,12.62-129.57,12.62s-120.3-9.37-129.57-12.62Z"/>
      <path class="cls-4" d="m166.99,521.85c-11.39,0-19.96-2.52-24.04-4,.4-3,.77-7.79.24-13.35,7.53.93,15.48,1.41,23.8,1.41s16.27-.48,23.8-1.41c-.54,5.55-.17,10.35.24,13.35-4.08,1.49-12.65,4-24.04,4Z"/>
      <path class="cls-4" d="m30.9,193.05c-.73,2.45-1.34,4.82-1.81,7.09-.36,1.71.47,3.45,2.03,4.25,1.16.59,29.59,14.55,135.88,14.55s134.72-13.96,135.88-14.55c1.56-.8,2.39-2.54,2.03-4.25-.48-2.27-1.08-4.64-1.81-7.09,16.74,5.38,21.45,10,22.76,14.22-5.86,4.65-37.01,23.33-158.85,23.33S13.95,211.89,8.13,207.26c1.28-4.17,5.95-8.81,22.77-14.21Z"/>
      <path class="cls-5" d="m0,208.64c-.18,3.65,2.34,8.32,8.2,18.77,10.48,18.69,28.03,49.97,34.29,92.87,9.43,64.57,16.65,103.58,24.93,134.64,6.6,24.75,31.62,42.11,67.81,48.39.84,6.06.34,11.34-.06,14.08-5.52,2.18-18.66,8.42-18.66,18.29,0,10.93,10.86,16.23,20.88,17.64.71,1.78,1.52,6.11,1.09,12.08-.49,6.73-2.26,11.05-3.81,12.35-6.47,5.43-30.24,18.45-49.68,23.45-13.81,3.55-18.35,10.31-19.73,15.36-1.51,5.51.2,11.57,4.45,15.82.39.39.8.83,1.26,1.32,7.14,7.61,23.85,25.43,95.99,25.43s88.86-17.82,95.99-25.43c.46-.49.88-.93,1.26-1.32,4.25-4.25,5.96-10.32,4.45-15.82-1.38-5.05-5.92-11.81-19.73-15.36-15.22-3.91-33.09-12.74-43.24-19-.08-.06-.17-.1-.25-.16-2.69-1.67-4.82-3.15-6.18-4.29-1.55-1.3-3.32-5.62-3.81-12.35-.43-5.96.38-10.28,1.11-12.08,10.01-1.4,20.86-6.71,20.86-17.63,0-9.87-13.13-16.11-18.65-18.29-.4-2.75-.9-8.06-.07-14.08,36.19-6.28,61.21-23.65,67.81-48.39,8.28-31.06,15.51-70.07,24.93-134.64,6.26-42.9,23.81-74.18,34.29-92.87,6.15-10.97,8.63-15.56,8.16-19.31,0-.05-.02-.1-.02-.15,0,0,0-.01,0-.02-1.42-10.7-10.73-17.29-34.04-23.98-6.99-17.26-20.12-36.78-41.39-52.06l53.91-116.29c.52-1.12.48-2.41-.11-3.49C306.77,2.04,288.72.19,286.68.02c-1.63-.16-3.17.75-3.86,2.23l-52.93,114.19c-17.36-6.84-38.14-11.07-62.9-11.07-80,0-118.82,43.89-132.88,78.59C11,190.6,1.65,197.14.11,207.68c-.07.31-.11.63-.1.96Zm251.93-81.11c-4.62-2.9-9.58-5.6-14.9-8.05l51.63-111.38c4.71.77,12.34,2.69,15.72,6.29l-52.45,113.14Zm44.62,71.03c-9.24,3.24-43.45,12.62-129.57,12.62s-120.3-9.37-129.57-12.62c8.43-33.18,44.14-85.42,129.57-85.42s121.14,52.24,129.57,85.42Zm-100.84,386.26c-6.69,3.1-18.19,7.6-28.73,7.6s-22.26-4.93-28.19-8c.32-.25.62-.48.88-.71,5.97-5.01,6.63-17.06,6.69-20.63.03-1.84-.02-4.98-.57-8.12,4.98.84,12.28,1.71,21.19,1.71s16.21-.87,21.19-1.71c-.55,3.14-.6,6.28-.57,8.12.06,3.57.72,15.63,6.69,20.64.41.34.88.71,1.42,1.11Zm-28.73,58.02c65.02,0,86.25-17.95,92.83-27.03.65.89,1.12,1.82,1.39,2.8.92,3.38-.66,6.5-2.46,8.29-.44.44-.92.95-1.44,1.5-6.45,6.88-21.54,22.98-90.33,22.98s-83.88-16.1-90.33-22.98c-.52-.56-1-1.06-1.44-1.5-1.79-1.79-3.38-4.91-2.46-8.29.27-.98.74-1.91,1.39-2.8,6.58,9.09,27.81,27.03,92.83,27.03Zm0-42.66c14.95,0,30.75-7.52,36.29-10.42,10.84,6.48,28.17,14.96,43.76,18.96,2.51.64,4.72,1.44,6.62,2.35-4.77,6.71-23.21,24-86.67,24s-81.95-17.34-86.68-23.99c1.9-.92,4.12-1.71,6.63-2.36,15.98-4.11,33.79-12.92,44.57-19.45,4.3,2.54,19.69,10.9,35.48,10.9Zm-28.52-75.73c3.77,1.56,14.09,5.17,28.52,5.17s24.74-3.61,28.52-5.17c6.17,2.35,14.18,7.12,14.18,11.24,0,6.82-9.84,9.57-15.66,10.12-.22.02-.44.06-.66.12-.01,0-.03,0-.04,0-.1.03-10.65,2.96-26.35,2.96s-26.24-2.93-26.35-2.96c-.01,0-.03,0-.04,0-.21-.06-.43-.1-.66-.12-5.82-.55-15.66-3.3-15.66-10.12,0-4.14,8.01-8.91,14.18-11.25Zm52.56-6.6c-4.08,1.49-12.65,4-24.04,4s-19.96-2.52-24.04-4c.4-3,.77-7.79.24-13.35,7.53.93,15.48,1.41,23.8,1.41s16.27-.48,23.8-1.41c-.54,5.55-.17,10.35.24,13.35ZM12.34,218.88c17.17,8.18,58.3,19.47,154.65,19.47s137.48-11.29,154.65-19.47c-.85,1.54-1.75,3.14-2.64,4.73-10.75,19.16-28.73,51.23-35.2,95.54-9.38,64.25-16.55,103.01-24.75,133.76-5.96,22.35-29.79,37.91-64.39,43.22-.03,0-.05,0-.08.01-8.57,1.31-17.8,2-27.58,2s-19.02-.69-27.59-2.01c-.01,0-.03,0-.04,0-34.62-5.31-58.46-20.87-64.42-43.22-8.2-30.75-15.37-69.5-24.75-133.76-6.47-44.32-24.46-76.39-35.2-95.55-.89-1.59-1.79-3.19-2.64-4.73Zm-4.22-11.63c1.28-4.17,5.95-8.81,22.77-14.21-.73,2.45-1.34,4.82-1.81,7.09-.36,1.71.47,3.45,2.03,4.25,1.16.59,29.59,14.55,135.88,14.55s134.72-13.96,135.88-14.55c1.56-.8,2.39-2.54,2.03-4.25-.48-2.27-1.08-4.64-1.81-7.09,16.74,5.38,21.45,10,22.76,14.22-5.86,4.65-37.01,23.33-158.85,23.33S13.95,211.89,8.13,207.26Z"/>
      <path class="cls-5" d="m133.4,100.93c0,18.29,14.83,33.12,33.13,33.12s33.12-14.83,33.12-33.12-14.83-33.12-33.12-33.12-33.13,14.83-33.13,33.12Z"/>
    </g>
  </g>
</svg>