<?xml version="1.0" encoding="UTF-8"?>
<svg id="Layer_2" data-name="Layer 2" xmlns="http://www.w3.org/2000/svg" viewBox="0 0 322.42 385.6">
  <defs>
    <style>
      .cls-1 {
        fill: #f7ca94;
      }

      .cls-1, .cls-2, .cls-3, .cls-4, .cls-5, .cls-6, .cls-7 {
        stroke-width: 0px;
      }

      .cls-2 {
        fill: #88cf8d;
      }

      .cls-3 {
        fill: #fff;
      }

      .cls-4 {
        fill: #ed5347;
      }

      .cls-5 {
        fill: #c96f3e;
      }

      .cls-6 {
        fill: #73371a;
      }

      .cls-7 {
        fill: #fc6b60;
      }
    </style>
  </defs>
  <g id="objects">
    <g>
      <g>
        <path class="cls-2" d="m140.49,149.84C74.24,102.23,117.72,24.59,131.18,3.89c42.44,24.84,56.93,129.39,9.32,145.96Z"/>
        <path class="cls-6" d="m140.49,153.73c-.8,0-1.6-.25-2.27-.73C69.54,103.63,112.97,24.77,127.92,1.77c1.13-1.74,3.41-2.29,5.21-1.23,29.47,17.25,43.91,66.71,40.4,102.64-2.56,26.22-13.85,44.1-31.77,50.33-.41.15-.84.22-1.28.22Zm-8.13-144.46c-15.29,24.71-49.18,92.84,8.73,136.2,18.56-7.75,23.47-30.12,24.73-43.04,3.15-32.31-9.51-76.2-33.45-93.16Z"/>
      </g>
      <g>
        <path class="cls-2" d="m139.46,153.98C160.16,69.1,42.15,35.98,42.15,35.98c0,0,6.21,142.85,97.31,118.01Z"/>
        <path class="cls-6" d="m119.18,160.77c-13.13,0-24.96-3.8-35.36-11.39-41.48-30.28-45.4-109.86-45.54-113.23-.06-1.24.49-2.44,1.47-3.21.97-.78,2.26-1.04,3.46-.7,1.22.34,121.37,35.15,100.03,122.67-.33,1.37-1.39,2.45-2.75,2.83-7.43,2.02-14.54,3.03-21.3,3.03Zm20.28-6.78h.06-.06ZM46.45,41.43c1.68,18.57,9.53,78.02,41.96,101.67,13.21,9.65,29.28,12.23,47.79,7.71,14.78-68.58-67.63-101.79-89.75-109.38Z"/>
      </g>
      <g>
        <path class="cls-4" d="m162.51,146.76c12.17,5.62,25.42,6.64,37.64,3.11,3.45-1,6.81-2.35,10.04-4.07,16.05-8.53,20.91-37.18,18.62-61.79-2.4-25.76-12.11-46.26-23.61-49.85-12-3.74-23.61-.57-34.49,9.43-23.08,21.21-34.6,64.75-31.57,78.45,2.12,9.57,11.08,19.04,23.38,24.71Z"/>
        <path class="cls-2" d="m138.39,163.17c5.45.5,12.18-4.77,14.31-6.84,1.18-1.15,2.95-1.43,4.43-.7,1.47.73,2.33,2.31,2.14,3.94-.53,4.45-.98,17.12,3.27,22.2,1.01,1.21,2.2,1.82,3.74,1.91,10.21.59,13.99-18.03,14.03-18.21.28-1.47,1.36-2.6,2.83-3.04,1.45-.38,2.99.11,3.96,1.25.12.14,12.73,14.6,20.93,8.76,2.45-1.75,2.85-3.39,2.93-4.48.32-4.15-3.84-9.2-5.47-10.8-.21-.21-.39-.43-.54-.67-14.71,5.01-30.91,4.15-45.69-2.67-6.57-3.03-12.33-7.07-16.92-11.68-3.56,1.97-9.86,6.31-11.12,11.14-.54,2.08-.08,4.06,1.46,6.21,1.62,2.27,3.49,3.48,5.72,3.68Z"/>
        <path class="cls-6" d="m137.72,170.91c4.94.44,9.74-1.52,13.46-3.74.11,6.28,1.18,14.51,5.41,19.57,2.38,2.85,5.58,4.47,9.25,4.68,11.64.68,17.57-10.35,20.24-17.86,6.1,5.29,16.84,12.06,26.46,5.18,4.71-3.36,5.95-7.42,6.16-10.23.48-6.42-3.74-12.34-6.2-15.2.44-.22.89-.42,1.33-.66,20.51-10.9,25.05-44.18,22.7-69.37-2.1-22.56-10.97-50.9-29.03-56.54-7.61-2.38-15.2-2.47-22.54-.35-6.77,1.96-13.33,5.8-19.52,11.48-23.84,21.9-37.78,68.31-33.9,85.85.94,4.24,2.91,8.43,5.7,12.38-4.32,2.57-11.61,7.85-13.53,15.2-1.12,4.29-.21,8.68,2.64,12.69,2.93,4.12,6.86,6.51,11.37,6.92Zm1.41-48.86c-3.03-13.71,8.48-57.25,31.57-78.45,10.89-10,22.49-13.18,34.49-9.43,11.5,3.59,21.21,24.09,23.61,49.85,2.3,24.61-2.57,53.27-18.62,61.79-3.23,1.72-6.59,3.07-10.04,4.07-12.21,3.53-25.47,2.5-37.64-3.11-12.31-5.68-21.26-15.15-23.38-24.71Zm-7.91,31.23c1.26-4.83,7.56-9.18,11.12-11.14,4.59,4.61,10.35,8.65,16.92,11.68,14.78,6.82,30.97,7.68,45.69,2.67.15.24.33.46.54.67,1.63,1.6,5.79,6.65,5.47,10.8-.08,1.09-.48,2.73-2.93,4.48-8.2,5.84-20.81-8.61-20.93-8.76-.97-1.15-2.51-1.63-3.96-1.25-1.47.44-2.55,1.57-2.83,3.04-.04.19-3.82,18.81-14.03,18.21-1.54-.09-2.72-.7-3.74-1.91-4.25-5.07-3.8-17.75-3.27-22.2.19-1.63-.66-3.21-2.14-3.94-1.48-.73-3.25-.45-4.43.7-2.13,2.07-8.86,7.34-14.31,6.84-2.23-.2-4.1-1.41-5.72-3.68-1.54-2.16-2-4.13-1.46-6.21Z"/>
      </g>
      <path class="cls-3" d="m60.63,194.64c28.39-22.7,65.2-34.18,109.89-34.18,12.79,0,24.91,1.24,36.33,3.67,2.93-8.92-.33-20.04-7.97-26.5-3.91-3.31-11.94-7.7-23-1.71,1.47,2.53,2.47,5.27,2.88,8.22.3,2.12-1.19,4.08-3.31,4.38-.18.02-.36.04-.54.04-1.91,0-3.57-1.41-3.84-3.35-1.65-11.91-16.2-17.03-28.14-17.8-14.07-.9-30.46,3.72-34.98,13.99,7.58,3.1,13.12,4.49,21.27,1.23,1.99-.8,4.25.17,5.05,2.16.8,1.99-.17,4.25-2.16,5.05-12.55,5.02-20.83,1.46-31.33-3.03-4.02-1.72-8.58-3.68-14-5.41-9.61-3.08-21.23-.03-25.38,6.66-3.43,5.52-1,13.02,6.83,21.1,1.49,1.54,1.45,4-.09,5.49-.75.73-1.73,1.09-2.7,1.09s-2.03-.39-2.79-1.18c-2.49-2.57-4.44-5.02-5.96-7.34-3.91.42-10.28,5.63-11.42,12.19-1.56,8.97,8.74,13.32,15.02,15.11.12.03.22.09.33.13Z"/>
      <path class="cls-1" d="m290.9,372.8c-7.89,3.18-18.4,5.05-32.41,5.05H95.98c-.14,0-.28,0-.42-.02-17.25-.4-29.27-26.94-29.27-64.78,0-31.63,8.32-63.34,22.83-86.98,12.05-19.66,34.33-43.07,72.09-43.07,97.23,0,123.85,68.74,130.77,98.3,8,34.13,10.26,77.47-1.09,91.5Z"/>
      <path class="cls-3" d="m214.39,165.95c11.82,3.17,22.81,7.69,32.92,13.53,5.43-8.12,6.51-16.37,3.06-24-4.21-9.32-15.14-16.82-25.42-17.44-3.98-.24-9.34.5-12.41,5.3,3.23,7.17,4.02,15.37,1.85,22.6Z"/>
      <path class="cls-5" d="m170.51,168.22c-127.64,0-155.66,96.86-161.79,138.5-3.13,21.31,1.44,40.9,12.55,53.77,9.95,11.52,24.63,17.36,43.65,17.36h12.8c-11.93-11.41-19.18-34.66-19.18-64.78,0-33.03,8.73-66.21,23.96-91.04,18.77-30.61,45.99-46.79,78.72-46.79,102.78,0,130.98,72.94,138.33,104.3,5,21.33,10.71,61.57,3.5,85.72,11.6-10.95,11.61-27.25,11.61-41.5,0-1.56-1.65-155.53-144.15-155.53Z"/>
      <path class="cls-6" d="m253.92,183.56c6.77-10.28,8.06-21.27,3.53-31.27-5.4-11.95-18.87-21.19-32.03-21.99-7.01-.43-13.06,1.72-17.16,5.98-1.31-1.66-2.76-3.21-4.38-4.58-9.35-7.91-21.6-8.57-32.98-1.87-6.29-5.72-15.87-9.42-27.48-10.17-16.77-1.08-36.54,4.39-42.65,18.7-3.42-1.44-7.22-2.96-11.63-4.37-12.96-4.15-28.36.32-34.34,9.96-2.01,3.24-4.03,8.76-1.63,16.1-7.16,2.21-14.13,9.86-15.54,18.01-.83,4.78-.71,15.98,16.12,22.44-6.35,5.78-12.24,12.16-17.65,19.18C11.99,250.95,3.79,286.93,1.04,305.59c-3.46,23.54,1.77,45.4,14.35,59.97,11.49,13.3,28.15,20.04,49.53,20.04h193.58c15.37,0,27.03-2.24,35.9-5.96.31-.08.61-.22.9-.38,27.12-11.94,27.12-38.12,27.12-55.51,0-1.93-.27-47.64-24.03-90.89-11.44-20.83-26.4-37.33-44.47-49.29Zm-28.97-45.51c10.28.62,21.21,8.12,25.42,17.44,3.45,7.63,2.37,15.87-3.06,24-10.11-5.85-21.11-10.37-32.92-13.53,2.17-7.24,1.38-15.43-1.85-22.6,3.07-4.8,8.43-5.54,12.41-5.3Zm-179.67,41.34c1.14-6.56,7.5-11.77,11.42-12.19,1.52,2.32,3.46,4.77,5.96,7.34.76.79,1.77,1.18,2.79,1.18s1.95-.36,2.7-1.09c1.54-1.49,1.58-3.95.09-5.49-7.83-8.09-10.26-15.58-6.83-21.1,4.15-6.69,15.77-9.74,25.38-6.66,5.42,1.73,9.98,3.69,14,5.41,10.49,4.5,18.78,8.05,31.33,3.03,1.99-.8,2.96-3.06,2.16-5.05-.8-1.99-3.05-2.96-5.05-2.16-8.16,3.26-13.7,1.88-21.27-1.23,4.52-10.27,20.91-14.88,34.98-13.99,11.95.77,26.49,5.89,28.14,17.8.27,1.94,1.93,3.35,3.84,3.35.18,0,.36-.01.54-.04,2.12-.3,3.61-2.26,3.31-4.38-.41-2.95-1.41-5.69-2.88-8.22,11.06-5.99,19.08-1.6,23,1.71,7.64,6.46,10.89,17.58,7.97,26.5-11.42-2.44-23.54-3.67-36.33-3.67-44.69,0-81.49,11.48-109.89,34.18-.11-.04-.21-.1-.33-.13-6.28-1.79-16.58-6.14-15.02-15.11Zm245.62,193.41c-7.89,3.17-18.4,5.04-32.4,5.04H95.98c-17.47,0-29.68-26.64-29.68-64.78,0-31.64,8.31-63.34,22.81-86.99,12.05-19.65,34.34-43.08,72.11-43.08,97.23,0,123.84,68.75,130.77,98.31,8,34.13,10.26,77.46-1.09,91.5Zm12.15-7.55c7.2-24.15,1.49-64.4-3.5-85.72-7.35-31.36-35.54-104.3-138.33-104.3-32.74,0-59.96,16.18-78.72,46.79-15.22,24.83-23.96,58.02-23.96,91.04,0,30.12,7.26,53.38,19.18,64.78h-12.8c-19.02,0-33.71-5.84-43.65-17.36-11.11-12.86-15.68-32.46-12.55-53.77,6.12-41.64,34.15-138.5,161.79-138.5,142.5,0,144.15,153.98,144.15,155.53,0,14.25,0,30.55-11.61,41.5Z"/>
      <path class="cls-7" d="m257.73,332.83c-11.41,20.11-30.87,32.86-54.77,35.93-26.94,3.45-48.83-2.03-63.32-15.85-13.4-12.78-19.47-31.88-17.59-55.18,1.97-24.22,16.63-43.63,39.22-51.94,19.91-7.31,41.02-3.76,53.82,9.04,14.35,14.35,18.06,36.09,8.83,51.69-8.62,14.58-25.5,19.88-45.17,14.16-5.76-1.66-9.08-7.7-7.41-13.46,1.68-5.76,7.7-9.08,13.48-7.41,5.67,1.65,15.87,3.28,20.39-4.35,3.56-6.02,2.84-16.92-5.5-25.26-6.72-6.72-19.16-8.34-30.95-4.01-14.42,5.31-23.79,17.75-25.05,33.29-.93,11.55.2,27.47,10.93,37.7,9.58,9.15,25.33,12.61,45.54,10.02,16.96-2.17,30.67-11.09,38.63-25.11,10.06-17.7,9.83-41.66-.64-65.73-8.15-18.74-24.1-31.35-44.92-35.5-23.29-4.64-49.21,2.14-64.48,16.86-14.22,13.73-27.47,47.33-25.25,84.98.95,16.01,4.94,36.26,16.68,55.14h-24.24c-.14,0-.28,0-.42-.02-7.87-16.15-12.56-34.35-13.71-53.85-2.36-39.64,10.74-81.55,31.85-101.91,20.5-19.75,53.38-28.6,83.82-22.53,28.01,5.59,49.53,22.69,60.62,48.15,13.21,30.4,13.07,61.43-.4,85.14Z"/>
      <path class="cls-6" d="m111.51,135.09c-1.24,0-2.47-.6-3.22-1.7l-41.4-61.07c-1.21-1.77-.74-4.19,1.03-5.39,1.77-1.21,4.2-.73,5.39,1.04l41.4,61.07c1.21,1.77.74,4.19-1.04,5.39-.67.45-1.42.67-2.17.67Z"/>
      <path class="cls-6" d="m139.46,89.55c-2.11,0-3.84-1.69-3.88-3.8l-1.03-51.76c-.04-2.14,1.66-3.92,3.8-3.96,2.42.04,3.92,1.66,3.96,3.8l1.04,51.76c.04,2.14-1.66,3.92-3.8,3.96h-.08Z"/>
    </g>
  </g>
</svg>