<?xml version="1.0" encoding="UTF-8"?>
<svg id="Layer_2" data-name="Layer 2" xmlns="http://www.w3.org/2000/svg" viewBox="0 0 288.81 515.7">
  <defs>
    <style>
      .cls-1 {
        fill: #c5a6fb;
      }

      .cls-1, .cls-2, .cls-3, .cls-4, .cls-5, .cls-6 {
        stroke-width: 0px;
      }

      .cls-2 {
        fill: #f58f99;
      }

      .cls-3 {
        fill: #88cf8d;
      }

      .cls-4 {
        fill: #fff;
      }

      .cls-5 {
        fill: #a7b5ee;
      }

      .cls-6 {
        fill: #73371a;
      }
    </style>
  </defs>
  <g id="objects">
    <g>
      <g>
        <path class="cls-5" d="m22.44,448.42c2.05,4.62,3.5,8.24,3.93,11.63.16,1.28.29,2.72.42,4.23.35,3.91,1,11.18,2.81,12.63.6.48,1.15,1.08,1.91,1.91,17.69,19.31,55.67,29.11,112.89,29.11s95.21-9.79,112.89-29.11c.76-.83,1.31-1.43,1.91-1.91,1.81-1.45,2.46-8.72,2.81-12.63.13-1.51.26-2.95.42-4.23.43-3.4,1.88-7.01,3.93-11.63-20.8,15.87-58.37,28.94-121.96,28.94s-101.16-13.07-121.97-28.94Z"/>
        <path class="cls-2" d="m226.7,280.16c-7.58,23.14-15.42,47.06-32.92,65.29-16.28,16.96-37.04,27.24-57.11,37.18-33.25,16.47-64.7,32.06-76.55,75.91,20.33,6.63,47.76,11.04,84.28,11.04,108.08,0,136.64-38.63,136.64-59.05v-195.03c-34.33,3.62-43.64,31.98-54.34,64.65Z"/>
        <path class="cls-5" d="m144.41,154.41c98.4,0,130.86-24.97,136.58-30.22-.58-9.44-6.33-16.58-11.92-23.49-4.4-5.45-8.56-10.59-9.69-16.51-1.38-7.23-.28-12.01.89-17.06,1.01-4.36,2.15-9.3,2.15-17.29,0-6.32-9.48-16.85-30.67-26.12-23.52-10.29-54.53-15.95-87.34-15.95s-63.82,5.67-87.34,15.95c-21.19,9.27-30.67,19.8-30.67,26.12,0,7.99,1.14,12.93,2.15,17.29,1.17,5.06,2.27,9.83.89,17.06-1.13,5.92-5.29,11.07-9.69,16.51-3.73,4.61-7.53,9.32-9.82,14.75,5.82,7.17,37.14,38.95,134.49,38.95Zm0-140.93c62.25,0,111.02,20.06,111.02,45.68s-48.77,45.68-111.02,45.68-111.02-20.06-111.02-45.68S82.15,13.48,144.41,13.48Z"/>
        <ellipse class="cls-5" cx="144.4" cy="59.15" rx="103.26" ry="37.91"/>
        <path class="cls-4" d="m180.92,236.92c-8.66,15.36-18.48,32.76-38.07,47.39-30.55,22.81-53.3,19.73-75.29,16.75-18.72-2.54-36.44-4.93-59.79,7.51v101.99c0,12.66,10.97,32.3,45.02,45.41,12.89-46.8,47.21-63.81,80.44-80.27,19.48-9.65,39.62-19.62,54.96-35.6,16.27-16.95,23.83-40.02,31.14-62.33,11.17-34.09,21.75-66.35,61.72-70.04v-23.57c-70.28-.1-84.15,24.45-100.13,52.78Z"/>
        <path class="cls-2" d="m7.8,124.72c-.01.34-.04.67-.04,1.02v174.11c23.82-11.5,42.61-8.97,60.83-6.5,21.39,2.9,41.59,5.64,69.61-15.27,18.28-13.65,27.26-29.57,35.95-44.98,16.47-29.2,32.03-56.8,106.89-56.75v-42.27c-13.81,9.73-51.17,28.08-136.64,28.08S20.27,137.08,7.8,124.72Z"/>
        <path class="cls-6" d="m144.41,104.83c62.25,0,111.02-20.06,111.02-45.68S206.66,13.48,144.41,13.48,33.38,33.54,33.38,59.15s48.77,45.68,111.02,45.68Zm0-83.59c61.77,0,103.26,19.61,103.26,37.91s-41.49,37.91-103.26,37.91-103.26-19.61-103.26-37.91,41.49-37.91,103.26-37.91Z"/>
        <path class="cls-6" d="m275.11,95.82c-3.77-4.67-7.34-9.08-8.11-13.09-1.08-5.62-.28-9.08.83-13.86,1.05-4.53,2.35-10.16,2.35-19.04,0-11.13-13.2-23.55-35.32-33.23C210.38,5.9,178.26,0,144.41,0S78.43,5.9,53.95,16.61c-22.12,9.68-35.32,22.1-35.32,33.23,0,8.88,1.3,14.51,2.35,19.04,1.1,4.78,1.9,8.24.83,13.86-.77,4.01-4.33,8.42-8.11,13.09-4.29,5.31-9.31,11.54-11.92,19.27,0,.01-.01.03-.01.04-1.09,3.25-1.77,6.77-1.77,10.6v284.8c0,6.61,2.16,14.43,7.47,22.35,2.36,6.39,4.73,11.68,6.65,15.94,2.33,5.19,4.18,9.28,4.54,12.18.15,1.2.27,2.54.39,3.95.6,6.79,1.29,14.48,5.68,17.99.17.14.66.68,1.05,1.1,19.22,20.99,59.13,31.63,118.62,31.63s99.4-10.64,118.62-31.63c.39-.43.88-.96,1.04-1.09,4.4-3.52,5.09-11.22,5.69-18,.13-1.41.24-2.76.39-3.95.36-2.9,2.21-6.99,4.54-12.18,1.92-4.26,4.29-9.55,6.65-15.94,5.31-7.92,7.47-15.75,7.47-22.35V125.74c0-12.97-7.6-22.37-13.7-29.92Zm-255.37,4.88c4.4-5.45,8.56-10.59,9.69-16.51,1.38-7.23.28-12.01-.89-17.06-1.01-4.36-2.15-9.3-2.15-17.29,0-6.32,9.48-16.85,30.67-26.12,23.52-10.29,54.53-15.95,87.34-15.95s63.82,5.67,87.34,15.95c21.19,9.27,30.67,19.8,30.67,26.12,0,7.99-1.14,12.93-2.15,17.29-1.17,5.06-2.27,9.83-.89,17.06,1.13,5.92,5.29,11.07,9.69,16.51,5.59,6.91,11.34,14.04,11.92,23.49-5.73,5.25-38.18,30.22-136.58,30.22S15.74,122.63,9.92,115.46c2.29-5.43,6.1-10.14,9.82-14.75Zm242.7,359.35c-.16,1.28-.29,2.72-.42,4.23-.35,3.91-1,11.18-2.81,12.63-.6.48-1.15,1.08-1.91,1.91-17.69,19.31-55.67,29.11-112.89,29.11s-95.21-9.79-112.89-29.11c-.76-.83-1.31-1.43-1.91-1.91-1.81-1.45-2.46-8.72-2.81-12.63-.13-1.51-.26-2.95-.42-4.23-.43-3.4-1.88-7.01-3.93-11.63,20.8,15.87,58.37,28.94,121.97,28.94s101.16-13.07,121.96-28.94c-2.05,4.62-3.5,8.24-3.93,11.63Zm18.6-49.51c0,20.42-28.56,59.05-136.64,59.05-36.52,0-63.95-4.41-84.28-11.04,11.85-43.85,43.29-59.44,76.55-75.91,20.08-9.94,40.84-20.22,57.11-37.18,17.5-18.23,25.34-42.16,32.92-65.29,10.7-32.66,20.01-61.03,54.34-64.65v195.03Zm0-202.84c-39.97,3.69-50.55,35.95-61.72,70.04-7.31,22.31-14.87,45.38-31.14,62.33-15.34,15.98-35.48,25.96-54.96,35.6-33.23,16.46-67.55,33.46-80.44,80.27-34.05-13.11-45.02-32.75-45.02-45.41v-101.99c23.35-12.44,41.07-10.04,59.79-7.51,22,2.98,44.74,6.06,75.29-16.75,19.59-14.62,29.41-32.03,38.07-47.39,15.98-28.33,29.85-52.88,100.13-52.78v23.57Zm0-31.35c-74.86-.05-90.42,27.54-106.89,56.75-8.69,15.41-17.67,31.34-35.95,44.98-28.01,20.91-48.22,18.17-69.61,15.27-18.22-2.47-37.01-5-60.83,6.5V125.74c0-.34.02-.68.04-1.02,12.47,12.36,48.62,37.45,136.6,37.45s122.83-18.35,136.64-28.08v42.27Z"/>
        <path class="cls-6" d="m83.85,79.42c-20.31,0-36.22-8.9-36.22-20.26s15.91-20.26,36.22-20.26,36.22,8.9,36.22,20.26-15.91,20.26-36.22,20.26Zm0-32.76c-16.29,0-28.46,6.6-28.46,12.5s12.17,12.5,28.46,12.5,28.46-6.6,28.46-12.5-12.17-12.5-28.46-12.5Z"/>
        <path class="cls-6" d="m105.59,59.15c0-8.16-27.95-12.81-27.95,0s27.95,8.16,27.95,0Z"/>
      </g>
      <g>
        <path class="cls-3" d="m146.73,250.91c-35.71-37.27-13.97-73.76-13.97-73.76,0,0,65.99-.78,63.66,76.08-2.33,76.86-49.69-2.33-49.69-2.33Z"/>
        <path class="cls-6" d="m183.04,290.68c-15.89,0-35-30.07-39.41-37.4-36.9-38.84-14.44-77.72-14.2-78.11.69-1.16,1.94-1.88,3.29-1.89,1.26.04,28.24-.09,47.98,20.02,13.8,14.05,20.39,34.26,19.61,60.06-.69,22.85-5.23,34.59-14.29,36.95-.97.25-1.97.37-2.97.37Zm-47.98-109.55c-3.73,7.81-14.46,36.9,14.48,67.1.2.21.38.44.53.69,9.19,15.35,25.78,36.03,33.99,33.87,2.3-.6,7.73-4.69,8.49-29.66.71-23.61-5.14-41.91-17.39-54.39-14.36-14.63-33.59-17.16-40.09-17.6Z"/>
      </g>
      <g>
        <path class="cls-3" d="m184.78,254.02c60.56-33.38,20.96-90.06,20.96-90.06,0,0-64.44,27.17-20.96,90.06Z"/>
        <path class="cls-6" d="m184.78,257.9c-1.24,0-2.45-.59-3.19-1.68-14.19-20.52-18.83-39.69-13.8-56.96,7.72-26.5,35.28-38.39,36.45-38.88,1.67-.72,3.64-.15,4.69,1.35.76,1.09,18.51,26.93,11.99,54.97-3.86,16.61-15.39,30.31-34.26,40.71-.59.33-1.24.48-1.87.48Zm19.52-88.91c-6.88,3.67-23.8,14.29-29.08,32.5-4.09,14.11-.47,30.02,10.76,47.36,15.01-9.02,24.2-20.39,27.35-33.85,4.61-19.7-4.94-38.96-9.04-46.01Z"/>
      </g>
      <g>
        <path class="cls-3" d="m186.33,250.91c41.15-26.4,77.64,8.54,83.07,31.05-26.4,27.95-87.73,10.09-83.07-31.05Z"/>
        <path class="cls-6" d="m235.28,299.3c-9.35,0-18.59-2.08-26.34-5.68-18.65-8.66-28.55-24.79-26.47-43.14.13-1.16.78-2.2,1.76-2.83,21.46-13.77,40.27-10.92,52.26-6.1,19.73,7.92,33.39,25.87,36.68,39.51.31,1.28-.05,2.62-.95,3.58-9.76,10.34-23.46,14.67-36.94,14.67Zm-45.25-46.11c-.84,14.11,7.34,26.5,22.18,33.39,15.81,7.34,38.66,7.57,52.84-5.75-3.62-11.2-15.34-25.61-31.45-32.08-10.01-4.02-25.58-6.41-43.57,4.43Z"/>
      </g>
      <g>
        <g>
          <circle class="cls-1" cx="178.85" cy="251.8" r="27.85"/>
          <path class="cls-6" d="m178.85,283.53c-17.5,0-31.73-14.23-31.73-31.73s14.23-31.73,31.73-31.73,31.73,14.23,31.73,31.73-14.23,31.73-31.73,31.73Zm0-55.7c-13.22,0-23.97,10.75-23.97,23.97s10.75,23.97,23.97,23.97,23.97-10.75,23.97-23.97-10.75-23.97-23.97-23.97Z"/>
        </g>
        <g>
          <circle class="cls-1" cx="131.49" cy="255.68" r="27.85"/>
          <path class="cls-6" d="m131.49,287.42c-17.5,0-31.73-14.23-31.73-31.73s14.23-31.73,31.73-31.73,31.73,14.23,31.73,31.73-14.23,31.73-31.73,31.73Zm0-55.7c-13.21,0-23.97,10.75-23.97,23.97s10.75,23.97,23.97,23.97,23.97-10.75,23.97-23.97-10.75-23.97-23.97-23.97Z"/>
        </g>
        <g>
          <circle class="cls-1" cx="202.92" cy="293.73" r="27.85" transform="translate(-129.57 423.73) rotate(-76.72)"/>
          <path class="cls-6" d="m202.92,325.46c-17.5,0-31.73-14.23-31.73-31.73s14.23-31.73,31.73-31.73,31.73,14.23,31.73,31.73-14.23,31.73-31.73,31.73Zm0-55.7c-13.21,0-23.97,10.75-23.97,23.97s10.75,23.97,23.97,23.97,23.97-10.75,23.97-23.97-10.75-23.97-23.97-23.97Z"/>
        </g>
        <g>
          <circle class="cls-1" cx="158.67" cy="287.52" r="27.85"/>
          <path class="cls-6" d="m158.67,319.25c-17.5,0-31.73-14.23-31.73-31.73s14.23-31.73,31.73-31.73,31.73,14.23,31.73,31.73-14.23,31.73-31.73,31.73Zm0-55.7c-13.21,0-23.97,10.75-23.97,23.97s10.75,23.97,23.97,23.97,23.97-10.75,23.97-23.97-10.75-23.97-23.97-23.97Z"/>
        </g>
        <g>
          <circle class="cls-1" cx="95.78" cy="278.98" r="27.85"/>
          <path class="cls-6" d="m95.78,310.71c-17.5,0-31.73-14.23-31.73-31.73s14.23-31.73,31.73-31.73,31.73,14.24,31.73,31.73-14.23,31.73-31.73,31.73Zm0-55.7c-13.21,0-23.97,10.75-23.97,23.97s10.75,23.97,23.97,23.97,23.97-10.75,23.97-23.97-10.75-23.97-23.97-23.97Z"/>
        </g>
        <g>
          <path class="cls-1" d="m105,407.85c0,15.38-12.47,27.85-27.85,27.85s-27.85-12.47-27.85-27.85,12.47-27.85,27.85-27.85,27.85,12.47,27.85,27.85Z"/>
          <path class="cls-6" d="m77.15,439.59c-17.5,0-31.73-14.23-31.73-31.73s14.23-31.73,31.73-31.73,31.73,14.24,31.73,31.73-14.23,31.73-31.73,31.73Zm0-55.7c-13.21,0-23.97,10.75-23.97,23.97s10.75,23.97,23.97,23.97,23.97-10.75,23.97-23.97-10.75-23.97-23.97-23.97Z"/>
        </g>
        <g>
          <circle class="cls-1" cx="87.24" cy="322.45" r="27.85"/>
          <path class="cls-6" d="m87.24,354.19c-17.5,0-31.73-14.23-31.73-31.73s14.23-31.73,31.73-31.73,31.73,14.24,31.73,31.73-14.24,31.73-31.73,31.73Zm0-55.7c-13.21,0-23.97,10.75-23.97,23.97s10.75,23.97,23.97,23.97,23.97-10.75,23.97-23.97-10.75-23.97-23.97-23.97Z"/>
        </g>
        <g>
          <path class="cls-1" d="m111.7,362.71c0,15.38-12.47,27.85-27.85,27.85s-27.85-12.47-27.85-27.85,12.47-27.85,27.85-27.85,27.85,12.47,27.85,27.85Z"/>
          <path class="cls-6" d="m83.85,394.44c-17.5,0-31.73-14.23-31.73-31.73s14.23-31.73,31.73-31.73,31.73,14.23,31.73,31.73-14.23,31.73-31.73,31.73Zm0-55.7c-13.21,0-23.97,10.75-23.97,23.97s10.75,23.97,23.97,23.97,23.97-10.75,23.97-23.97-10.75-23.97-23.97-23.97Z"/>
        </g>
        <g>
          <circle class="cls-1" cx="130.72" cy="302.27" r="27.85"/>
          <path class="cls-6" d="m130.71,334c-17.5,0-31.73-14.23-31.73-31.73s14.23-31.73,31.73-31.73,31.73,14.23,31.73,31.73-14.23,31.73-31.73,31.73Zm0-55.7c-13.21,0-23.97,10.75-23.97,23.97s10.75,23.97,23.97,23.97,23.97-10.75,23.97-23.97-10.75-23.97-23.97-23.97Z"/>
        </g>
        <g>
          <circle class="cls-1" cx="206.02" cy="336.43" r="27.85" transform="translate(-159.06 485.9) rotate(-80.78)"/>
          <path class="cls-6" d="m206.03,368.16c-17.5,0-31.73-14.23-31.73-31.73s14.23-31.73,31.73-31.73,31.73,14.23,31.73,31.73-14.23,31.73-31.73,31.73Zm0-55.7c-13.21,0-23.97,10.75-23.97,23.97s10.75,23.97,23.97,23.97,23.97-10.75,23.97-23.97-10.75-23.97-23.97-23.97Z"/>
        </g>
        <g>
          <circle class="cls-1" cx="170.31" cy="325.56" r="27.85" transform="translate(-178.32 441.52) rotate(-80.78)"/>
          <path class="cls-6" d="m170.31,357.29c-17.5,0-31.73-14.23-31.73-31.73s14.24-31.73,31.73-31.73,31.73,14.23,31.73,31.73-14.23,31.73-31.73,31.73Zm0-55.7c-13.22,0-23.97,10.75-23.97,23.97s10.75,23.97,23.97,23.97,23.97-10.75,23.97-23.97-10.75-23.97-23.97-23.97Z"/>
        </g>
        <g>
          <circle class="cls-1" cx="164.88" cy="364.38" r="27.85"/>
          <path class="cls-6" d="m164.88,396.11c-17.5,0-31.73-14.23-31.73-31.73s14.23-31.73,31.73-31.73,31.73,14.24,31.73,31.73-14.23,31.73-31.73,31.73Zm0-55.7c-13.21,0-23.97,10.75-23.97,23.97s10.75,23.97,23.97,23.97,23.97-10.75,23.97-23.97-10.75-23.97-23.97-23.97Z"/>
        </g>
        <g>
          <circle class="cls-1" cx="122.95" cy="389.22" r="27.85" transform="translate(-284.1 419.46) rotate(-76.72)"/>
          <path class="cls-6" d="m122.95,420.95c-17.5,0-31.73-14.23-31.73-31.73s14.23-31.73,31.73-31.73,31.73,14.23,31.73,31.73-14.23,31.73-31.73,31.73Zm0-55.7c-13.22,0-23.97,10.75-23.97,23.97s10.75,23.97,23.97,23.97,23.97-10.75,23.97-23.97-10.75-23.97-23.97-23.97Z"/>
        </g>
        <g>
          <circle class="cls-1" cx="127.61" cy="345.74" r="27.85"/>
          <path class="cls-6" d="m127.61,377.48c-17.5,0-31.73-14.23-31.73-31.73s14.24-31.73,31.73-31.73,31.73,14.23,31.73,31.73-14.23,31.73-31.73,31.73Zm0-55.7c-13.22,0-23.97,10.75-23.97,23.97s10.75,23.97,23.97,23.97,23.97-10.75,23.97-23.97-10.75-23.97-23.97-23.97Z"/>
        </g>
      </g>
    </g>
  </g>
</svg>