<?xml version="1.0" encoding="UTF-8"?>
<svg id="Layer_2" data-name="Layer 2" xmlns="http://www.w3.org/2000/svg" viewBox="0 0 403.17 491.95">
  <defs>
    <style>
      .cls-1 {
        fill: #c5a6fb;
      }

      .cls-1, .cls-2, .cls-3, .cls-4, .cls-5, .cls-6, .cls-7, .cls-8 {
        stroke-width: 0px;
      }

      .cls-2 {
        fill: #9bd9e1;
      }

      .cls-3 {
        fill: #f7ca94;
      }

      .cls-4 {
        fill: #fc908a;
      }

      .cls-5 {
        fill: #88cf8d;
      }

      .cls-6 {
        fill: #fff;
      }

      .cls-7 {
        fill: #ed5347;
      }

      .cls-8 {
        fill: #73371a;
      }
    </style>
  </defs>
  <g id="objects">
    <g>
      <g>
        <path class="cls-4" d="m292.38,113.65c46.57-5.49,72.61-36.49,67.11-60.15-5.5-23.66-26.78-26.48-48.07-6.39-7.45-28.31-27-37.17-44.18-20-17.18,17.17-11.47,57.26,25.14,86.55Z"/>
        <path class="cls-8" d="m292.38,117.54c-.87,0-1.73-.3-2.42-.85-21.56-17.25-34.61-39.56-35.81-61.24-.7-12.68,2.98-23.72,10.35-31.08,8.28-8.27,17.72-11.51,26.57-9.11,9.6,2.6,17.54,11.59,22.31,25.02,11.15-8.88,22.68-12.3,32.16-9.43,8.79,2.65,15.08,10.39,17.74,21.79,2.35,10.15-.36,21.46-7.67,31.85-12.48,17.76-35.36,29.81-62.77,33.04-.15.02-.3.03-.46.03Zm-7.14-95.29c-5.02,0-10.22,2.58-15.26,7.61-5.79,5.78-8.65,14.72-8.08,25.16,1.04,18.77,12.83,39.07,31.64,54.58,24.17-3.22,44.91-14.21,55.72-29.59,6.01-8.56,8.31-17.66,6.45-25.63-2.02-8.7-6.32-14.27-12.41-16.11-8.17-2.46-18.76,1.81-29.21,11.67-.99.94-2.41,1.29-3.73.91-1.32-.38-2.34-1.42-2.69-2.74-3.66-13.9-10.44-23.14-18.63-25.35-1.25-.34-2.51-.5-3.8-.5Z"/>
      </g>
      <g>
        <path class="cls-5" d="m145.18,137.6C97.05,58.41,3.88,118.97,3.88,118.97c0,0,71.43,86.95,141.3,18.63Z"/>
        <path class="cls-8" d="m87.34,167.67c-1.4,0-2.82-.04-4.23-.12C37.22,165.05,2.34,123.21.88,121.43c-.7-.85-1-1.97-.84-3.06.17-1.09.8-2.06,1.73-2.66,1.95-1.27,48.29-30.93,93.6-20.61,21.97,5.01,39.84,18.63,53.12,40.48.94,1.54.69,3.53-.6,4.79-18.54,18.13-38.89,27.3-60.56,27.3ZM9.92,119.9c9.24,9.88,38.51,38.01,73.64,39.91,20.06,1.09,39.15-6.59,56.64-22.83-11.95-18.43-27.58-29.97-46.52-34.3-34.9-7.97-71.86,10.49-83.76,17.22Z"/>
      </g>
      <g>
        <path class="cls-5" d="m70.65,33.57c6.21,111.8,57.45,114.9,94.72,121.11,26.4-71.43-31.06-116.46-94.72-121.11Z"/>
        <path class="cls-8" d="m165.37,158.56c-.21,0-.43-.02-.64-.05l-4.98-.81c-36.66-5.88-86.86-13.93-92.97-123.92-.06-1.12.36-2.2,1.15-2.99.8-.78,1.9-1.19,3.01-1.1,40.42,2.96,74.99,20.95,92.48,48.12,14.34,22.28,16.27,49.32,5.59,78.22-.57,1.54-2.04,2.54-3.64,2.54ZM74.8,37.83c6.79,99.47,50.75,106.53,86.17,112.21l1.82.3c8.59-25.37,6.57-48.94-5.9-68.32-15.54-24.15-46.01-40.48-82.09-44.19Z"/>
      </g>
      <path class="cls-6" d="m225.7,245.02c81.24,0,119.62-13.46,135.72-21.92,1.04-6.73,3.42-31.21-14.29-43.09-7.24,1.91-35.54,8.83-65.24,8.83-12.17,0-24.56-1.16-35.84-4.3-2.07-.57-3.27-2.72-2.7-4.78.58-2.07,2.72-3.27,4.78-2.7,37.55,10.46,90.4-2.8,97.74-4.75,9.83-8.68,12.57-27.32,6.16-42.92-3.38-8.23-14.3-26.98-43.01-24.69-4.39,2.31-26.85,13.7-55.9,20.65-14.71,3.52-28.65,5.27-41.64,5.27-24.35,0-45.38-6.16-62.04-18.32-3.98-1.79-10.95-.89-15.54,3.76-5.77,5.83-5.92,15.54-.51,27.5,43.75-2.18,83.55,22.91,85.25,24.01,1.81,1.16,2.33,3.55,1.18,5.36-.74,1.16-1.99,1.79-3.27,1.79-.72,0-1.44-.2-2.09-.61-.41-.26-41-25.83-83.17-22.65-.1,0-.2,0-.31,0-.06,0-.12.02-.18.02-6.31-.32-20.32,3.97-30.96,16.8-8.04,9.69-16.18,27.02-9.98,54.79,16.04,8.46,54.4,21.98,135.82,21.98Z"/>
      <path class="cls-6" d="m303.98,98.55c-.45-6.89-3.71-27.59-26.25-34.48-5-1.53-10.46-2.84-16.24-4.22-26.65-6.4-59.51-14.29-61.23-50.56-16.25,6.62-36.72,25.07-46.46,48.02-5.18,12.2-9.2,30.54.6,48.97,52.77,38.09,135.45-.62,149.59-7.73Z"/>
      <path class="cls-8" d="m174.68,420.2c24.84,6.21,43.48-13.97,65.22-21.74,21.74-6.21,34.16,13.97,52.79,18.63,9.29,2.02,17.73,1.29,25.64-1.11,12.72-16.65,23.68-37.54,32.84-62.65,5.16-14.15,9.21-28.33,12.4-41.64-18.29,6.81-35.52,21.86-52.24,32.43-23.29,15.53-37.27-18.63-62.11-23.29-7.76-1.55-17.08-3.11-24.84,1.55-26.4,13.97-52.79,37.27-83.85,18.63-16.97-11.75-32.85-31.18-54.09-28.76,3.18,13.2,7.2,27.24,12.32,41.23,4.49,12.29,9.42,23.55,14.77,33.81.7.03,1.42.12,2.16.3,23.29,6.21,35.71,27.95,59,32.61Z"/>
      <path class="cls-7" d="m292.69,417.09c-18.63-4.66-31.05-24.84-52.79-18.63-21.74,7.76-40.37,27.95-65.22,21.74-23.29-4.66-35.71-26.4-59-32.61-.74-.19-1.46-.28-2.16-.3,26.73,51.3,64.08,77.27,111.42,77.27,37.5,0,68.75-16.3,93.4-48.58-7.91,2.4-16.35,3.13-25.64,1.11Z"/>
      <path class="cls-3" d="m224.93,272.44c-92.24,0-134.17-16.24-149.23-24.24,1.1,11.74,3.98,35.98,10.73,64.05,21.24-2.42,37.12,17.01,54.09,28.76,31.06,18.63,57.45-4.66,83.85-18.63,7.76-4.66,17.08-3.11,24.84-1.55,24.84,4.66,38.82,38.82,62.11,23.29,16.73-10.56,33.95-25.61,52.24-32.43,6.66-27.84,9.51-51.84,10.6-63.49-15.07,8.01-56.99,24.24-149.24,24.24Z"/>
      <path class="cls-2" d="m368.2,198.05c1.85,7.33,1.98,14.47,1.63,19.78,1.12-.88,1.64-1.4,1.67-1.44,1.45-1.56,3.89-1.68,5.47-.25,1.57,1.43,1.72,3.85.3,5.44-1.13,1.27-29.14,31.2-151.57,31.2s-150.44-29.93-151.57-31.2c-1.42-1.6-1.28-4.06.32-5.48,1.59-1.42,4.03-1.28,5.46.3.04.05.36.37,1,.9-1.02-6.88-1.21-13.13-.78-18.8-7.75,1.28-24.14,5.21-24.14,15.52,0,7.59.64,76.03,22.74,142.34,28.28,84.82,77.72,127.83,146.96,127.83s118.68-43.01,146.96-127.83c22.11-66.31,22.75-134.75,22.75-142.34,0-12.06-22.42-15.39-27.21-15.97Zm-9.73,157.94c-27.76,76.11-73.94,116.34-133.53,116.34s-105.77-40.23-133.53-116.34c-20.71-56.78-24.03-114.33-24.06-114.91-.08-1.53.75-2.97,2.12-3.67,1.37-.7,3.02-.52,4.21.45.32.25,34.92,26.81,151.26,26.81s150.93-26.54,151.26-26.81c1.19-.97,2.85-1.15,4.21-.45,1.37.7,2.2,2.13,2.12,3.67-.03.57-3.35,58.13-24.06,114.91Z"/>
      <path class="cls-8" d="m367.91,190.21c-.8-.06-1.55.12-2.2.49-2.45-5.62-6.19-11.02-11.83-15.42,10.03-11.6,12.44-31.57,5.35-48.84-7.99-19.45-25.61-30.33-47.65-29.67-1-9.5-6.08-32.33-31.57-40.12-5.23-1.6-10.8-2.93-16.7-4.35-27.81-6.67-56.57-13.58-55.31-48.27.04-1.23-.5-2.41-1.46-3.18s-2.24-1.03-3.43-.71c-18.33,4.95-44.35,25.61-56.45,54.14-7.32,17.27-7.99,34.18-2.02,49.38-5.81.11-11.91,2.56-16.23,6.94-4.6,4.65-10.68,14.95-3.19,33.52-9.72,1.69-22.13,8.1-31.31,19.18-5.14,6.2-10.33,15.1-12.67,27.16-7.86,1.01-32.98,5.63-32.98,23.55,0,7.72.65,77.32,23.14,144.79,12.91,38.73,30.62,69.55,52.62,91.63,27.46,27.54,61.68,41.51,101.7,41.51s74.24-13.97,101.7-41.51c22.01-22.08,39.71-52.91,52.62-91.63,22.5-67.47,23.14-137.08,23.14-144.79,0-20.79-33.83-23.69-35.27-23.8ZM153.79,57.31c9.74-22.96,30.21-41.4,46.46-48.02,1.73,36.27,34.58,44.16,61.23,50.56,5.78,1.39,11.24,2.7,16.24,4.22,22.54,6.89,25.8,27.59,26.25,34.48-14.13,7.11-96.81,45.82-149.59,7.73-9.8-18.43-5.78-36.77-.6-48.97Zm-53.93,110.94c10.64-12.84,24.65-17.12,30.96-16.8.06,0,.12-.02.18-.02.1,0,.2.02.31,0,42.17-3.18,82.76,22.39,83.17,22.65.65.41,1.37.61,2.09.61,1.28,0,2.53-.63,3.27-1.79,1.15-1.81.63-4.2-1.18-5.36-1.71-1.09-41.51-26.19-85.25-24.01-5.42-11.96-5.26-21.67.51-27.5,4.59-4.64,11.56-5.54,15.54-3.76,16.66,12.16,37.69,18.32,62.04,18.32,12.99,0,26.93-1.75,41.64-5.27,29.05-6.95,51.51-18.34,55.9-20.65,28.71-2.29,39.63,16.46,43.01,24.69,6.41,15.6,3.67,34.25-6.16,42.92-7.33,1.94-60.19,15.21-97.74,4.75-2.06-.57-4.21.63-4.78,2.7-.58,2.07.63,4.21,2.7,4.78,11.28,3.14,23.67,4.3,35.84,4.3,29.7,0,58-6.92,65.24-8.83,17.71,11.88,15.33,36.36,14.29,43.09-16.1,8.46-54.48,21.92-135.72,21.92s-119.79-13.52-135.82-21.98c-6.19-27.77,1.95-45.1,9.98-54.79Zm272.8,188.1c-28.28,84.82-77.72,127.83-146.96,127.83s-118.68-43.01-146.96-127.83c-22.11-66.31-22.74-134.75-22.74-142.34,0-10.31,16.39-14.24,24.14-15.52-.43,5.67-.24,11.93.78,18.8-.64-.54-.96-.86-1-.9-1.43-1.58-3.86-1.71-5.46-.3-1.6,1.42-1.75,3.88-.32,5.48,1.13,1.27,29.14,31.2,151.57,31.2s150.44-29.93,151.57-31.2c1.41-1.59,1.27-4.01-.3-5.44-1.58-1.43-4.02-1.31-5.47.25-.04.04-.55.56-1.67,1.44.35-5.31.22-12.45-1.63-19.78,4.79.57,27.21,3.9,27.21,15.97,0,7.59-.64,76.03-22.75,142.34Z"/>
      <path class="cls-8" d="m380.4,237.41c-1.37-.7-3.02-.52-4.21.45-.33.27-34.18,26.81-151.26,26.81s-150.94-26.56-151.26-26.81c-1.19-.97-2.84-1.15-4.21-.45-1.37.7-2.2,2.13-2.12,3.67.03.57,3.35,58.13,24.06,114.91,27.76,76.11,73.94,116.34,133.53,116.34s105.77-40.23,133.53-116.34c20.71-56.78,24.03-114.33,24.06-114.91.08-1.53-.75-2.97-2.12-3.67Zm-29.23,115.92c-26.92,73.81-69.4,111.23-126.24,111.23s-99.26-37.38-126.19-111.09c-15.98-43.75-21.43-88.02-23.05-105.28,15.06,8,56.99,24.24,149.23,24.24s134.17-16.24,149.24-24.24c-1.61,17.23-7.04,61.39-23,105.13Z"/>
      <g>
        <path class="cls-1" d="m148.4,149.46c0,19.38-15.71,35.08-35.08,35.08s-35.08-15.71-35.08-35.08,15.71-35.08,35.08-35.08,35.08,15.71,35.08,35.08Z"/>
        <path class="cls-8" d="m113.32,188.42c-21.48,0-38.96-17.48-38.96-38.97s17.48-38.96,38.96-38.96,38.96,17.48,38.96,38.96-17.48,38.97-38.96,38.97Zm0-70.16c-17.2,0-31.2,13.99-31.2,31.2s13.99,31.2,31.2,31.2,31.2-14,31.2-31.2-13.99-31.2-31.2-31.2Z"/>
      </g>
      <path class="cls-8" d="m128.39,114.48c-1.28,0-2.53-.63-3.27-1.79l-34.45-53.74c-1.16-1.81-.63-4.21,1.17-5.36,1.81-1.16,4.21-.62,5.36,1.17l34.45,53.74c1.16,1.81.63,4.21-1.17,5.36-.65.42-1.37.61-2.09.61Z"/>
      <path class="cls-8" d="m78.42,135.27c-.19,0-.38-.01-.57-.04l-41.93-6.21c-2.12-.31-3.59-2.29-3.27-4.41.31-2.12,2.34-3.62,4.41-3.27l41.93,6.21c2.12.31,3.59,2.29,3.27,4.41-.28,1.93-1.94,3.31-3.83,3.31Z"/>
    </g>
  </g>
</svg>