<?xml version="1.0" encoding="UTF-8"?>
<svg id="Layer_2" data-name="Layer 2" xmlns="http://www.w3.org/2000/svg" viewBox="0 0 412.43 566.67">
  <defs>
    <style>
      .cls-1 {
        fill: #c5a6fb;
      }

      .cls-1, .cls-2, .cls-3, .cls-4, .cls-5, .cls-6, .cls-7, .cls-8, .cls-9 {
        stroke-width: 0px;
      }

      .cls-2 {
        fill: #9bd9e1;
      }

      .cls-3 {
        fill: #f7ca94;
      }

      .cls-4 {
        fill: #88cf8d;
      }

      .cls-5 {
        fill: #c98e73;
      }

      .cls-6 {
        fill: #fff;
      }

      .cls-7 {
        fill: #c96f3e;
      }

      .cls-8 {
        fill: #73371a;
      }

      .cls-9 {
        fill: #fc6b60;
      }
    </style>
  </defs>
  <g id="objects">
    <g>
      <path class="cls-3" d="m214.04,224.75c-2.24-7.27-2.21-14.86-.18-22.14-13.92-19.93-36.59-31.81-60.91-31.81-40.95,0-74.27,33.32-74.27,74.27,0,8.08,1.3,16,3.83,23.58,4.51-.11,9.47.19,14.9,1.07,12.07,1.95,20.35,7.77,28.35,13.4,7.8,5.48,15.17,10.66,26.01,12.47,9.52,1.58,17.55-5.08,26.86-12.8.12-.1.24-.2.37-.3-6.64-14-6.34-28.32.89-39.45,6.96-10.71,19.17-17.15,34.15-18.28Z"/>
      <path class="cls-4" d="m71.12,179.57c-.15,0-.29,0-.44-.01-.34-.04-32.39-3.9-61,10.4,21.35,27.84,46.89,35.03,64.49,32.29,2.78-9.6,7.26-18.48,13.1-26.28-4.79-3.05-10.6-8.74-16.15-16.4Z"/>
      <path class="cls-5" d="m139.67,164.12c4.32-.71,8.75-1.09,13.27-1.09,25.18,0,48.75,11.52,64.27,31.08,4-7.75,10.37-14.81,18.75-20.3,10.18-6.67,24.37-11.16,39.51-9.21-3.63-34.35-33.22-61.09-67.92-61.09s-64.02,26.42-67.88,60.61Z"/>
      <path class="cls-4" d="m92.26,189.92c10.43-11.46,24.05-19.95,39.44-24.08.28-3.59.81-7.1,1.57-10.53-.21-.18-.4-.39-.56-.62-.31-.43-22.04-29.48-73.61-30.45,1.55,32.28,21.87,59.5,33.16,65.69Z"/>
      <path class="cls-9" d="m135.86,146.41c6.38-17.86,19.27-32.62,35.69-41.51-7.69-10.18-16.01-8.06-28.52-3.83-3.99,1.35-8.11,2.74-12.23,3.43-17.1,2.85-25.25,10.17-24.28,21.75,15.37,6.74,24.83,15.31,29.33,20.17Z"/>
      <path class="cls-7" d="m277.69,142.32c4.4-4.89,10.04-8.41,16.28-10.23,0,0,0-.01,0-.02,1.04-2.93,1.56-6.01,1.56-9.16,0-15.13-12.31-27.43-27.43-27.43-8.63,0-16.67,4.02-21.85,10.85,4.55,2.69,8.86,5.86,12.82,9.51,8.13,7.48,14.42,16.52,18.61,26.48Z"/>
      <path class="cls-7" d="m280.85,150.87s-.07.09-.11.13c1.3,4.57,2.17,9.28,2.6,14.09.03.37,0,.73-.07,1.08,7.77,2.15,15.64,6.13,23.23,12.5,7.46-6.95,15.71-10.22,24.56-9.71.11-1.02.19-2.05.19-3.09,0-15.13-12.31-27.43-27.43-27.43-9.29,0-17.87,4.65-22.97,12.43Z"/>
      <path class="cls-1" d="m302.4,130.73c.47-.02.94-.04,1.42-.04,3.02,0,5.96.38,8.76,1.1l70.47-113.95c-4.45-4.37-12.84-10.94-19.68-9.99l-64.89,97.33c3.06,5.21,4.82,11.27,4.82,17.74,0,2.65-.32,5.26-.9,7.81Z"/>
      <path class="cls-6" d="m396.2,217.16c-7.33,2.36-18.67.94-26.51-10.83-9.03-13.54-23.89-28.43-38.52-29.59-7.64-.6-14.85,2.65-21.44,9.67-6.44,9.64-7.09,22.92-1.65,34.74,5.82,12.67,17.45,21.13,31.11,22.65,2.13.24,3.67,2.16,3.43,4.29-.22,1.99-1.9,3.45-3.85,3.45-.14,0-.29,0-.43-.02-16.39-1.82-30.33-11.96-37.3-27.12-6.08-13.23-5.77-28.1.63-39.65-21.97-18.51-46.63-14.14-61.43-4.44-13.6,8.91-24.56,25.76-18.4,43.29.12.34.17.69.19,1.04,18,.84,30.01,12.34,40.6,22.49,10.81,10.36,19.35,18.54,31.56,14.92,2.06-.6,4.22.56,4.83,2.62.61,2.05-.56,4.22-2.62,4.83-16.55,4.89-28.03-6.11-39.14-16.76-10.08-9.67-20.51-19.66-35.63-20.35-15.77-.69-28.6,4.7-35.21,14.88-5.53,8.5-5.91,19.13-1.18,30.18,9.24-7.2,19.93-13.73,34.24-13.73,17.83,0,30.05,10.14,40.83,19.08,9.3,7.72,17.34,14.39,26.86,12.8,10.85-1.81,18.21-6.99,26.01-12.47,8-5.63,16.28-11.45,28.35-13.4,11.33-1.83,20.75-1.28,27.9.72-.34-4.23-1.33-10.99-4.22-18.24-.49-1.22-.33-2.59.42-3.67.75-1.07,1.97-1.72,3.3-1.66,9.3.3,23.88-6.01,31.08-16.68,3.77-5.57,5.27-11.72,4.51-18.36-2.13,2.39-4.94,4.23-8.29,5.31Z"/>
      <path class="cls-2" d="m342.74,277.38c-10.31,1.67-17.5,6.73-25.12,12.08-8.17,5.74-16.61,11.68-29.2,13.78-13.01,2.17-22.77-5.92-33.09-14.48-10.25-8.5-20.84-17.29-35.87-17.29s-25.62,8.79-35.87,17.29c-10.32,8.57-20.07,16.65-33.09,14.48-12.59-2.1-21.04-8.04-29.2-13.78-7.62-5.36-14.82-10.42-25.12-12.08-4.31-.7-8.26-1-11.82-1-13.89,0-21.84,4.59-22.59,8.08-.05,1.28,3.05,5.73,5.77,9.64,7.44,10.69,19.9,28.58,29.85,60.26.73,2.33,1.46,4.68,2.19,7.06,14.53,46.99,30.99,100.25,119.88,100.25s105.35-53.26,119.88-100.25c.73-2.37,1.46-4.72,2.19-7.06,9.94-31.68,22.4-49.57,29.85-60.26,2.73-3.92,5.82-8.36,5.77-9.7-.93-4.33-13.24-10.45-34.4-7.03Zm14.09,16.79c.17,1.13-.16,2.28-.91,3.14-19.07,21.87-25.2,45.66-30.61,66.65-1.89,7.35-3.68,14.29-5.91,20.73-11.18,32.31-31.79,65.34-99.94,65.34s-88.76-33.03-99.94-65.34c-2.23-6.44-4.02-13.38-5.91-20.73-5.41-20.99-11.55-44.78-30.61-66.65-.75-.86-1.08-2.01-.91-3.14.17-1.13.83-2.12,1.81-2.72,12.73-7.81,26.87.79,40.53,9.1,10.34,6.29,21.05,12.78,31.03,12.58,11.87-.25,22.85-8.37,33.47-16.22,10.32-7.63,20.07-14.84,30.53-14.84s20.2,7.21,30.53,14.84c10.62,7.85,21.61,15.97,33.47,16.22,9.95.22,20.69-6.29,31.03-12.58,13.67-8.32,27.8-16.91,40.53-9.1.97.6,1.63,1.59,1.81,2.72Z"/>
      <path class="cls-2" d="m219.45,469.44c-5.94,0-11.62-.25-17.1-.71,3.79,14.49,2.72,30.09,2.4,33.72.61,1.8,3.49,7.74,14.7,7.74s14.06-5.88,14.7-7.76c-.32-3.66-1.38-19.23,2.4-33.71-5.48.45-11.17.71-17.1.71Z"/>
      <path class="cls-2" d="m219.45,517.96c-12.47,0-18.78-6.17-21.27-11.15-27.33,1.84-58.04,19.84-60.78,25.45,1.44,4.05,22.15,26.64,82.05,26.64s80.56-22.54,82.05-26.65c-2.76-5.62-33.45-23.61-60.78-25.45-2.5,4.99-8.81,11.15-21.27,11.15Z"/>
      <path class="cls-9" d="m318.52,307.18c-11.29,6.87-22.96,13.91-35.23,13.71-14.33-.3-26.87-9.56-37.93-17.74-9.26-6.85-18.02-13.32-25.91-13.32s-16.65,6.47-25.91,13.32c-11.06,8.17-23.59,17.44-37.93,17.74-12.28.21-23.94-6.85-35.23-13.71-10.69-6.5-20.17-12.26-28.06-10.8,12.9,16.19,19.53,32.96,24.25,48.87,14.34,1.32,26.7,14.89,40,20.93,6.21,1.55,12.42,0,18.63-1.55,17.08-7.76,34.16-18.63,52.79-12.42,15.53,4.66,32.61,17.08,48.14,9.32,14.65-6.84,30.52-15.51,46.47-17.15,4.7-15.65,11.31-32.1,23.98-48-7.91-1.48-17.37,4.3-28.06,10.8Z"/>
      <path class="cls-9" d="m265.26,406.55c-26.4-20.19-54.35-15.53-80.74,0-9.32,6.21-20.19,0-29.5-4.66-8.83-4.41-16.87-13.53-26.92-16.21,7.3,20.48,23.65,56.58,91.36,56.58,57.07,0,77.64-25.64,87.07-45.97-15.6,3.55-29.77,18.88-41.27,10.25Z"/>
      <path class="cls-6" d="m317.79,362.02c1.47-5.71,3-11.62,4.81-17.64-15.95,1.64-31.82,10.31-46.47,17.15-15.53,7.76-32.61-4.66-48.14-9.32-18.63-6.21-35.71,4.66-52.79,12.42-6.21,1.55-12.42,3.11-18.63,1.55-13.3-6.04-25.65-19.61-40-20.93,1.7,5.73,3.15,11.34,4.55,16.77,1.85,7.19,3.6,13.98,5.73,20.13.38,1.11.8,2.3,1.24,3.54,10.05,2.68,18.09,11.79,26.92,16.21,9.32,4.66,20.19,10.87,29.5,4.66,26.4-15.53,54.35-20.19,80.74,0,11.5,8.63,25.67-6.71,41.27-10.25,2.44-5.25,4.14-10.15,5.53-14.15,2.13-6.14,3.88-12.94,5.73-20.13Z"/>
      <path class="cls-8" d="m314.49,300.55c-10.34,6.29-21.08,12.8-31.03,12.58-11.87-.25-22.85-8.37-33.47-16.22-10.32-7.63-20.07-14.84-30.53-14.84s-20.2,7.21-30.53,14.84c-10.62,7.85-21.61,15.97-33.47,16.22-9.98.2-20.69-6.29-31.03-12.58-13.67-8.31-27.8-16.91-40.53-9.1-.97.6-1.63,1.59-1.81,2.72-.17,1.13.16,2.28.91,3.14,19.07,21.87,25.2,45.66,30.61,66.65,1.89,7.35,3.68,14.29,5.91,20.73,11.18,32.31,31.79,65.34,99.94,65.34s88.76-33.03,99.94-65.34c2.23-6.44,4.02-13.38,5.91-20.73,5.41-20.99,11.55-44.78,30.61-66.65.75-.86,1.08-2.01.91-3.14-.17-1.13-.83-2.12-1.81-2.72-12.73-7.81-26.87.78-40.53,9.1Zm3.3,61.47c-1.85,7.19-3.6,13.98-5.73,20.13-6.75,19.51-20.8,60.12-92.6,60.12s-85.85-40.6-92.6-60.12c-2.13-6.14-3.88-12.94-5.73-20.13-5.29-20.53-11.25-43.62-28.8-65.64,7.9-1.46,17.37,4.3,28.06,10.8,11.29,6.87,22.94,13.92,35.23,13.71,14.33-.3,26.87-9.56,37.93-17.74,9.26-6.85,18.02-13.32,25.91-13.32s16.65,6.47,25.91,13.32c11.06,8.17,23.59,17.44,37.93,17.74,12.27.2,23.94-6.85,35.23-13.71,10.69-6.5,20.16-12.28,28.06-10.8-17.55,22.02-23.51,45.12-28.8,65.64Z"/>
      <path class="cls-8" d="m408.56,197.97c-.75-1.71-2.6-2.64-4.42-2.23-1.82.41-3.08,2.06-3.02,3.92.2,5.66-3.65,8.93-7.31,10.11-4.75,1.54-12.23.42-17.67-7.74-4.35-6.52-18.82-26.29-37.44-31.72.18-1.47.31-2.95.31-4.43,0-13.59-7.75-25.4-19.06-31.26l71.27-115.24c.9-1.45.74-3.31-.38-4.6-.66-.75-16.29-18.38-30.92-14.11-.88.26-1.64.81-2.14,1.57l-64.25,96.38c-6.41-6.71-15.43-10.89-25.42-10.89-11.51,0-22.19,5.58-28.79,14.97-9.87-4.54-20.67-6.95-31.77-6.95-10.18,0-19.93,2.05-28.87,5.75-11.67-16.72-26.31-11.79-38.13-7.79-3.87,1.31-7.52,2.54-11.02,3.12-19.54,3.26-30.28,12.54-30.82,26.35-11.67-4.06-26.1-6.88-43.62-6.73-2.13.02-3.85,1.75-3.85,3.88,0,19.49,6.43,37.34,14.52,51.06-11.79-.58-39.15-.08-63.8,13.88-.96.54-1.64,1.46-1.88,2.53-.24,1.07-.01,2.19.62,3.09,20.86,29.39,46.44,39.66,66.35,39.66,1.78,0,3.52-.09,5.2-.25-.87,4.79-1.36,9.72-1.36,14.76,0,8.3,1.24,16.45,3.67,24.28-11.87,1.92-19.09,7.34-20.41,13.48-.93,4.33,2.05,8.62,6.99,15.71,7.19,10.32,19.22,27.6,28.81,58.15.73,2.32,1.45,4.66,2.18,7.02,7.32,23.69,15.63,50.55,33.76,70.92,16.38,18.4,38.81,29.34,68.09,33.19,3.69,11.56,3.51,25.16,3.19,31.27-25.49,1.92-55.79,16.91-64.69,26.86-2.14,2.39-3.09,4.57-2.91,6.68.85,10.01,27.91,34.02,89.86,34.02s89.01-24.01,89.86-34.02c.18-2.11-.77-4.3-2.91-6.68-8.9-9.95-39.2-24.94-64.69-26.86-.33-6.12-.5-19.71,3.19-31.27,29.28-3.85,51.71-14.79,68.09-33.19,18.13-20.38,26.44-47.23,33.76-70.92.73-2.36,1.45-4.7,2.18-7.02,9.59-30.55,21.62-47.83,28.81-58.15,4.94-7.1,7.92-11.38,6.99-15.71-.73-3.4-3.28-6.57-7.41-9.06-.03-3.08-.41-10.58-3.18-19.45,10.94-1.54,24.49-8.27,32.26-19.76,5.03-7.44,9.48-19.83,2.15-36.58Zm-77.31-32.09c0,1.03-.08,2.06-.19,3.09-8.86-.5-17.1,2.76-24.56,9.71-7.59-6.37-15.46-10.35-23.23-12.5.07-.35.11-.71.07-1.08-.42-4.8-1.3-9.51-2.6-14.09.03-.05.08-.08.11-.13,5.1-7.78,13.68-12.43,22.97-12.43,15.13,0,27.43,12.31,27.43,27.43ZM363.37,7.85c6.84-.95,15.22,5.62,19.68,9.99l-70.47,113.95c-2.8-.72-5.74-1.1-8.76-1.1-.48,0-.95.03-1.42.04.58-2.55.9-5.16.9-7.81,0-6.47-1.76-12.53-4.82-17.74L363.37,7.85Zm-95.27,87.64c15.13,0,27.43,12.31,27.43,27.43,0,3.14-.53,6.22-1.56,9.16,0,0,0,.01,0,.02-6.25,1.82-11.88,5.34-16.28,10.23-4.19-9.96-10.49-19-18.61-26.48-3.96-3.65-8.26-6.81-12.82-9.51,5.18-6.82,13.22-10.85,21.85-10.85Zm-60.56,8.02c34.7,0,64.3,26.74,67.92,61.09-15.14-1.95-29.34,2.54-39.51,9.21-8.38,5.5-14.75,12.56-18.75,20.3-15.52-19.56-39.09-31.08-64.27-31.08-4.52,0-8.95.38-13.27,1.09,3.85-34.19,33.17-60.61,67.88-60.61Zm-28.56,178.97c-.12.1-.24.2-.37.3-9.3,7.72-17.34,14.38-26.86,12.8-10.85-1.81-18.21-6.99-26.01-12.47-8-5.63-16.28-11.45-28.35-13.4-5.43-.88-10.39-1.18-14.9-1.07-2.54-7.58-3.83-15.49-3.83-23.58,0-40.95,33.32-74.27,74.27-74.27,24.32,0,47,11.88,60.91,31.81-2.04,7.29-2.06,14.88.18,22.14-14.99,1.13-27.19,7.57-34.15,18.28-7.23,11.13-7.53,25.45-.89,39.45Zm-48.18-177.99c4.11-.69,8.24-2.08,12.23-3.43,12.51-4.23,20.83-6.35,28.52,3.83-16.43,8.89-29.32,23.65-35.69,41.51-4.51-4.86-13.96-13.43-29.33-20.17-.97-11.57,7.18-18.89,24.28-21.75Zm-71.71,19.74c51.57.97,73.3,30.02,73.61,30.45.17.23.36.44.56.62-.76,3.43-1.29,6.94-1.57,10.53-15.39,4.13-29.02,12.62-39.44,24.08-11.3-6.19-31.62-33.41-33.16-65.69Zm15.06,98.02c-17.6,2.74-43.14-4.45-64.49-32.29,28.61-14.3,60.67-10.45,61-10.4.15.02.29,0,.44.01,5.55,7.65,11.36,13.34,16.15,16.4-5.85,7.8-10.32,16.69-13.1,26.28Zm227.34,310.01c-1.49,4.11-22.22,26.65-82.05,26.65s-80.61-22.6-82.05-26.64c2.73-5.61,33.45-23.62,60.78-25.45,2.5,4.99,8.81,11.15,21.27,11.15s18.78-6.17,21.27-11.15c27.32,1.83,58.02,19.83,60.78,25.45Zm-67.35-29.81c-.64,1.87-3.54,7.76-14.7,7.76s-14.09-5.95-14.7-7.74c.32-3.64,1.38-19.23-2.4-33.72,5.48.45,11.17.71,17.1.71s11.62-.25,17.1-.71c-3.78,14.48-2.73,30.05-2.4,33.71Zm142.98-218.04c.05,1.34-3.04,5.78-5.77,9.7-7.44,10.69-19.9,28.58-29.85,60.26-.73,2.33-1.46,4.68-2.19,7.06-14.53,46.99-30.99,100.25-119.88,100.25s-105.35-53.26-119.88-100.25c-.73-2.37-1.46-4.72-2.19-7.06-9.94-31.68-22.4-49.57-29.85-60.26-2.73-3.92-5.82-8.36-5.77-9.64.75-3.49,8.7-8.08,22.59-8.08,3.56,0,7.5.3,11.82,1,10.31,1.67,17.5,6.73,25.12,12.08,8.17,5.74,16.61,11.68,29.2,13.78,13.02,2.17,22.77-5.92,33.09-14.48,10.25-8.5,20.84-17.29,35.87-17.29s25.62,8.79,35.87,17.29c10.32,8.57,20.08,16.66,33.09,14.48,12.59-2.1,21.03-8.04,29.2-13.78,7.62-5.36,14.82-10.42,25.12-12.08,21.16-3.42,33.46,2.7,34.4,7.03Zm22.84-54.21c-7.21,10.67-21.78,16.98-31.08,16.68-1.33-.07-2.55.58-3.3,1.66-.75,1.07-.91,2.45-.42,3.67,2.9,7.24,3.89,14,4.22,18.24-7.15-2-16.56-2.55-27.9-.72-12.07,1.95-20.35,7.77-28.35,13.4-7.8,5.48-15.17,10.66-26.01,12.47-9.52,1.59-17.55-5.08-26.86-12.8-10.78-8.95-23-19.08-40.83-19.08-14.31,0-25,6.53-34.24,13.73-4.73-11.05-4.35-21.67,1.18-30.18,6.61-10.17,19.44-15.57,35.21-14.88,15.12.69,25.55,10.68,35.63,20.35,11.11,10.65,22.6,21.66,39.14,16.76,2.06-.61,3.23-2.77,2.62-4.83-.61-2.06-2.77-3.22-4.83-2.62-12.22,3.62-20.76-4.56-31.56-14.92-10.59-10.15-22.59-21.65-40.6-22.49-.02-.35-.07-.69-.19-1.04-6.16-17.53,4.8-34.38,18.4-43.29,14.81-9.71,39.46-14.08,61.43,4.44-6.4,11.55-6.71,26.42-.63,39.65,6.97,15.16,20.92,25.3,37.3,27.12.15.02.29.02.43.02,1.95,0,3.63-1.47,3.85-3.45.24-2.13-1.3-4.05-3.43-4.29-13.66-1.52-25.29-9.99-31.11-22.65-5.43-11.82-4.79-25.1,1.65-34.74,6.59-7.02,13.8-10.27,21.44-9.67,14.63,1.17,29.49,16.05,38.52,29.59,7.84,11.76,19.18,13.18,26.51,10.83,3.34-1.08,6.16-2.92,8.29-5.31.76,6.64-.74,12.79-4.51,18.36Z"/>
      <path class="cls-8" d="m113.87,177.52c-.93,0-1.86-.33-2.6-1l-40.37-36.49c-1.59-1.44-1.71-3.89-.28-5.48,1.44-1.59,3.9-1.71,5.48-.28l40.37,36.49c1.59,1.44,1.71,3.89.28,5.48-.77.85-1.82,1.28-2.88,1.28Z"/>
      <path class="cls-8" d="m83.59,208.58c-.26,0-.51-.02-.78-.08l-53.57-10.87c-2.1-.43-3.46-2.48-3.03-4.58.43-2.1,2.46-3.47,4.58-3.03l53.57,10.87c2.1.43,3.46,2.48,3.03,4.58-.37,1.84-1.99,3.11-3.8,3.11Z"/>
      <path class="cls-8" d="m132.5,101.44c-1.87,0-3.52-1.35-3.83-3.26-.07-.46-7.97-46.1-47.96-60.64-2.01-.73-3.05-2.96-2.32-4.98.73-2.01,2.95-3.06,4.98-2.32,44.33,16.12,52.64,64.63,52.97,66.69.34,2.12-1.1,4.1-3.21,4.45-.21.03-.42.05-.63.05Z"/>
    </g>
  </g>
</svg>