<?xml version="1.0" encoding="UTF-8"?>
<svg id="Layer_2" data-name="Layer 2" xmlns="http://www.w3.org/2000/svg" viewBox="0 0 251.37 180.69">
  <defs>
    <style>
      .cls-1 {
        fill: #f7ca94;
      }

      .cls-1, .cls-2, .cls-3 {
        stroke-width: 0px;
      }

      .cls-2 {
        fill: #a7b5ee;
      }

      .cls-3 {
        fill: #73371a;
      }
    </style>
  </defs>
  <g id="objects">
    <g>
      <path class="cls-2" d="m228.31,53.12c3.07-5.83,4.94-22.94-8.09-34.01-13.63-11.59-58.33-16.36-106.76-3.86-43.14,11.13-72.69,25.38-93,44.85-8.86,8.49-13.45,18.49-12.6,27.44.55,5.73,3.29,10.54,7.74,13.59,76.51,24.67,168.77-14.98,212.71-48.01Z"/>
      <path class="cls-2" d="m238.45,87.96c-9.38,8.12-44.78,35.99-104.8,51.5-22.25,5.75-41.79,7.73-58.12,7.73-26.07,0-43.99-5.03-51.83-7.78-2.9,13.5-2.86,19.34,5.25,26.83,7.93,7.32,58.25,10.47,111.51-.18,48.7-9.74,92.73-41,98.46-49.59,3.19-4.78,5.74-12.81,4.26-19.96-.71-3.45-2.31-6.31-4.73-8.55Z"/>
      <path class="cls-1" d="m131.71,131.95c61.61-15.92,97.28-45.95,103.05-51.09.72-3.49,2.48-14.83-3.46-20.31-26.82,19.79-62.05,36.64-97.18,46.39-23.11,6.41-45.56,9.63-66.7,9.63-18.14,0-35.31-2.4-51.12-7.13-2.26,9.26,4.91,18.98,6.96,21.5,5.95,2.38,46.59,17.01,108.47,1.01Z"/>
      <path class="cls-3" d="m242.58,81.28c1.04-5.73,2.34-19.28-6.4-26.8,3.77-9.76,4.07-28.53-10.94-41.29-17.91-15.22-66.8-17.57-113.73-5.46C67.04,19.21,36.4,34.07,15.09,54.49,4.51,64.63-.94,76.95.13,88.27c.68,7.17,3.86,13.33,9.03,17.68-4.12,12.52,4.15,24.88,7.51,29.2-3.59,16.07-4.66,26.02,7,36.79,6.28,5.79,25.09,8.75,48.85,8.75,21.03,0,45.94-2.31,69.45-7.02,51.07-10.21,96.21-42.11,103.4-52.89,3.78-5.68,7.47-15.85,5.4-25.84-1.15-5.54-3.97-10.21-8.19-13.66ZM7.86,87.54c-.85-8.95,3.74-18.95,12.6-27.44,20.31-19.47,49.86-33.72,93-44.85,48.43-12.5,93.13-7.73,106.76,3.86,13.02,11.07,11.16,28.18,8.09,34.01C184.37,86.14,92.1,125.8,15.6,101.12c-4.45-3.05-7.19-7.86-7.74-13.59Zm8.42,21.89c15.81,4.74,32.98,7.13,51.12,7.13,21.14,0,43.59-3.21,66.7-9.63,35.14-9.75,70.36-26.59,97.18-46.39,5.95,5.49,4.19,16.82,3.46,20.31-5.77,5.14-41.43,35.16-103.05,51.09-61.88,15.99-102.51,1.36-108.47-1.01-2.05-2.52-9.22-12.24-6.96-21.5Zm222.63,7.04c-5.72,8.59-49.76,39.85-98.46,49.59-53.26,10.65-103.58,7.5-111.51.18-8.12-7.49-8.15-13.33-5.25-26.83,7.85,2.75,25.76,7.78,51.83,7.78,16.33,0,35.87-1.98,58.12-7.73,60.02-15.51,95.41-43.38,104.8-51.5,2.42,2.24,4.01,5.1,4.73,8.55,1.48,7.15-1.07,15.18-4.26,19.96Z"/>
    </g>
  </g>
</svg>