<?xml version="1.0" encoding="UTF-8"?>
<svg id="Layer_2" data-name="Layer 2" xmlns="http://www.w3.org/2000/svg" viewBox="0 0 319.86 377.46">
  <defs>
    <style>
      .cls-1 {
        fill: #f58f99;
      }

      .cls-1, .cls-2, .cls-3, .cls-4, .cls-5, .cls-6 {
        stroke-width: 0px;
      }

      .cls-2 {
        fill: #f7ca94;
      }

      .cls-3 {
        fill: #88cf8d;
      }

      .cls-4 {
        fill: #ed5347;
      }

      .cls-5 {
        fill: #c96f3e;
      }

      .cls-6 {
        fill: #73371a;
      }
    </style>
  </defs>
  <g id="objects">
    <g>
      <g>
        <path class="cls-2" d="m315.98,176.94c0,9.43-7.65,17.08-17.08,17.08s-17.08-7.65-17.08-17.08,7.65-17.08,17.08-17.08,17.08,7.65,17.08,17.08Z"/>
        <path class="cls-6" d="m298.9,197.9c-11.56,0-20.96-9.4-20.96-20.96s9.4-20.96,20.96-20.96,20.96,9.4,20.96,20.96-9.4,20.96-20.96,20.96Zm0-34.16c-7.28,0-13.2,5.92-13.2,13.2s5.92,13.2,13.2,13.2,13.2-5.92,13.2-13.2-5.92-13.2-13.2-13.2Z"/>
      </g>
      <g>
        <path class="cls-2" d="m38.04,206.44c0,9.43-7.65,17.08-17.08,17.08s-17.08-7.65-17.08-17.08,7.65-17.08,17.08-17.08,17.08,7.65,17.08,17.08Z"/>
        <path class="cls-6" d="m20.96,227.4c-11.56,0-20.96-9.4-20.96-20.96s9.4-20.96,20.96-20.96,20.96,9.4,20.96,20.96-9.4,20.96-20.96,20.96Zm0-34.16c-7.28,0-13.2,5.92-13.2,13.2s5.92,13.2,13.2,13.2,13.2-5.92,13.2-13.2-5.92-13.2-13.2-13.2Z"/>
      </g>
      <path class="cls-1" d="m155.79,64.37c-49.48,0-86.2,13.61-109.13,40.45-34.39,40.25-25.84,97.34-25.75,97.91.02.1.03.21.04.31,2.18,28.28,6.42,37.82,16.83,37.82,3.97,0,5.35-2.95,7.76-10.18,2.25-6.76,5.34-16.02,15.79-16.72.67-.05,1.34-.07,2-.07,6.39,0,11.99,2.1,16.3,6.14,6.31,5.9,9.65,15.53,9.65,27.82,0,1.49-.01,3.01-.03,4.53-.18,20.36.83,32.89,16.36,35.11,5.87.84,10.98-.58,15.17-4.21,7.65-6.63,10.42-18.63,10.42-25.07,0-7.49,0-25.05,15.92-26.63,4.15-.41,7.48.5,9.93,2.71,4.69,4.25,4.69,11.79,4.69,19.78,0,8.77,8.02,10.61,14.75,10.61,10.1,0,10.61-14.01,10.61-16.82,0-13.45,6.48-21.48,17.34-21.48,13.24,0,14.31,11.77,15.25,22.16.59,6.52,2.17,10.73,4.7,12.53,1.86,1.32,4.5,1.52,8.09.62,8.8-2.2,9.49-5.37,11.79-15.88.28-1.26.57-2.59.89-4,2.54-11.02,8.45-14.25,11.74-15.2,4.65-1.33,9.54.13,13.42,4.01,2.9,2.9,4,6.2,4.89,8.85.47,1.4.81,2.41,1.25,3.12.19,0,.38,0,.57.02,1.06.14,1.96.69,2.57,1.47.6.01,1.3-.02,2.14-.09,5.95-.5,9.97-14.79,11.94-42.48l.04-.51c0-.09.02-.17.03-.26.08-.56,7.29-56.1-27.22-95.72-23.5-26.97-60.76-40.65-110.75-40.65Z"/>
      <path class="cls-5" d="m267.86,241.93c-.73-2.17-1.41-4.22-3.02-5.83-1.07-1.07-3.25-2.76-5.79-2.03-2.81.81-5.11,4.26-6.32,9.48-.32,1.38-.61,2.69-.87,3.92-2.42,11.07-4.03,18.38-17.49,21.75-5.84,1.46-10.71.85-14.47-1.83-4.52-3.21-7.11-9.15-7.93-18.15-1.15-12.7-2.35-15.1-7.52-15.1-6.35,0-9.57,4.62-9.57,13.72,0,14.93-7.21,24.59-18.37,24.59-14.1,0-22.51-6.87-22.51-18.37,0-5.67,0-12.09-2.14-14.03-.75-.68-2.08-.93-3.94-.75-5.51.55-8.93,3.91-8.93,18.91,0,9.43-4.1,23.13-13.1,30.93-4.83,4.19-10.67,6.34-17.07,6.34-1.4,0-2.83-.1-4.28-.31-23.37-3.34-23.18-25.25-23.03-42.86.01-1.5.03-2.99.03-4.46,0-9.95-2.55-17.82-7.19-22.15-3.19-2.99-7.39-4.33-12.48-3.99-4.74.32-6.43,3.9-8.94,11.43-1.92,5.78-4.26,12.72-10.8,14.83,3.63,28.54,10.58,79.26,13.73,88.99,3.64,11.24,45.93,32.74,101.34,32.74s97.7-21.5,101.33-32.74c3.61-11.17,11.75-72.25,13.75-87.53-2.55-2.03-3.56-5.01-4.39-7.5Z"/>
      <path class="cls-6" d="m272.44,99.98c-25.04-28.78-64.29-43.37-116.65-43.37s-90.61,14.54-115.08,43.22C4.59,142.16,12.58,199.59,13.22,203.79c1.71,22.17,4.7,42.19,21.11,44.6,1.94,15.19,10.22,78.92,14.12,90.97,5.03,15.54,49.88,38.11,108.72,38.11s103.69-22.57,108.72-38.11c3.76-11.61,11.6-70.1,13.89-87.57.82.02,1.68.01,2.62-.07,14.39-1.2,17.37-26.27,19.04-49.67l.03-.38c.52-3.9,7.28-59.96-29.03-101.69Zm-13.94,236.98c-3.64,11.24-45.93,32.74-101.33,32.74s-97.7-21.5-101.34-32.74c-3.15-9.74-10.1-60.45-13.73-88.99,6.54-2.12,8.88-9.06,10.8-14.83,2.51-7.53,4.21-11.11,8.94-11.43,5.09-.33,9.29,1.01,12.48,3.99,4.63,4.34,7.19,12.2,7.19,22.15,0,1.47-.01,2.96-.03,4.46-.15,17.61-.35,39.52,23.03,42.86,1.45.21,2.88.31,4.28.31,6.41,0,12.25-2.16,17.07-6.34,9-7.81,13.1-21.51,13.1-30.93,0-15,3.42-18.36,8.93-18.91,1.87-.18,3.19.06,3.94.75,2.14,1.94,2.14,8.36,2.14,14.03,0,11.5,8.42,18.37,22.51,18.37,11.16,0,18.37-9.65,18.37-24.59,0-9.1,3.22-13.72,9.57-13.72,5.17,0,6.37,2.4,7.52,15.1.82,9,3.41,14.94,7.93,18.15,3.76,2.67,8.63,3.28,14.47,1.83,13.47-3.37,15.07-10.68,17.49-21.75.27-1.23.56-2.54.87-3.92,1.2-5.22,3.51-8.67,6.32-9.48,2.54-.73,4.72.96,5.79,2.03,1.61,1.61,2.29,3.66,3.02,5.83.83,2.48,1.84,5.46,4.39,7.5-2,15.28-10.14,76.37-13.75,87.53Zm35.26-136.23c-.01.08-.02.17-.03.26l-.04.51c-1.97,27.69-5.99,41.99-11.94,42.48-.84.07-1.54.1-2.14.09-.61-.78-1.51-1.33-2.57-1.47-.19-.02-.38-.02-.57-.02-.44-.72-.79-1.73-1.25-3.12-.89-2.65-1.99-5.95-4.89-8.85-3.88-3.88-8.77-5.34-13.42-4.01-3.29.94-9.2,4.17-11.74,15.2-.33,1.41-.62,2.75-.89,4-2.3,10.51-3,13.68-11.79,15.88-3.59.9-6.24.69-8.09-.62-2.52-1.79-4.1-6.01-4.7-12.53-.94-10.39-2.01-22.16-15.25-22.16-10.86,0-17.34,8.03-17.34,21.48,0,2.81-.51,16.82-10.61,16.82-6.73,0-14.75-1.84-14.75-10.61,0-7.99,0-15.54-4.69-19.78-2.45-2.22-5.78-3.13-9.93-2.71-15.92,1.59-15.92,19.14-15.92,26.63,0,6.44-2.78,18.44-10.42,25.07-4.19,3.63-9.3,5.05-15.17,4.21-15.53-2.22-16.54-14.74-16.36-35.11.01-1.52.03-3.03.03-4.53,0-12.3-3.34-21.92-9.65-27.82-4.31-4.03-9.92-6.14-16.3-6.14-.66,0-1.33.02-2,.07-10.46.7-13.54,9.96-15.79,16.72-2.41,7.24-3.79,10.18-7.76,10.18-10.41,0-14.66-9.54-16.83-37.82,0-.1-.02-.21-.04-.31-.09-.57-8.64-57.67,25.75-97.91,22.93-26.84,59.65-40.45,109.13-40.45s87.25,13.68,110.75,40.65c34.52,39.61,27.3,95.16,27.22,95.72Z"/>
      <path class="cls-6" d="m236.02,358.61c-.13,0-.25,0-.38-.02-2.14-.21-3.7-2.1-3.49-4.24l9.32-96.27c.21-2.13,2.11-3.71,4.24-3.49,2.14.21,3.7,2.1,3.49,4.24l-9.32,96.27c-.19,2.01-1.88,3.51-3.86,3.51Z"/>
      <path class="cls-6" d="m209.62,369.48h-.02c-2.14-.01-3.87-1.76-3.86-3.9l.78-130.43c.01-2.14,1.75-3.86,3.88-3.86h.02c2.14.01,3.87,1.76,3.86,3.9l-.78,130.43c-.01,2.14-1.75,3.86-3.88,3.86Z"/>
      <path class="cls-6" d="m177.79,375.69c-2.12,0-3.85-1.7-3.88-3.83l-1.29-99.38c-.03-2.14,1.69-3.9,3.83-3.93,1.91-.05,3.9,1.69,3.93,3.83l1.29,99.38c.03,2.14-1.69,3.9-3.83,3.93h-.05Z"/>
      <path class="cls-6" d="m142.85,374.92c-2.06,0-3.78-1.63-3.88-3.71l-5.43-124.22c-.09-2.14,1.57-3.95,3.71-4.05,2.16-.06,3.95,1.57,4.05,3.71l5.43,124.22c.09,2.14-1.57,3.95-3.71,4.05-.06,0-.11,0-.17,0Z"/>
      <path class="cls-6" d="m113.35,369.48c-1.99,0-3.69-1.53-3.86-3.55l-6.21-72.2c-.18-2.14,1.4-4.02,3.53-4.2,2.16-.19,4.02,1.4,4.2,3.53l6.21,72.2c.18,2.14-1.4,4.02-3.53,4.2-.11,0-.23.02-.34.02Z"/>
      <path class="cls-6" d="m83.06,363.27c-1.9,0-3.56-1.4-3.84-3.33l-19.41-135.09c-.3-2.12,1.17-4.09,3.29-4.39,2.12-.3,4.09,1.16,4.39,3.29l19.41,135.09c.3,2.12-1.17,4.09-3.29,4.39-.19.03-.37.04-.56.04Z"/>
      <path class="cls-4" d="m204.04,45.54c-10.13-8.77-22.58-13.43-35.3-13.43-3.59,0-7.19.37-10.77,1.12-17.78,3.74-30.41,29.92-35.03,54.2-4.84,25.42-1.2,47.8,8.85,54.44,10.49,6.93,22.52,7.1,35.76.51,28.06-13.97,51.21-52.61,52.1-66.61.62-9.78-5.36-21.36-15.61-30.23Z"/>
      <path class="cls-3" d="m231.76,36.46c-5.1-1.99-13.03,1.2-15.65,2.6-1.45.78-3.23.55-4.45-.56-1.21-1.11-1.6-2.86-.96-4.38,1.75-4.13,5.69-16.18,3.02-22.24-.64-1.44-1.61-2.36-3.06-2.87-9.64-3.4-18.44,13.44-18.53,13.61-.67,1.34-2.02,2.12-3.56,2.14-1.5-.04-2.85-.93-3.45-2.3-.08-.17-8.18-17.56-17.68-14.22-2.84,1-3.68,2.47-4.06,3.49-1.46,3.89,1.13,9.9,2.26,11.89.14.26.25.52.33.79,15.53-.73,30.85,4.59,43.15,15.24,5.47,4.73,9.88,10.21,13.02,15.91,3.96-.9,11.22-3.33,13.77-7.62,1.1-1.85,1.2-3.87.33-6.37-.92-2.63-2.38-4.31-4.47-5.12Z"/>
      <path class="cls-6" d="m234.55,29.21c-4.63-1.8-9.78-1.24-13.96-.14,1.63-6.07,2.89-14.27.23-20.3-1.5-3.4-4.12-5.84-7.58-7.06-11-3.89-19.75,5.07-24.4,11.54-4.39-6.77-12.83-16.26-23.99-12.32-5.46,1.93-7.77,5.48-8.75,8.12-2.25,6.04.17,12.9,1.73,16.33-.49.09-.97.16-1.46.26-22.73,4.78-36.33,35.49-41.06,60.34-4.24,22.26-3.59,51.95,12.2,62.37,6.65,4.39,13.91,6.59,21.56,6.59,7.05,0,14.42-1.87,21.93-5.61,28.98-14.43,55.25-55.14,56.38-73.07.28-4.34-.46-8.91-2.04-13.47,4.86-1.27,13.33-4.32,17.22-10.84,2.27-3.81,2.61-8.28.99-12.92-1.67-4.77-4.79-8.16-9.01-9.8Zm-14.91,46.55c-.89,14.01-24.03,52.64-52.1,66.61-13.24,6.59-25.26,6.42-35.76-.51-10.05-6.64-13.69-29.03-8.85-54.44,4.62-24.28,17.25-50.46,35.03-54.2,3.58-.75,7.19-1.12,10.77-1.12,12.71,0,25.16,4.66,35.3,13.43,10.25,8.87,16.23,20.45,15.61,30.23Zm16.26-27.81c-2.55,4.3-9.81,6.72-13.77,7.62-3.13-5.7-7.55-11.18-13.02-15.91-12.31-10.65-27.63-15.97-43.15-15.24-.08-.27-.19-.54-.33-.79-1.12-1.99-3.72-8-2.26-11.89.38-1.02,1.22-2.49,4.06-3.49,9.5-3.34,17.6,14.05,17.68,14.22.61,1.37,1.96,2.27,3.45,2.3,1.54-.02,2.89-.8,3.56-2.14.09-.17,8.89-17.01,18.53-13.61,1.45.51,2.42,1.42,3.06,2.87,2.67,6.05-1.27,18.1-3.02,22.24-.64,1.51-.25,3.27.96,4.38,1.21,1.11,3,1.33,4.45.56,2.62-1.4,10.54-4.59,15.65-2.6,2.09.82,3.55,2.49,4.47,5.12.88,2.5.77,4.53-.33,6.37Z"/>
      <g>
        <path class="cls-2" d="m283.37,98.53c0,9.43-7.65,17.08-17.08,17.08s-17.08-7.65-17.08-17.08,7.65-17.08,17.08-17.08,17.08,7.65,17.08,17.08Z"/>
        <path class="cls-6" d="m266.3,119.49c-11.56,0-20.96-9.4-20.96-20.96s9.4-20.96,20.96-20.96,20.96,9.4,20.96,20.96-9.4,20.96-20.96,20.96Zm0-34.16c-7.28,0-13.2,5.92-13.2,13.2s5.92,13.2,13.2,13.2,13.2-5.92,13.2-13.2-5.92-13.2-13.2-13.2Z"/>
      </g>
      <g>
        <path class="cls-2" d="m276.39,163.74c0,9.43-7.65,17.08-17.08,17.08s-17.08-7.65-17.08-17.08,7.65-17.08,17.08-17.08,17.08,7.65,17.08,17.08Z"/>
        <path class="cls-6" d="m259.31,184.7c-11.56,0-20.96-9.4-20.96-20.96s9.4-20.96,20.96-20.96,20.96,9.4,20.96,20.96-9.4,20.96-20.96,20.96Zm0-34.16c-7.28,0-13.2,5.92-13.2,13.2s5.92,13.2,13.2,13.2,13.2-5.92,13.2-13.2-5.92-13.2-13.2-13.2Z"/>
      </g>
      <g>
        <path class="cls-2" d="m211.17,169.18c0,9.43-7.65,17.08-17.08,17.08s-17.08-7.65-17.08-17.08,7.65-17.08,17.08-17.08,17.08,7.65,17.08,17.08Z"/>
        <path class="cls-6" d="m194.09,190.14c-11.56,0-20.96-9.4-20.96-20.96s9.4-20.96,20.96-20.96,20.96,9.4,20.96,20.96-9.4,20.96-20.96,20.96Zm0-34.16c-7.28,0-13.2,5.92-13.2,13.2s5.92,13.2,13.2,13.2,13.2-5.92,13.2-13.2-5.92-13.2-13.2-13.2Z"/>
      </g>
      <g>
        <path class="cls-2" d="m149.84,201.01c0,9.43-7.65,17.08-17.08,17.08s-17.08-7.65-17.08-17.08,7.65-17.08,17.08-17.08,17.08,7.65,17.08,17.08Z"/>
        <path class="cls-6" d="m132.76,221.97c-11.56,0-20.96-9.4-20.96-20.96s9.4-20.96,20.96-20.96,20.96,9.4,20.96,20.96-9.4,20.96-20.96,20.96Zm0-34.16c-7.28,0-13.2,5.92-13.2,13.2s5.92,13.2,13.2,13.2,13.2-5.92,13.2-13.2-5.92-13.2-13.2-13.2Z"/>
      </g>
      <g>
        <path class="cls-2" d="m100.15,161.41c0,9.43-7.65,17.08-17.08,17.08s-17.08-7.65-17.08-17.08,7.65-17.08,17.08-17.08,17.08,7.65,17.08,17.08Z"/>
        <path class="cls-6" d="m83.07,182.37c-11.56,0-20.96-9.4-20.96-20.96s9.4-20.96,20.96-20.96,20.96,9.4,20.96,20.96-9.4,20.96-20.96,20.96Zm0-34.16c-7.28,0-13.2,5.92-13.2,13.2s5.92,13.2,13.2,13.2,13.2-5.92,13.2-13.2-5.92-13.2-13.2-13.2Z"/>
      </g>
      <g>
        <circle class="cls-2" cx="84.62" cy="76.79" r="17.08" transform="translate(-19.52 123.81) rotate(-66.52)"/>
        <path class="cls-6" d="m84.62,97.75c-11.56,0-20.96-9.4-20.96-20.96s9.4-20.96,20.96-20.96,20.96,9.4,20.96,20.96-9.4,20.96-20.96,20.96Zm0-34.16c-7.28,0-13.2,5.92-13.2,13.2s5.92,13.2,13.2,13.2,13.2-5.92,13.2-13.2-5.92-13.2-13.2-13.2Z"/>
      </g>
      <g>
        <path class="cls-2" d="m45.8,135.02c0,9.43-7.65,17.08-17.08,17.08s-17.08-7.65-17.08-17.08,7.65-17.08,17.08-17.08,17.08,7.65,17.08,17.08Z"/>
        <path class="cls-6" d="m28.72,155.98c-11.56,0-20.96-9.4-20.96-20.96s9.4-20.96,20.96-20.96,20.96,9.4,20.96,20.96-9.4,20.96-20.96,20.96Zm0-34.16c-7.28,0-13.2,5.92-13.2,13.2s5.92,13.2,13.2,13.2,13.2-5.92,13.2-13.2-5.92-13.2-13.2-13.2Z"/>
      </g>
    </g>
  </g>
</svg>