<?xml version="1.0" encoding="UTF-8"?>
<svg id="Layer_2" data-name="Layer 2" xmlns="http://www.w3.org/2000/svg" viewBox="0 0 720.18 551.94">
  <defs>
    <style>
      .cls-1 {
        fill: #c5a6fb;
      }

      .cls-1, .cls-2, .cls-3, .cls-4, .cls-5, .cls-6, .cls-7, .cls-8, .cls-9, .cls-10 {
        stroke-width: 0px;
      }

      .cls-2 {
        fill: #9bd9e1;
      }

      .cls-3 {
        fill: #f58f99;
      }

      .cls-4 {
        fill: #f7ca94;
      }

      .cls-5 {
        fill: #fc908a;
      }

      .cls-6 {
        fill: #88cf8d;
      }

      .cls-7 {
        fill: #fff;
      }

      .cls-8 {
        fill: #a7b5ee;
      }

      .cls-9 {
        fill: #ffa1a8;
      }

      .cls-10 {
        fill: #73371a;
      }
    </style>
  </defs>
  <g id="objects">
    <g>
      <path class="cls-2" d="m111.28,153.42l3.59,16.14c128.88,15.53,150.62,194.09,150.62,194.09,0,0,64.37-21.08,111.68-65.66-57.22-91-157.63-166.96-265.88-144.57Z"/>
      <path class="cls-4" d="m419.87,235.07c-79.47-83.2-199.54-126.32-314.06-106.3l5.48,24.65c108.25-22.39,208.66,53.57,265.88,144.57,18.43-17.36,34.27-38.29,42.71-62.92Z"/>
      <path class="cls-9" d="m425.42,180.42c-79.19-60.56-214.28-113.35-322.97-66.77l3.36,15.12c114.52-20.02,234.59,23.1,314.06,106.3,5.66-16.53,8.01-34.73,5.55-54.65Z"/>
      <path class="cls-10" d="m419.87,238.95c-1.05,0-2.07-.42-2.81-1.2-80.5-84.28-199.51-124.59-310.59-105.16-2.02.37-4.01-.96-4.46-2.98l-3.36-15.12c-.4-1.82.55-3.67,2.26-4.41,105.76-45.33,240.37,1.11,326.85,67.25.83.63,1.37,1.57,1.49,2.61,2.39,19.34.46,38.31-5.72,56.38-.44,1.28-1.52,2.24-2.84,2.54-.27.06-.55.09-.83.09ZM162.28,120.03c93.73,0,187.58,38.79,255.83,107.67,4.12-14.59,5.35-29.75,3.64-45.18-83.92-63.61-212.9-108.29-314.81-66.53l1.86,8.35c17.7-2.88,35.6-4.3,53.49-4.3Z"/>
      <path class="cls-10" d="m265.49,367.53c-.73,0-1.45-.21-2.08-.61-.98-.62-1.63-1.65-1.77-2.8-.21-1.76-22.89-175.73-147.22-190.71-1.63-.2-2.97-1.4-3.32-3.01l-3.59-16.14c-.22-1.01-.03-2.08.53-2.95.56-.88,1.45-1.48,2.47-1.69,116.21-24.05,218.06,63.79,269.95,146.31.99,1.57.72,3.62-.63,4.89-47.4,44.65-110.47,65.65-113.13,66.52-.39.13-.8.19-1.21.19ZM118.07,166.06c116.12,16.22,145.87,163.79,150.55,192.36,14.85-5.48,64.73-25.58,103.53-61.07-50.47-78.69-146.75-161.17-256.21-140.88l2.13,9.59Z"/>
      <path class="cls-10" d="m377.16,301.87c-.16,0-.33,0-.49-.03-1.15-.15-2.18-.8-2.8-1.78-50.56-80.41-149.46-166.08-261.8-142.84-2.1.44-4.12-.89-4.58-2.96l-5.48-24.65c-.23-1.04-.03-2.12.56-3,.59-.88,1.51-1.48,2.56-1.67,113.6-19.85,235.27,21.31,317.54,107.44,1,1.05,1.33,2.57.87,3.94-7.82,22.82-22.53,44.52-43.72,64.49-.72.68-1.68,1.06-2.66,1.06Zm-227.43-156.29c97.8,0,181.63,74.45,228.15,146.32,17.78-17.51,30.39-36.28,37.53-55.87-79.5-82.11-195.79-121.76-304.93-104.11l3.77,16.96c11.99-2.24,23.84-3.3,35.48-3.3Z"/>
      <g>
        <path class="cls-7" d="m549.27,36.57c-9.8,5.8-49.1,30.64-63.36,63.09,31.95-1.46,62.6,4.15,88.81,16.29,7.68,3.56,15.85,8.1,23.95,13.89-7.6-54.85-40.96-86.15-49.4-93.27Z"/>
        <path class="cls-5" d="m503.05,102.79c14.75-31.05,46.58-48.91,46.58-48.91,0,0,30.28,23.29,33.38,70.65-27.95-15.53-79.97-21.74-79.97-21.74Z"/>
        <path class="cls-1" d="m175.54,305.56c-3.73-4.51-9.78-7.73-16.4-10.24,0,0,0,0-.01,0-.2,0-.41-.02-.62-.05-.71-.11-1.33-.43-1.84-.85-4.68-1.62-9.52-2.94-13.95-4.15-13.3-3.61-24.78-6.73-22.27-16.14.55-2.07,2.69-3.3,4.75-2.75,2.07.55,3.3,2.68,2.75,4.75-.03.12-.03.18-.03.18.68,2.08,10.79,4.83,16.84,6.47,3.5.95,7.23,1.97,10.98,3.15.29-13.22-7.49-20.92-12.54-24.5-11.35-8.04-27.82-9.38-39.16-3.2-6.71,3.65-14.53,11.46-14.01,27.85,10.05,2.7,18.19,9.44,23.47,19.54,7.23-1.31,15.26-2.11,23.66-.94,30.01,4.17,43.15,21.38,48.86,34.7,1.12-1.53,2.28-3.02,3.48-4.46-.05-.25-.08-.51-.08-.78,0-.09-.35-12.22-13.86-28.58Z"/>
        <path class="cls-7" d="m222.1,498.44c-10.67,10.16-15.51,20.53-13.27,28.43,2.1,7.4,10.33,12.82,23.82,15.68,29.35,6.23,71.11-6.79,91.06-17.37-31.83-3.89-64.26-12.62-90.83-29.38-.5-.32-.9-.74-1.2-1.21-2.87.86-5.75,1.66-8.64,2.4-.2.53-.5,1.03-.94,1.44Z"/>
        <path class="cls-9" d="m150.12,339.58c-12.35-4.37-27.22-3.35-39.78,2.72-7.77,3.76-15.07,9.37-21.52,14.33-8.73,6.71-16.39,12.6-23.5,12.6-.85,0-1.7-.08-2.54-.26-3.87-.82-7.09-3.56-9.56-8.12-1.02-1.89-.32-4.24,1.56-5.26,1.88-1.02,4.24-.32,5.26,1.56,2.02,3.73,3.78,4.1,4.35,4.22,3.73.79,9.77-3.35,16.42-8.39-9.46-9.16-21.33-12.14-32.03-7.93-13.01,5.13-21.31,19.72-21.66,38.08-.38,19.91,13.94,32.82,27.47,38.26,18.61,7.49,38.7,3.59,51.2-9.92,25.49-27.55,43.49-41.69,64.16-36.55.99-4.53,2.33-9.03,4.03-13.47-.2-.25-.39-.51-.54-.82-4.73-10.05-12.8-17.33-23.34-21.07Z"/>
        <path class="cls-8" d="m273.79,321.51c6.68-6.04,17.93-7.92,28,1.52,1.56,1.47,1.64,3.92.18,5.49-1.47,1.56-3.92,1.64-5.49.18-6.9-6.47-13.73-4.81-17.48-1.42-4.31,3.89-6.33,11.5-.59,19.01,5.01,6.55,12.99,9.18,21.36,7.05,7.68-1.96,16.56-8.65,19.07-21.5-3.6-6.57-6.81-13.53-9.5-20.79-5.13-13.82-8.18-27.96-9.17-41.76-35.41-32.81-75.19-48.08-93.27-43.87-4.56,1.06-7.4,3.22-8.69,6.6-5.8,15.22,17.7,32.35,27.24,37.67,1.43.8,2.21,2.4,1.94,4.02-.26,1.61-1.51,2.89-3.11,3.19-10.82,2.03-17.07,7.73-16.32,14.87,1,9.53,13.98,19.37,36.21,18.84.03,0,.06,0,.09,0,1.65,0,3.12,1.04,3.66,2.6.56,1.59.03,3.35-1.31,4.37-3.55,2.7-8.99,8.03-5.65,13.4,3.8,6.11,15.81,9.05,26.25,3.92.48-5.33,2.96-10.1,6.57-13.37Z"/>
        <path class="cls-7" d="m519.61,384.61c-1.82,0-3.45-1.29-3.81-3.15-.4-2.1.97-4.14,3.08-4.54,45.62-8.75,78.14-20.41,101.31-32.87.6-.7,1.45-1.2,2.44-1.33,44.11-24.5,52.81-51.74,54.09-65.68,2.17-23.71-11.96-42.08-27.05-47.97-1.29-.5-2.21-1.65-2.43-3.02-9.38-60.49-46.39-89.43-75.78-103.05-55.82-25.86-124.44-16.82-162.29,4.97,1.25,1.99,1.94,3.28,2.08,3.55,1,1.9.27,4.24-1.63,5.24-1.89,1-4.24.27-5.24-1.62-.2-.37-19.78-36.57-61.38-47.16-29,35.86-34.52,102.89-27.71,128.19.22.82.17,1.7-.16,2.48-23.08,56.2,9.89,131.93,53.07,154.5,1.9.99,2.64,3.34,1.64,5.24-.69,1.33-2.05,2.08-3.44,2.08-.61,0-1.22-.14-1.8-.44-15.15-7.92-29.24-21.79-40.42-39.19-4.16,10.02-12.23,17.38-22.51,20.01-2.51.64-5.03.95-7.49.95-8.62,0-16.63-3.83-21.97-10.81-2.01-2.63-3.36-5.34-4.17-8.02-3.99,1.56-8.05,2.27-11.93,2.27-9.54,0-18.03-4.19-21.76-10.18-1.4-2.25-4.63-9.03.94-17.03-2.05-.2-3.98-.51-5.86-.88-.49.51-1.11.9-1.85,1.08-16.76,4.19-32.63,18.1-42.45,37.22-9.96,19.39-12.11,40.89-6.14,59.74,1.86-1.21,3.53-2.36,4.95-3.42,1.71-1.29,4.15-.94,5.43.78,1.29,1.72.94,4.15-.78,5.43-2.42,1.82-5.57,3.91-9.26,6.14-.27.21-.55.39-.88.53-14.88,8.89-38.01,19.73-58.69,24.04-12.74,2.66-23.51,12.06-23.99,20.96-.42,7.76,7.14,14.57,21.29,19.17,44.7,14.53,102.66,7.88,151.25-17.35,1.9-.99,4.25-.25,5.23,1.66.99,1.9.25,4.25-1.66,5.23-10,5.19-20.38,9.61-30.97,13.26,63.22,37.15,157.75,30.21,196.07,21.91-2.69-1.33-5.42-2.68-8.2-4.11-1.91-.98-2.67-3.31-1.69-5.22.98-1.91,3.32-2.67,5.22-1.69,55.35,28.27,91.3,36.49,114.37,36.49,20.13,0,30.46-6.25,35.34-10.88,7.42-7.03,8.87-16.2,6.46-21.61-4.52-10.18-20.27-18.38-42.06-29.72-14.12-7.35-31.69-16.5-50.68-28.62-1.81-1.15-2.34-3.55-1.18-5.36,1.15-1.81,3.56-2.34,5.36-1.18,13.49,8.61,25.91,15.51,37.32,21.58.13-.16.26-.32.42-.47.33-.3,32.24-30.34,33.85-90.73-15.6,4.78-32.66,8.97-51.21,12.53-.25.05-.49.07-.74.07Z"/>
        <path class="cls-7" d="m568.74,427.19c78.82-5.56,107.12-33.88,114.01-42.61,5.52-7,7.99-14,6.95-19.73-3.4-18.69-23.66-19.67-64.87-14.59-13.18,7.18-28.36,13.6-45.47,19.26-.28,23.49-4.82,42.67-10.62,57.67Z"/>
        <path class="cls-6" d="m136.07,312.37c-11.29-1.57-22.37.98-31.28,3.03-9.46,2.17-16.92,3.89-21.95.23-2.59-1.89-4.09-4.95-4.45-9.09-.19-2.14,1.4-4.02,3.53-4.2,2.16-.18,4.02,1.4,4.2,3.53.16,1.81.59,2.98,1.28,3.49,2.17,1.58,9.02,0,15.65-1.52.8-.18,1.62-.37,2.46-.56-5.27-8.74-13.38-13.91-23.21-14.67-12.7-.97-26.44,5.62-33.39,16.04-3.96,5.94-7.39,15.56-1.24,27.62.14.28.24.56.31.85,13.39-4.37,27.82-.32,39.07,11.09,6-4.57,12.64-9.38,19.91-12.9,14.38-6.96,31.48-8.1,45.75-3.05,10.81,3.83,19.43,10.81,25.22,20.33.11-.22.21-.45.32-.67.78-1.51,1.6-2.99,2.45-4.44-6.07-19.48-21.87-31.94-44.63-35.1Z"/>
        <path class="cls-10" d="m306.11,269.5c-1.46,1.57-3.92,1.66-5.49.19-.15-.14-.3-.28-.46-.42.99,13.8,4.04,27.94,9.17,41.76,2.7,7.26,5.9,14.21,9.5,20.79.09-.46.19-.91.26-1.38.32-2.12,2.29-3.58,4.43-3.25,2.12.33,3.57,2.31,3.25,4.43-.5,3.26-1.39,6.34-2.58,9.21,11.18,17.4,25.27,31.27,40.42,39.19.57.3,1.19.44,1.8.44,1.4,0,2.75-.76,3.44-2.08.99-1.9.26-4.25-1.64-5.24-43.18-22.57-76.15-98.3-53.07-154.5.32-.79.38-1.66.16-2.48-6.81-25.3-1.29-92.32,27.71-128.19,41.59,10.59,61.18,46.79,61.38,47.16,1,1.89,3.35,2.62,5.24,1.62,1.9-1,2.63-3.35,1.63-5.24-.14-.27-.84-1.56-2.08-3.55-.82.47-1.64.94-2.43,1.42-1.83,1.12-4.22.54-5.34-1.28-1.12-1.83-.54-4.22,1.29-5.34.68-.42,1.39-.81,2.08-1.22-9.5-12.82-29.67-34.27-62.34-41.7-1.4-.31-2.87.17-3.81,1.26-32.82,38.28-37.7,108.67-31.15,135.79-5.03,12.71-7.55,26.89-7.65,41.66,2.06,1.78,4.09,3.6,6.09,5.46,1.57,1.46,1.66,3.92.19,5.49Z"/>
        <path class="cls-10" d="m571.46,123c29.4,13.62,66.41,42.56,75.78,103.05.21,1.37,1.14,2.52,2.43,3.02,15.09,5.89,29.22,24.25,27.05,47.97-1.28,13.94-9.98,41.18-54.09,65.68,0,0,.01,0,.02,0,6.22-.78,12.21-1.47,17.92-1.98,1.74-1.18,3.44-2.38,5.08-3.59,29.58-21.88,37.43-44.38,38.8-59.4,2.42-26.46-12.89-47.28-29.88-55.03-6.91-41.31-26.16-68.44-47.31-86.21.02.21.05.41.07.61.19,2.14-1.39,4.02-3.53,4.21-.11.01-.23.02-.35.02-1.99,0-3.68-1.52-3.86-3.54-.24-2.71-.56-5.36-.93-7.96-8.1-5.79-16.27-10.33-23.95-13.89-26.21-12.14-56.86-17.75-88.81-16.29-.72,1.63-1.39,3.26-1.97,4.93-.71,2.02-2.92,3.09-4.95,2.38-2.02-.71-3.09-2.92-2.38-4.95.21-.61.46-1.21.7-1.82-27.39,2.34-52.85,9.83-72.54,21.35,1.88,2.54,3.34,4.73,4.4,6.42,37.85-21.79,106.47-30.84,162.29-4.97Z"/>
        <path class="cls-10" d="m619.28,347.05c-.14-1.13.23-2.2.92-3-23.17,12.46-55.69,24.12-101.31,32.87-2.11.4-3.48,2.44-3.08,4.54.36,1.86,1.98,3.15,3.81,3.15.24,0,.49-.02.74-.07,18.55-3.56,35.61-7.75,51.21-12.53.04-1.56.08-3.13.08-4.74,0-2.14,1.74-3.88,3.88-3.88s3.88,1.74,3.88,3.88c0,.76-.03,1.5-.04,2.26,17.12-5.65,32.29-12.08,45.47-19.26-.41.05-.81.1-1.22.15-2.13.27-4.07-1.24-4.33-3.37Z"/>
        <path class="cls-10" d="m401.4,128.1c1.12,1.83,3.51,2.4,5.34,1.28.79-.48,1.61-.95,2.43-1.42-1.06-1.69-2.52-3.88-4.4-6.42-.69.41-1.4.8-2.08,1.22-1.83,1.12-2.41,3.51-1.29,5.34Z"/>
        <path class="cls-10" d="m485.91,99.66c14.26-32.45,53.56-57.28,63.36-63.09,8.45,7.12,41.8,38.42,49.4,93.27,2.88,2.06,5.75,4.28,8.59,6.67-6.51-70.9-53.33-106.28-55.32-107.75-1.22-.9-2.84-1.01-4.17-.28-2.26,1.24-54.76,30.37-70.46,71.73,1.93-.17,3.87-.31,5.82-.42.93-.05,1.85-.08,2.78-.12Z"/>
        <path class="cls-10" d="m479,106.97c2.02.71,4.24-.36,4.95-2.38.58-1.66,1.25-3.3,1.97-4.93-.93.04-1.85.07-2.78.12-1.95.11-3.89.25-5.82.42-.23.61-.48,1.21-.7,1.82-.71,2.02.36,4.24,2.38,4.95Z"/>
        <path class="cls-10" d="m599.6,137.81c.18,2.02,1.87,3.54,3.86,3.54.11,0,.23,0,.35-.02,2.14-.19,3.71-2.07,3.53-4.21-.02-.21-.05-.41-.07-.61-2.84-2.39-5.71-4.61-8.59-6.67.36,2.61.69,5.25.93,7.96Z"/>
        <path class="cls-10" d="m294.2,361.8c2.46,0,4.97-.31,7.49-.95,10.28-2.62,18.35-9.99,22.51-20.01-1.87-2.91-3.66-5.91-5.36-9.01-2.51,12.85-11.39,19.54-19.07,21.5-8.37,2.13-16.35-.5-21.36-7.05-5.74-7.5-3.72-15.11.59-19.01,3.75-3.39,10.58-5.05,17.48,1.42,1.56,1.47,4.02,1.39,5.49-.18,1.47-1.56,1.39-4.02-.18-5.49-10.07-9.44-21.32-7.56-28-1.52-3.61,3.26-6.1,8.04-6.57,13.37.05-.03.11-.04.16-.07,1.92-.96,4.25-.18,5.21,1.74.96,1.92.18,4.25-1.74,5.21-.92.46-1.85.86-2.78,1.22.81,2.68,2.16,5.39,4.17,8.02,5.33,6.97,13.35,10.81,21.97,10.81Z"/>
        <path class="cls-10" d="m326.77,331.63c.33-2.12-1.13-4.1-3.25-4.43-2.13-.33-4.1,1.13-4.43,3.25-.07.47-.17.92-.26,1.38,1.7,3.1,3.49,6.1,5.36,9.01,1.19-2.87,2.08-5.95,2.58-9.21Z"/>
        <path class="cls-10" d="m230.43,313.53c.34,1.35-.08,2.7-.98,3.63,1.88.36,3.81.68,5.86.88-5.57,8-2.34,14.78-.94,17.03,3.73,5.98,12.21,10.18,21.76,10.18,3.89,0,7.95-.71,11.93-2.27-.83-2.76-1.08-5.49-.85-8.09-10.44,5.13-22.45,2.19-26.25-3.92-3.34-5.36,2.11-10.7,5.65-13.4,1.34-1.02,1.87-2.79,1.31-4.37-.55-1.56-2.02-2.6-3.66-2.6-.03,0-.06,0-.09,0-22.23.53-35.21-9.31-36.21-18.84-.75-7.15,5.5-12.84,16.32-14.87,1.61-.3,2.85-1.58,3.11-3.19.26-1.61-.51-3.22-1.94-4.02-9.54-5.32-33.04-22.45-27.24-37.67,1.29-3.38,4.13-5.54,8.69-6.6,18.09-4.2,57.86,11.06,93.27,43.87-.26-3.6-.36-7.18-.34-10.72-33.01-28.53-72.69-45.83-94.69-40.71-7.06,1.64-11.97,5.58-14.19,11.4-6.91,18.14,12.2,34.71,23.36,42.53-11.32,4.83-14.81,13.71-14.07,20.79.84,8.01,6.84,15.95,17.39,20.87,2.66-1.11,5.36-2.04,8.09-2.72,2.07-.52,4.19.74,4.71,2.82Z"/>
        <path class="cls-10" d="m300.17,269.28c.15.14.3.28.46.42,1.57,1.46,4.03,1.38,5.49-.19,1.46-1.57,1.38-4.02-.19-5.49-2-1.86-4.03-3.68-6.09-5.46-.02,3.55.08,7.12.34,10.72Z"/>
        <path class="cls-10" d="m272.58,336.55c-.96-1.92-3.29-2.7-5.21-1.74-.05.03-.11.05-.16.07-.23,2.6.02,5.33.85,8.09.93-.36,1.86-.76,2.78-1.22,1.92-.96,2.69-3.29,1.74-5.21Z"/>
        <path class="cls-10" d="m542.94,468.48c-.74.68-1.68,1.01-2.61,1.01-1.05,0-2.1-.43-2.87-1.27-1.3-1.43-1.33-3.55-.17-5.01-11.41-6.06-23.83-12.97-37.32-21.58-1.8-1.15-4.21-.62-5.36,1.18-1.15,1.81-.62,4.21,1.18,5.36,18.99,12.12,36.56,21.27,50.68,28.62,21.79,11.35,37.54,19.55,42.06,29.72,2.41,5.42.96,14.58-6.46,21.61-4.89,4.63-15.21,10.88-35.34,10.88-23.07,0-59.02-8.21-114.37-36.49-1.91-.97-4.25-.22-5.22,1.69-.97,1.91-.22,4.25,1.69,5.22,2.78,1.42,5.51,2.78,8.2,4.11,3.04-.66,5.74-1.33,8.03-1.98,2.06-.59,4.21.6,4.8,2.67.52,1.82-.35,3.7-1.97,4.52,45.42,21.17,77.06,28.08,99,28.08,21.57,0,33.79-6.68,40.52-13.06,10.51-9.95,11.62-22.74,8.22-30.4-5.62-12.66-22.38-21.38-45.57-33.46-1.84-.96-3.71-1.93-5.6-2.92-.81.84-1.36,1.34-1.51,1.49Z"/>
        <path class="cls-10" d="m563.09,435.33c-2.05,0-3.76-1.6-3.87-3.67-.12-2.14,1.52-3.97,3.67-4.09,1.99-.11,3.92-.24,5.85-.38,5.81-15,10.35-34.18,10.62-57.67-2.56.84-5.16,1.67-7.81,2.48-1.61,60.39-33.53,90.43-33.85,90.73-.16.14-.29.31-.42.47,2.43,1.29,4.83,2.56,7.17,3.78,3.6-3.69,12.83-14.18,20.91-31.79-.69.04-1.37.09-2.06.13-.07,0-.14,0-.21,0Z"/>
        <path class="cls-10" d="m575.52,363.39c-2.14,0-3.88,1.74-3.88,3.88,0,1.61-.04,3.18-.08,4.74,2.64-.81,5.25-1.64,7.81-2.48,0-.76.04-1.49.04-2.26,0-2.14-1.74-3.88-3.88-3.88Z"/>
        <path class="cls-10" d="m537.45,468.23c.77.84,1.82,1.27,2.87,1.27.93,0,1.87-.34,2.61-1.01.16-.14.7-.65,1.51-1.49-2.34-1.22-4.74-2.49-7.17-3.78-1.16,1.47-1.13,3.59.17,5.01Z"/>
        <path class="cls-10" d="m620.2,344.04c.82-.44,1.64-.88,2.44-1.33-.99.13-1.83.62-2.44,1.33Z"/>
        <path class="cls-10" d="m640.57,340.73c-4.87,3.32-10.14,6.49-15.73,9.53,41.21-5.08,61.47-4.1,64.87,14.59,1.04,5.72-1.43,12.73-6.95,19.73-6.89,8.73-35.19,37.05-114.01,42.61-1.09,2.81-2.22,5.48-3.37,8,57.45-3.46,103.52-20.52,123.48-45.8,6.93-8.77,9.94-17.98,8.5-25.93-4.17-22.94-26.41-25.45-56.77-22.73Z"/>
        <path class="cls-10" d="m622.63,342.72c-.8.44-1.61.88-2.44,1.33-.69.8-1.06,1.87-.92,3,.27,2.13,2.2,3.64,4.33,3.37.41-.05.81-.1,1.22-.15,5.6-3.05,10.86-6.22,15.73-9.53-5.71.51-11.7,1.2-17.92,1.98,0,0-.01,0-.02,0Z"/>
        <path class="cls-10" d="m562.88,427.57c-2.14.12-3.78,1.95-3.67,4.09.11,2.07,1.82,3.67,3.87,3.67.07,0,.14,0,.21,0,.69-.04,1.37-.09,2.06-.13,1.16-2.52,2.28-5.19,3.37-8-1.93.14-3.86.27-5.85.38Z"/>
        <path class="cls-10" d="m189.4,412.56c-1.29-1.72-3.72-2.06-5.43-.78-1.42,1.06-3.08,2.21-4.95,3.42.48,1.51.99,3,1.57,4.47.65,1.63.09,3.43-1.22,4.46,3.68-2.23,6.83-4.32,9.26-6.14,1.72-1.29,2.06-3.72.78-5.43Z"/>
        <path class="cls-10" d="m216.74,492.82c1.55-1.48,4.01-1.42,5.49.13,1.06,1.11,1.32,2.69.81,4.04,2.89-.74,5.77-1.54,8.64-2.4-.78-1.23-.84-2.84-.02-4.15,1.14-1.81,3.54-2.35,5.35-1.21,1.3.82,2.61,1.61,3.94,2.39,10.59-3.65,20.98-8.07,30.97-13.26,1.9-.99,2.64-3.33,1.66-5.23-.99-1.9-3.33-2.64-5.23-1.66-48.59,25.23-106.55,31.88-151.25,17.35-14.15-4.6-21.72-11.41-21.29-19.17.49-8.9,11.25-18.3,23.99-20.96,20.68-4.31,43.8-15.15,58.69-24.04-.03.01-.05.03-.08.04-.47.19-.95.27-1.43.27-1.55,0-3.01-.93-3.61-2.46-.41-1.05-.78-2.11-1.15-3.18-14.56,8.38-35.84,17.98-54,21.76-16.24,3.38-29.49,15.74-30.16,28.14-.37,6.72,2.61,19.16,26.65,26.97,16.41,5.33,34.5,7.94,53.26,7.94,13.83,0,28.03-1.44,42.18-4.23,1.92-2.37,4.12-4.75,6.6-7.11Z"/>
        <path class="cls-10" d="m240.96,491.63c-3.08,1.06-6.17,2.04-9.28,2.97.3.47.69.89,1.2,1.21,26.57,16.76,59,25.49,90.83,29.38,2.46-1.31,4.62-2.58,6.35-3.77,1.76-1.21,4.18-.77,5.4,1,.85,1.23.87,2.78.21,4.01,10.97.94,21.78,1.36,32.14,1.36,34.98,0,64.92-4.62,79.38-8.75.25-.07.48-.17.7-.28-3.53-1.65-7.16-3.39-10.86-5.21-38.31,8.29-132.85,15.24-196.07-21.91Z"/>
        <path class="cls-10" d="m449.85,514.23c-.59-2.06-2.74-3.26-4.8-2.67-2.29.65-4.99,1.32-8.03,1.98,3.7,1.82,7.33,3.56,10.86,5.21,1.62-.83,2.49-2.71,1.97-4.52Z"/>
        <path class="cls-10" d="m231.66,490.45c-.83,1.31-.76,2.92.02,4.15,3.11-.93,6.2-1.91,9.28-2.97-1.33-.78-2.64-1.57-3.94-2.39-1.81-1.14-4.21-.6-5.35,1.21Z"/>
        <path class="cls-10" d="m232.65,542.55c-13.49-2.86-21.72-8.28-23.82-15.68-2.24-7.91,2.6-18.27,13.27-28.43.44-.42.74-.91.94-1.44-4.29,1.1-8.59,2.08-12.89,2.93-8.18,10.11-11.29,20.21-8.79,29.06,2.04,7.22,8.85,16.74,29.68,21.16,5.84,1.24,12.08,1.79,18.51,1.79,32.79,0,70.55-14.25,84.9-24.12.53-.37.93-.85,1.21-1.39-3.97-.34-7.96-.75-11.96-1.24-19.95,10.58-61.71,23.6-91.06,17.37Z"/>
        <path class="cls-10" d="m222.23,492.95c-1.48-1.55-3.94-1.61-5.49-.13-2.48,2.36-4.67,4.73-6.6,7.11,4.31-.85,8.61-1.82,12.89-2.93.51-1.35.25-2.93-.81-4.04Z"/>
        <path class="cls-10" d="m335.45,522.41c-1.22-1.77-3.63-2.21-5.4-1-1.73,1.19-3.88,2.46-6.35,3.77,4,.49,7.99.9,11.96,1.24.65-1.24.63-2.78-.21-4.01Z"/>
        <path class="cls-10" d="m185.16,355.46c9.82-19.11,25.69-33.03,42.45-37.22.73-.18,1.36-.57,1.85-1.08-4.41-.85-8.37-2.12-11.82-3.73-7.63,3.19-14.92,8.06-21.46,14.29.96,3.86.99,6.18.99,6.42,0,2.14-1.74,3.88-3.88,3.88-1.88,0-3.44-1.33-3.8-3.1-1.2,1.44-2.35,2.93-3.48,4.46,1.05,2.46,1.86,4.78,2.47,6.87.6,2.06-.58,4.21-2.64,4.81-.36.11-.73.16-1.09.16-1.68,0-3.23-1.1-3.73-2.8-.1-.33-.22-.63-.32-.96-.85,1.45-1.67,2.93-2.45,4.44-.11.22-.21.45-.32.67.92,1.52,1.78,3.1,2.56,4.75.91,1.94.08,4.25-1.86,5.17-1.63.77-3.53.29-4.63-1.04-1.7,4.44-3.05,8.94-4.03,13.47.64.16,1.28.33,1.93.53,2.05.62,3.21,2.79,2.58,4.84-.62,2.05-2.8,3.21-4.84,2.58-.33-.1-.67-.19-1-.28-1.6,12.57-.42,25.12,3.58,36.74,2.48-1.43,4.76-2.82,6.8-4.14-5.97-18.85-3.82-40.35,6.14-59.74Z"/>
        <path class="cls-10" d="m178.49,424.66c.33-.14.62-.32.88-.53-.29.18-.58.35-.88.53Z"/>
        <path class="cls-10" d="m230.43,313.53c-.52-2.08-2.64-3.34-4.71-2.82-2.73.68-5.43,1.61-8.09,2.72,3.45,1.61,7.41,2.87,11.82,3.73.9-.93,1.31-2.28.98-3.63Z"/>
        <path class="cls-10" d="m176.98,424.98c.48,0,.96-.09,1.43-.27.03-.01.05-.03.08-.04.3-.18.59-.35.88-.53,1.31-1.03,1.87-2.83,1.22-4.46-.58-1.47-1.09-2.96-1.57-4.47-2.04,1.32-4.32,2.71-6.8,4.14.37,1.07.74,2.13,1.15,3.18.6,1.53,2.07,2.46,3.61,2.46Z"/>
        <path class="cls-10" d="m152.71,332.26c-14.26-5.05-31.36-3.91-45.75,3.05-7.27,3.52-13.92,8.33-19.91,12.9.11.11.22.21.32.32,1.49,1.54,1.45,4-.09,5.49-1.54,1.49-4,1.45-5.49-.09-.32-.33-.65-.63-.98-.95-6.65,5.04-12.69,9.18-16.42,8.39-.58-.12-2.33-.5-4.35-4.22-1.02-1.89-3.38-2.59-5.26-1.56-1.88,1.02-2.59,3.38-1.56,5.26,2.47,4.56,5.69,7.29,9.56,8.12.84.18,1.68.26,2.54.26,7.11,0,14.78-5.89,23.5-12.6,6.44-4.95,13.75-10.57,21.52-14.33,12.56-6.08,27.42-7.09,39.78-2.72,10.54,3.73,18.61,11.01,23.34,21.07.14.3.33.57.54.82,1.15-2.99,2.46-5.96,3.93-8.88-5.78-9.52-14.41-16.5-25.22-20.33Z"/>
        <path class="cls-10" d="m178.63,362.5c1.94-.91,2.77-3.23,1.86-5.17-.78-1.65-1.64-3.23-2.56-4.75-1.47,2.92-2.78,5.88-3.93,8.88,1.1,1.33,2.99,1.81,4.63,1.04Z"/>
        <path class="cls-10" d="m105.81,411.47c-12.5,13.51-32.59,17.41-51.2,9.92-13.53-5.44-27.85-18.36-27.47-38.26.35-18.36,8.64-32.95,21.66-38.08,10.7-4.22,22.57-1.23,32.03,7.93,1.08-.82,2.17-1.66,3.28-2.51.96-.74,1.95-1.5,2.95-2.26-11.25-11.41-25.68-15.47-39.07-11.09.42,1.71-.37,3.54-2,4.37-.57.29-1.17.42-1.76.42-1.24,0-2.42-.63-3.16-1.68-13.14,7.65-21.33,23.49-21.69,42.76-.38,19.96,12.01,37.43,32.34,45.61,7.23,2.91,14.68,4.33,21.93,4.33,14.42,0,28.08-5.6,37.87-16.18,27.58-29.81,41.69-38.31,57.13-34.14.33-2.56.78-5.12,1.33-7.68-20.67-5.14-38.68,8.99-64.16,36.55Z"/>
        <path class="cls-10" d="m174.48,380.3c.62-2.05-.53-4.22-2.58-4.84-.64-.2-1.29-.37-1.93-.53-.56,2.55-1.01,5.12-1.33,7.68.33.09.66.18,1,.28,2.05.63,4.22-.53,4.84-2.58Z"/>
        <path class="cls-10" d="m87.29,354.01c1.54-1.49,1.58-3.95.09-5.49-.11-.11-.22-.21-.32-.32-1,.76-1.99,1.52-2.95,2.26-1.1.85-2.2,1.69-3.28,2.51.33.32.66.62.98.95,1.49,1.54,3.95,1.58,5.49.09Z"/>
        <path class="cls-10" d="m137.14,304.68c-8.4-1.17-16.42-.37-23.66.94.35.67.7,1.35,1.02,2.05.9,1.94.06,4.25-1.89,5.16-1.95.9-4.25.06-5.16-1.89-.6-1.29-1.25-2.51-1.95-3.67-.83.19-1.66.38-2.46.56-6.62,1.52-13.48,3.1-15.65,1.52-.69-.5-1.12-1.68-1.28-3.49-.18-2.13-2.05-3.71-4.2-3.53-2.13.19-3.72,2.07-3.53,4.2.36,4.15,1.86,7.21,4.45,9.09,5.03,3.66,12.5,1.94,21.95-.23,8.91-2.05,19.99-4.59,31.28-3.03,22.76,3.16,38.55,15.62,44.63,35.1,1.65-2.82,3.42-5.52,5.3-8.09-5.72-13.33-18.85-30.53-48.86-34.7Z"/>
        <path class="cls-10" d="m181.02,348.43c.49,1.7,2.04,2.8,3.73,2.8.36,0,.73-.05,1.09-.16,2.06-.6,3.24-2.76,2.64-4.81-.61-2.09-1.41-4.42-2.47-6.87-1.88,2.57-3.66,5.27-5.3,8.09.1.32.22.63.32.96Z"/>
        <path class="cls-10" d="m47.98,337.11c-.07-.29-.16-.57-.31-.85-6.15-12.06-2.72-21.68,1.24-27.62,6.95-10.42,20.68-17.01,33.39-16.04,9.83.76,17.94,5.92,23.21,14.67,2.52-.57,5.19-1.15,7.97-1.65-5.28-10.09-13.42-16.83-23.47-19.54,0,.18,0,.35,0,.54.09,2.14-1.57,3.95-3.71,4.04-2.15.08-3.95-1.57-4.05-3.71-.03-.72-.03-1.42-.03-2.12-15.44-.94-31.33,6.84-39.77,19.5-7.23,10.84-7.83,23.43-1.7,35.46.08.16.2.29.31.44,1.56-.91,3.18-1.73,4.88-2.4.67-.27,1.35-.49,2.03-.71Z"/>
        <path class="cls-10" d="m44.22,341.91c.59,0,1.19-.14,1.76-.42,1.63-.83,2.42-2.66,2-4.37-.68.22-1.36.45-2.03.71-1.7.67-3.32,1.49-4.88,2.4.74,1.06,1.91,1.68,3.16,1.68Z"/>
        <path class="cls-10" d="m112.62,312.82c1.94-.9,2.79-3.21,1.89-5.16-.33-.7-.67-1.38-1.02-2.05-2.78.5-5.45,1.08-7.97,1.65.7,1.16,1.36,2.38,1.95,3.67.9,1.95,3.21,2.79,5.16,1.89Z"/>
        <path class="cls-10" d="m159.14,295.33c6.62,2.51,12.67,5.72,16.4,10.24,13.52,16.36,13.86,28.49,13.86,28.58,0,.27.03.53.08.78,2.13-2.56,4.36-4.97,6.69-7.19-1.49-6-5.24-15.72-14.65-27.11-4.47-5.41-11.07-9.14-18.17-11.98-.09,1.13-.21,2.27-.4,3.42-.31,1.9-1.95,3.26-3.82,3.26Z"/>
        <path class="cls-10" d="m127.91,276.32s0-.05.03-.18c.55-2.07-.68-4.2-2.75-4.75-2.06-.55-4.2.68-4.75,2.75-2.51,9.41,8.98,12.52,22.27,16.14,4.43,1.2,9.28,2.52,13.95,4.15-1.02-.85-1.6-2.19-1.37-3.6.28-1.71.4-3.33.43-4.89-3.75-1.18-7.48-2.2-10.98-3.15-6.04-1.64-16.16-4.39-16.84-6.47Z"/>
        <path class="cls-10" d="m189.48,334.92c.36,1.77,1.93,3.1,3.8,3.1,2.14,0,3.88-1.74,3.88-3.88,0-.23-.03-2.56-.99-6.42-2.34,2.23-4.57,4.64-6.69,7.19Z"/>
        <path class="cls-10" d="m90.02,286.08c-.52-16.39,7.3-24.19,14.01-27.85,11.34-6.18,27.81-4.83,39.16,3.2,5.05,3.58,12.82,11.28,12.54,24.5,2.56.81,5.13,1.7,7.63,2.7,1.09-13.54-4.5-25.62-15.68-33.54-13.86-9.81-33.34-11.33-47.36-3.69-11.79,6.42-18.14,18.24-18.08,33.42.22.01.45.01.67.03,2.46.19,4.84.61,7.11,1.22Z"/>
        <path class="cls-10" d="m159.13,295.33s0,0,.01,0c-.82-.31-1.65-.61-2.48-.9.51.43,1.14.74,1.84.85.21.03.42.05.62.05Z"/>
        <path class="cls-10" d="m86.31,290.66c2.14-.09,3.8-1.9,3.71-4.04,0-.19,0-.36,0-.54-2.28-.61-4.65-1.03-7.11-1.22-.22-.02-.45-.01-.67-.03,0,.7,0,1.4.03,2.12.09,2.14,1.9,3.79,4.05,3.71Z"/>
        <path class="cls-10" d="m155.29,290.83c-.23,1.41.34,2.75,1.37,3.6.83.29,1.66.59,2.48.9,1.87,0,3.51-1.36,3.82-3.26.19-1.15.31-2.29.4-3.42-2.51-1-5.07-1.89-7.63-2.7-.03,1.56-.15,3.17-.43,4.89Z"/>
        <g>
          <path class="cls-4" d="m430.25,3.96c-18.65,5.38.82,117.73,4.91,131.91,4.09,14.17,22.75,14.45,36.92,10.36,14.17-4.09,33.02-14.37,29.68-28.76-3.34-14.39-60.33-116.73-71.52-113.51Z"/>
          <path class="cls-10" d="m456.88,152.39c-11.88,0-22.26-4.4-25.45-15.45-.36-1.27-27.51-129.43-2.25-136.71h0c1.78-.51,3.74-.15,5.83,1.07,16.56,9.73,67.26,101.15,70.54,115.29,3.86,16.62-15.03,28.36-32.39,33.37-5.38,1.55-10.98,2.43-16.28,2.43ZM430.89,7.86c-11.78,5.79,1.19,103.32,8,126.93,3.56,12.36,21.87,10.67,32.12,7.71,10.56-3.04,29.8-12.02,26.98-24.15-3.99-17.17-55.95-105.93-67.09-110.49Zm.43-.17h0,0Z"/>
          <path class="cls-10" d="m455.17,51.04c-8.05,0-22.04-1.77-34.39-12.21-1.64-1.38-1.84-3.83-.46-5.47,1.38-1.63,3.84-1.84,5.47-.46,15.43,13.05,34.53,10.06,34.73,10.03,2.1-.37,4.11,1.07,4.47,3.18.35,2.11-1.06,4.11-3.17,4.47-.3.05-2.8.46-6.66.46Z"/>
          <path class="cls-10" d="m462.56,87.96c-10.55,0-24.16-2.31-37.77-11.1-1.8-1.16-2.32-3.56-1.15-5.37,1.16-1.8,3.57-2.32,5.37-1.15,24.93,16.11,50.35,7.55,50.6,7.46,2.03-.71,4.24.37,4.94,2.39.71,2.02-.37,4.24-2.39,4.94-.61.21-8.37,2.82-19.59,2.82Z"/>
          <path class="cls-10" d="m463.19,122.81c-10.34,0-21.83-1.9-32.79-7.72-1.89-1.01-2.61-3.36-1.61-5.25,1.01-1.89,3.36-2.62,5.25-1.61,27.54,14.63,60.42.91,60.75.77,1.98-.84,4.25.08,5.09,2.04.84,1.97-.07,4.25-2.04,5.09-.96.41-15.89,6.67-34.65,6.67Z"/>
        </g>
        <path class="cls-3" d="m600.92,267.99c2.71,11.47,14.22,18.58,25.69,15.86s18.58-14.22,15.86-25.69c-2.71-11.47-14.22-18.58-25.69-15.86-11.47,2.71-18.58,14.22-15.86,25.69Z"/>
        <path class="cls-3" d="m446.04,304.62c2.71,11.47-4.39,22.98-15.86,25.69-11.47,2.71-22.98-4.39-25.69-15.86-2.71-11.48,4.39-22.98,15.86-25.69,11.47-2.71,22.98,4.39,25.69,15.86Z"/>
        <path class="cls-10" d="m464.24,276.7c2.27,9.6-3.67,19.22-13.27,21.49-9.6,2.27-19.22-3.67-21.49-13.27-2.27-9.6,3.67-19.22,13.27-21.49,9.6-2.27,19.22,3.67,21.49,13.27Z"/>
        <path class="cls-10" d="m503.74,286c-6.8,0-12.95-3.89-16.66-10.8-1.01-1.89-.31-4.24,1.58-5.26,1.89-1.01,4.24-.3,5.26,1.58,2.82,5.24,7.29,7.59,12.3,6.41,4.33-1.01,8.81-4.87,9-10.28.06-1.75,1.28-3.24,2.99-3.64,1.71-.41,3.47.38,4.3,1.92,2.59,4.75,8.31,6.21,12.65,5.16,4.99-1.2,7.95-5.3,8.12-11.25.06-2.14,1.89-3.99,3.99-3.77,2.14.06,3.83,1.85,3.77,3.99-.27,9.44-5.66,16.56-14.07,18.57-5.67,1.35-11.58.07-16.04-3.12-2.55,4.85-7.27,8.65-12.94,9.97-1.43.34-2.86.5-4.25.5Z"/>
        <path class="cls-10" d="m572.13,251.18c2.27,9.6,11.89,15.54,21.49,13.27,9.6-2.27,15.54-11.89,13.27-21.49-2.27-9.6-11.89-15.54-21.49-13.27-9.6,2.27-15.54,11.89-13.27,21.49Z"/>
        <path class="cls-5" d="m326.82,199.83c-1.55-56.68,20.96-94.72,20.96-94.72,0,0,30.28,7.76,46.58,39.6-17.08,0-34.94-.78-43.48,4.66,16.3,2.33,26.4,6.21,26.4,6.21,0,0-24.07,3.88-29.5,7.76,13.2,0,21.74,4.66,21.74,4.66,0,0-27.17,13.97-42.7,31.83Z"/>
        <path class="cls-10" d="m649.01,243.83c-1.12,0-2.23-.48-3-1.42-1.36-1.66-1.12-4.1.54-5.47,29.46-24.2,61.57-29.6,62.92-29.82,2.15-.34,4.11,1.1,4.45,3.21.34,2.12-1.09,4.11-3.21,4.45-.31.05-31.46,5.34-59.23,28.15-.72.59-1.6.88-2.46.88Z"/>
        <path class="cls-10" d="m657.3,257.28c-1.44,0-2.83-.81-3.5-2.19-.93-1.93-.12-4.25,1.81-5.19,30.67-14.8,59.88-11.87,61.11-11.75,2.13.23,3.67,2.14,3.44,4.27-.22,2.13-2.11,3.66-4.27,3.45-.27-.03-28.31-2.78-56.91,11.02-.55.26-1.12.38-1.69.38Z"/>
        <path class="cls-10" d="m317.79,341.04c-1.32,0-2.6-.67-3.33-1.89-1.1-1.84-.51-4.22,1.33-5.32,1.17-.71,29.21-17.27,67.32-17.76,2.19-.3,3.9,1.69,3.93,3.83.03,2.14-1.69,3.9-3.83,3.93-36.04.46-63.16,16.49-63.43,16.65-.63.38-1.31.55-1.99.55Z"/>
        <path class="cls-10" d="m333.06,368.78c-.97,0-1.94-.36-2.69-1.08-1.55-1.48-1.6-3.94-.12-5.48.85-.89,21.31-21.96,54.29-30.41,2.08-.5,4.2.72,4.73,2.8.53,2.08-.72,4.19-2.8,4.73-30.76,7.88-50.42,28.05-50.62,28.25-.76.8-1.78,1.19-2.8,1.19Z"/>
      </g>
      <g>
        <path class="cls-4" d="m43.01,206.1l-4.35-34.76c-.32-2.52-1.61-4.82-3.61-6.4l-27.49-21.72c-5.65-4.46-4.63-13.31,1.89-16.37l31.72-14.88c2.3-1.08,4.09-3.02,4.97-5.41l12.16-32.86c2.5-6.75,11.23-8.51,16.15-3.26l23.95,25.57c1.74,1.86,4.14,2.95,6.68,3.06l35.01,1.41c7.19.29,11.57,8.05,8.09,14.35l-16.92,30.68c-1.23,2.23-1.53,4.85-.84,7.3l9.47,33.73c1.95,6.93-4.08,13.49-11.15,12.13l-34.41-6.61c-2.5-.48-5.08.04-7.2,1.45l-29.15,19.43c-5.99,3.99-14.09.29-14.98-6.86Z"/>
        <path class="cls-10" d="m52.63,218.48c-1.92,0-3.85-.41-5.66-1.24-4.3-1.97-7.22-5.95-7.81-10.65l-4.35-34.76c-.19-1.52-.96-2.88-2.16-3.83l-27.49-21.72c-3.72-2.94-5.61-7.5-5.07-12.21s3.43-8.71,7.72-10.73l31.72-14.88c1.39-.65,2.45-1.8,2.98-3.24l12.16-32.85c1.65-4.44,5.39-7.65,10.04-8.59,4.64-.94,9.35.56,12.59,4.02l23.95,25.57c1.05,1.12,2.47,1.77,4,1.83l35.01,1.41c4.73.19,8.95,2.77,11.27,6.9,2.33,4.13,2.35,9.07.06,13.22l-16.92,30.68c-.74,1.34-.92,2.9-.5,4.37l9.47,33.73c1.28,4.56.13,9.37-3.07,12.85-3.21,3.49-7.9,5.02-12.55,4.14l-34.41-6.61c-1.49-.28-3.04.02-4.31.87l-29.15,19.43c-2.28,1.52-4.89,2.29-7.51,2.29Zm14.81-147.22c-.39,0-.79.04-1.2.12-2.01.41-3.58,1.75-4.29,3.67l-12.16,32.86c-1.25,3.37-3.73,6.05-6.97,7.57l-31.72,14.88c-1.86.87-3.06,2.54-3.3,4.59-.24,2.04.55,3.95,2.17,5.22l27.49,21.72c2.81,2.22,4.61,5.4,5.05,8.96l4.35,34.77c.26,2.04,1.47,3.7,3.34,4.56,1.88.86,3.93.69,5.64-.45l29.15-19.43c2.98-1.99,6.56-2.72,10.09-2.03l34.41,6.61c2.03.4,3.98-.26,5.36-1.77,1.39-1.51,1.87-3.52,1.32-5.5l-9.47-33.73c-.97-3.45-.55-7.08,1.18-10.22l16.92-30.68c.99-1.8.98-3.86-.03-5.65-1.01-1.79-2.77-2.87-4.82-2.95l-35-1.41c-3.58-.14-6.9-1.66-9.35-4.28l-23.95-25.57c-1.12-1.2-2.61-1.84-4.19-1.84Z"/>
      </g>
    </g>
  </g>
</svg>