<?xml version="1.0" encoding="UTF-8"?>
<svg id="Layer_2" data-name="Layer 2" xmlns="http://www.w3.org/2000/svg" viewBox="0 0 472.58 669.77">
  <defs>
    <style>
      .cls-1 {
        fill: #c5a6fb;
      }

      .cls-1, .cls-2, .cls-3, .cls-4, .cls-5, .cls-6, .cls-7, .cls-8 {
        stroke-width: 0px;
      }

      .cls-2 {
        fill: #f58f99;
      }

      .cls-3 {
        fill: #f7ca94;
      }

      .cls-4 {
        fill: #fc908a;
      }

      .cls-5 {
        fill: #fff;
      }

      .cls-6 {
        fill: #a7b5ee;
      }

      .cls-7 {
        fill: #ffa1a8;
      }

      .cls-8 {
        fill: #73371a;
      }
    </style>
  </defs>
  <g id="objects">
    <g>
      <path class="cls-5" d="m293.48,372.32c-1.86,0-3.5-1.34-3.82-3.23-.36-2.11,1.06-4.12,3.17-4.48.58-.1,58.29-10.23,87.39-35.59,29.38-25.61,24.45-62.8,18.19-88.55-4.1-16.87-3.55-26.99-3.01-36.79.39-7.18.77-13.96-.78-23.28-.05-.31-.07-.63-.04-.94,4.6-58.52-18.26-102.03-24.32-112.42-11.22,3.22-54.54,17.29-79.82,48.4-1.35,1.66-3.8,1.92-5.46.56-1.66-1.35-1.92-3.8-.57-5.46.7-.86,1.42-1.69,2.14-2.52-15.23-3.88-76.77-17.78-124.36-2.81,1.6,1.73,3.16,3.49,4.66,5.33,1.35,1.66,1.1,4.11-.56,5.46-1.66,1.35-4.11,1.1-5.46-.56-25.32-31.16-68.59-45.18-79.81-48.4-6.06,10.4-28.92,54.01-24.33,112.42.04.47-.01.95-.15,1.41-3.2,10.81-4.27,24.27-5.41,38.52-1,12.52-2.03,25.46-4.62,37.29-5.52,25.21-7.79,51.78,29.33,75.07,38.32,24.05,82.52,28.88,82.96,28.93,2.13.22,3.68,2.13,3.46,4.26-.21,2-1.89,3.48-3.86,3.48-.13,0-.27,0-.4-.02-.81-.08-9.49-1.03-22.28-4.06-31.22,102.52-30.3,163.62,2.79,181.56,1.22.66,1.99,1.92,2.03,3.31,1.48,57.53,16.5,100.7,36.53,105,4.04.87,7.15.39,9.52-1.45,7.04-5.46,7.7-22.01,8.19-34.09l.11-2.76c.64-14.83,2.83-30.44,3.63-35.8-3.45-.82-6.92-1.82-10.4-3.09-2.01-.74-3.05-2.97-2.31-4.98.74-2.01,2.97-3.05,4.98-2.31,30.25,11.07,61.64,1.59,61.96,1.49,2.05-.63,4.22.51,4.86,2.56.63,2.05-.51,4.22-2.56,4.86-.4.12-3.44,1.04-8.32,1.99.88,5.62,1.2,13.49,1.55,22.34.93,22.94,2.33,57.6,16.08,58.93.49.05.99.07,1.48.07,20.06,0,37.59-39.69,47.1-106.99.11-.77.44-1.48.96-2.06,29.56-32.77,30.62-91.93,3.32-185.97-12.82,3.49-22.12,5.13-23.07,5.29-.22.04-.44.06-.66.06Z"/>
      <path class="cls-6" d="m91.61,349.47c-33.64-14.89-52.98-15.13-59.86-10.39-2.28,1.57-3.31,3.74-3.16,6.63.49,9.36,18.77,25.52,30.18,33.51,1.55,1.09,2.09,3.14,1.27,4.86-.82,1.71-2.75,2.58-4.58,2.05-4.25-1.22-16.75-3.48-23.34.72-2.42,1.54-3.84,3.84-4.35,7.04-2.12,13.27,26.23,26.94,36.33,30.68,1.38.51,2.35,1.75,2.51,3.21.16,1.46-.51,2.88-1.74,3.68-.03.02-4.63,3.14-4.9,7.6-.19,3.19,1.86,6.64,6.08,10.27,12.21,10.47,33.87,7.8,40.9,6.59,1.13-9.44,2.77-19.54,4.94-30.29-3.16.96-6.07,1.37-8.71,1.37-7.38,0-12.72-3.09-15.81-5.58-9.2-7.38-13.53-20.94-10.52-32.97,1.77-7.07,6.88-12.16,13.68-13.62,6.53-1.4,13.2.81,16.99,5.63,2.29,2.91,5.42,9.27.65,19.15-.93,1.93-3.25,2.75-5.18,1.81-1.93-.93-2.74-3.25-1.81-5.18,2.17-4.51,2.26-8.42.24-10.99-1.94-2.47-5.66-3.61-9.27-2.84-2.29.49-6.34,2.17-7.77,7.91-2.26,9.04,1.04,19.57,7.85,25.03,5.85,4.69,13.3,5.1,21.57,1.21,3.64-16.56,8.45-34.61,14.39-54.13-10.38-2.81-22.58-6.87-35.17-12.65-.47-.02-.95-.12-1.41-.32Z"/>
      <path class="cls-7" d="m333.81,537.87c.98,6.37,4.64,7.55,24.18,7.58,15.03-5.49,24.11-14.31,32.12-22.11,9.69-9.43,18.06-17.57,32-12.6,13.45,4.8,16.77,15.04,15.38,23.01-1.54,8.88-8.38,15.58-15.91,15.58-8.55,0-13.18-5.51-13.99-10.97-.82-5.6,2.24-10.59,7.43-12.15,2.05-.61,4.22.55,4.83,2.6.62,2.05-.55,4.22-2.6,4.83-2.29.69-2.05,3.11-1.98,3.59.31,2.1,2.13,4.34,6.3,4.34,3.62,0,7.4-4.19,8.26-9.14.52-3.02.56-10.48-10.35-14.38-8.98-3.21-14.12,1.26-23.97,10.85-5.38,5.24-11.63,11.3-20.01,16.56,15.69.66,34.64,4.54,44.4,23.35.39.07.77.18,1.14.37,5.07,2.67,11.81-.5,18.32-3.56,6.45-3.03,14.76-6.93,21.12-2.83,6.85-21.31,5.5-41.38-3.96-57.07-7.88-13.08-20.79-21.53-35.4-23.19-16.79-1.92-31.08,11.25-44.89,23.97-12.64,11.64-24.59,22.64-38.52,22.64-.29,0-.57-.04-.85-.1-1.01,2.75-2.12,5.41-3.32,7.97.11.27.19.55.24.85Z"/>
      <path class="cls-1" d="m358.69,553.21c-14.06,0-24.99-.03-29.96-7.21-2.47,4.01-5.23,7.76-8.28,11.24-.21,1.48-.43,2.92-.65,4.38,4.09,12.33,19.15,13.65,33.73,14.92,13.59,1.18,26.42,2.3,31.19,12.26,6.11,12.78,2.82,24.05-3.58,28.58-2.04,1.44-4.29,2.15-6.53,2.15-3.02,0-6.04-1.29-8.56-3.8-1.52-1.52-1.52-3.97,0-5.49,1.52-1.52,3.97-1.52,5.49,0,1.72,1.72,3.44,1.99,5.11.8,2.92-2.06,5.78-9.02,1.06-18.89-2.48-5.19-10.9-6.57-20.5-7.48-11.52,33.51,3.06,42.35,13.75,48.81,1.07.65,2.09,1.27,3.03,1.87,7.66,4.93,9.88,12.29,10.4,17.6,11.21-5.41,36.38-21.71,34.09-58.34-2.64-42.3-34.19-41.79-55.07-41.44-1.67.03-3.25.05-4.7.05,0,0,0,0,0,0s0,0-.01,0Z"/>
      <path class="cls-6" d="m386.45,449.34c4.23-3.63,6.28-7.08,6.09-10.27-.27-4.46-4.87-7.58-4.92-7.61-1.21-.81-1.88-2.24-1.71-3.69.17-1.45,1.13-2.69,2.5-3.19,10.1-3.75,38.46-17.43,36.33-30.68-.51-3.2-1.93-5.5-4.35-7.04-6.59-4.19-19.09-1.94-23.35-.72-1.82.52-3.76-.35-4.58-2.06-.82-1.71-.28-3.76,1.27-4.85,11.41-7.99,29.69-24.16,30.18-33.51.16-3.09-.77-5.29-2.86-6.73-3.7-2.55-16.66-6.56-56.91,11.26-.86.38-1.77.41-2.61.17-12.3,6.25-25.46,10.98-36.87,14.41,5.31,18.3,9.56,35.35,12.75,51.18.17.06.34.11.5.19,8.59,4.29,16.32,4.01,22.36-.84,6.81-5.46,10.11-15.99,7.85-25.03-1.44-5.74-5.49-7.42-7.77-7.91-3.6-.77-7.33.37-9.27,2.84-2.02,2.57-1.94,6.47.24,10.99.93,1.93.12,4.25-1.81,5.18-1.93.93-4.25.12-5.18-1.81-4.76-9.89-1.63-16.24.65-19.15,3.79-4.82,10.46-7.03,16.99-5.63,6.8,1.45,11.91,6.55,13.68,13.62,3.01,12.03-1.32,25.59-10.52,32.97-3.1,2.48-8.44,5.58-15.81,5.58-3.04,0-6.44-.54-10.16-1.85,1.93,10.69,3.35,20.81,4.25,30.37,2.16.46,28.96,5.88,43.04-6.18Z"/>
      <path class="cls-8" d="m96.73,347.49c-.66,1.5-2.16,2.36-3.71,2.3,12.58,5.78,24.79,9.83,35.17,12.65.3-.97.58-1.93.88-2.91.63-2.05,2.8-3.2,4.85-2.57,2.05.63,3.2,2.8,2.57,4.85-.26.86-.51,1.69-.77,2.54,12.79,3.03,21.47,3.98,22.28,4.06.14.01.27.02.4.02,1.96,0,3.65-1.49,3.86-3.48.22-2.13-1.33-4.04-3.46-4.26-.44-.05-44.64-4.88-82.96-28.93-37.12-23.29-34.84-49.86-29.33-75.07,2.59-11.83,3.62-24.78,4.62-37.29,1.13-14.25,2.21-27.71,5.41-38.52.13-.46.18-.93.15-1.41-4.59-58.4,18.27-102.01,24.33-112.42,11.22,3.22,54.5,17.24,79.81,48.4,1.35,1.66,3.8,1.92,5.46.56,1.66-1.35,1.92-3.8.56-5.46-1.5-1.84-3.06-3.61-4.66-5.33-1.36.43-2.71.87-4.04,1.35-2.02.72-4.24-.33-4.96-2.35-.72-2.02.33-4.24,2.35-4.96.18-.06.36-.12.53-.18-31.07-29.11-73.93-39.81-75.95-40.3-1.59-.39-3.25.27-4.15,1.63-1.33,2-32.29,49.72-27.08,118.97-3.27,11.44-4.36,25.03-5.5,39.41-.98,12.26-1.98,24.93-4.46,36.25-3.84,17.57-10.69,48.94,22.1,75.67,9.83,2.21,21.14,6.1,33.73,11.67,1.96.87,2.85,3.16,1.98,5.12Z"/>
      <path class="cls-8" d="m294.89,106.33c-.49,1.7-2.04,2.8-3.73,2.8-.36,0-.72-.05-1.08-.15-.09-.03-1.33-.38-3.52-.94-.72.83-1.44,1.67-2.14,2.52-1.35,1.66-1.1,4.11.57,5.46,1.66,1.35,4.11,1.1,5.46-.56,25.28-31.11,68.6-45.18,79.82-48.4,6.06,10.38,28.92,53.9,24.32,112.42-.03.31-.01.63.04.94,1.54,9.31,1.17,16.09.78,23.28-.54,9.79-1.09,19.92,3.01,36.79,6.26,25.74,11.19,62.93-18.19,88.55-29.09,25.36-86.81,35.49-87.39,35.59-2.11.36-3.53,2.37-3.17,4.48.32,1.89,1.96,3.23,3.82,3.23.22,0,.44-.02.66-.06.95-.16,10.26-1.8,23.07-5.29-.35-1.22-.69-2.42-1.06-3.65-.61-2.06.57-4.22,2.62-4.82,2.06-.61,4.22.57,4.82,2.62.37,1.25.71,2.47,1.07,3.71,11.42-3.43,24.58-8.16,36.87-14.41-1.08-.3-2.03-1.05-2.52-2.15-.87-1.96.02-4.25,1.98-5.12,9.55-4.23,18.23-7.5,26.01-9.83,30.65-28.29,25.55-67.46,18.93-94.68-3.83-15.75-3.31-25.3-2.8-34.53.39-7.17.8-14.58-.79-24.5,5.3-69.37-25.74-117.2-27.06-119.21-.9-1.36-2.56-2.02-4.15-1.63-2.08.51-47.38,11.82-78.6,42.86,1.87.71,2.92,2.73,2.35,4.69Z"/>
      <path class="cls-8" d="m162.19,105.23c47.6-14.97,109.14-1.07,124.36,2.81,1.92-2.22,3.92-4.35,5.98-6.4-.1-.04-.19-.09-.29-.12-3.21-.93-79.03-22.49-136.16-2.44,2.1,1.97,4.14,4.02,6.11,6.15Z"/>
      <path class="cls-8" d="m153.19,104.22c.72,2.02,2.94,3.07,4.96,2.35,1.33-.47,2.68-.92,4.04-1.35-1.97-2.14-4.02-4.19-6.11-6.15-.18.06-.36.12-.53.18-2.02.72-3.07,2.94-2.35,4.96Z"/>
      <path class="cls-8" d="m290.08,108.98c.36.1.72.15,1.08.15,1.68,0,3.23-1.1,3.73-2.8.57-1.96-.48-3.98-2.35-4.69-2.06,2.05-4.06,4.18-5.98,6.4,2.19.56,3.43.91,3.52.94Z"/>
      <path class="cls-8" d="m241.27,574.3c2.07-.54,4.19.7,4.74,2.78.28,1.05.51,2.25.72,3.57,4.88-.95,7.92-1.86,8.32-1.99,2.05-.63,3.19-2.81,2.56-4.86-.63-2.05-2.81-3.19-4.86-2.56-.31.1-31.7,9.58-61.96-1.49-2.01-.74-4.24.3-4.98,2.31-.74,2.01.3,4.24,2.31,4.98,3.48,1.27,6.96,2.27,10.4,3.09.16-1.1.27-1.78.29-1.91.34-2.12,2.33-3.54,4.45-3.22,2.12.34,3.56,2.33,3.22,4.45,0,.04-.13.83-.33,2.2,5.93.92,11.66,1.28,16.99,1.28,5.91,0,11.3-.44,15.92-1.04-.17-1.07-.35-2.03-.56-2.85-.54-2.07.7-4.19,2.78-4.74Z"/>
      <path class="cls-8" d="m194.89,615.93l-.11,2.76c-.48,12.08-1.15,28.62-8.19,34.09-2.37,1.84-5.49,2.31-9.52,1.45-20.03-4.29-35.05-47.47-36.53-105-.04-1.39-.81-2.65-2.03-3.31-33.09-17.95-34.01-79.04-2.79-181.56-2.38-.56-4.89-1.2-7.53-1.92-5.94,19.53-10.74,37.57-14.39,54.13.26-.12.52-.24.79-.37,1.92-.96,4.25-.18,5.21,1.74.96,1.92.18,4.25-1.74,5.21-2.15,1.08-4.21,1.89-6.17,2.49-2.16,10.76-3.81,20.86-4.94,30.29,1.4-.24,2.23-.43,2.28-.44,2.08-.48,4.17.82,4.66,2.91.48,2.09-.82,4.17-2.91,4.65-.29.07-2.08.47-4.86.88-4.15,45.45,4.74,74.43,26.72,87.68,1.94,60.97,18.96,105.13,42.6,110.2,1.84.39,3.6.59,5.27.59,4.07,0,7.64-1.17,10.64-3.5,9.89-7.68,10.61-25.55,11.19-39.91l.11-2.74c.61-13.97,2.69-29.08,3.5-34.62-2.51-.39-5.06-.9-7.63-1.51-.8,5.35-2.99,20.97-3.63,35.8Z"/>
      <path class="cls-8" d="m133.92,356.96c-2.05-.63-4.22.52-4.85,2.57-.3.98-.58,1.93-.88,2.91,2.64.72,5.16,1.35,7.53,1.92.26-.85.5-1.68.77-2.54.63-2.05-.52-4.22-2.57-4.85Z"/>
      <path class="cls-8" d="m203.26,575c-2.12-.32-4.11,1.1-4.45,3.22-.02.14-.13.81-.29,1.91,2.57.61,5.12,1.12,7.63,1.51.2-1.37.33-2.16.33-2.2.34-2.12-1.1-4.11-3.22-4.45Z"/>
      <path class="cls-8" d="m312.3,563.69c-.64-2.05.49-4.22,2.54-4.87,2.05-.64,4.23.49,4.87,2.54.03.09.07.17.1.26.22-1.45.44-2.9.65-4.38,3.05-3.48,5.8-7.23,8.28-11.24-1.26-1.82-2.15-4.09-2.59-6.95-.33-2.12,1.13-4.1,3.25-4.43,1.83-.29,3.53.75,4.19,2.39,1.2-2.57,2.32-5.22,3.32-7.97-1.74-.39-3.04-1.93-3.04-3.78,0-2.14,1.74-3.88,3.88-3.88.55,0,1.11-.04,1.66-.09,4.58-16.2,6.14-35.35,4.67-57.73-1.44-.26-2.35-.46-2.55-.5-2.09-.48-3.39-2.57-2.91-4.65.48-2.09,2.58-3.39,4.66-2.91.01,0,.07.01.15.03-.9-9.56-2.32-19.68-4.25-30.37-1.52-.54-3.09-1.19-4.72-2-1.92-.96-2.69-3.29-1.74-5.21.88-1.75,2.9-2.54,4.71-1.93-3.19-15.84-7.44-32.88-12.75-51.18-2.59.78-5.08,1.49-7.46,2.14,27.3,94.04,26.24,153.2-3.32,185.97-.52.57-.85,1.29-.96,2.06-9.51,67.31-27.04,107-47.1,106.99-.49,0-.99-.02-1.48-.07-13.76-1.33-15.16-36-16.08-58.93-.36-8.85-.68-16.72-1.55-22.34-2.2.43-4.78.86-7.67,1.23.8,5.18,1.13,13.1,1.46,21.42,1.16,28.68,2.6,64.36,23.09,66.35.81.08,1.61.12,2.41.12,23.2,0,41.01-33.18,51.9-96.48-2.44-2.52-4.39-5.65-5.63-9.59Z"/>
      <path class="cls-8" d="m318.78,358.5c-2.06.61-3.23,2.77-2.62,4.82.36,1.23.7,2.43,1.06,3.65,2.38-.65,4.87-1.36,7.46-2.14-.36-1.24-.7-2.46-1.07-3.71-.61-2.06-2.77-3.23-4.82-2.62Z"/>
      <path class="cls-8" d="m246,577.08c-.54-2.07-2.66-3.32-4.74-2.78-2.07.54-3.32,2.66-2.78,4.74.21.81.4,1.78.56,2.85,2.89-.37,5.46-.81,7.67-1.23-.21-1.32-.44-2.51-.72-3.57Z"/>
      <path class="cls-8" d="m361.55,350.42c.84.23,1.75.21,2.61-.17,40.25-17.81,53.21-13.81,56.91-11.26,2.09,1.44,3.02,3.64,2.86,6.73-.49,9.36-18.77,25.52-30.18,33.51-1.55,1.09-2.09,3.14-1.27,4.85.82,1.71,2.75,2.58,4.58,2.06,4.26-1.22,16.75-3.48,23.35.72,2.42,1.54,3.84,3.84,4.35,7.04,2.12,13.25-26.23,26.93-36.33,30.68-1.37.51-2.33,1.75-2.5,3.19-.17,1.45.5,2.88,1.71,3.69.05.03,4.65,3.15,4.92,7.61.19,3.19-1.86,6.64-6.09,10.27-14.08,12.07-40.87,6.65-43.04,6.18.26,2.72.48,5.41.66,8.04,3.13.55,8.81,1.36,15.46,1.36,10.3,0,22.92-1.93,31.97-9.68,6.21-5.32,9.16-10.94,8.78-16.71-.24-3.67-1.83-6.69-3.57-8.94,12.23-5.33,38.56-19,35.69-36.91-.87-5.45-3.52-9.61-7.87-12.37-4.35-2.76-9.83-3.61-14.9-3.62,9.54-8.13,21.49-20.3,22.03-30.55.31-5.84-1.84-10.52-6.21-13.53-7.27-5.01-20.37-4.71-38.45.72-.56.52-1.11,1.04-1.7,1.55-6.87,5.99-15.1,11.14-23.77,15.55Z"/>
      <path class="cls-8" d="m359.03,348.27c.49,1.1,1.44,1.85,2.52,2.15,8.67-4.4,16.9-9.56,23.77-15.55.59-.51,1.14-1.04,1.7-1.55-7.77,2.33-16.45,5.6-26.01,9.83-1.96.87-2.85,3.16-1.98,5.12Z"/>
      <path class="cls-8" d="m343.27,455.49c-2.08-.48-4.17.82-4.66,2.91-.48,2.09.82,4.17,2.91,4.65.2.05,1.1.25,2.55.5-.17-2.63-.4-5.32-.66-8.04-.08-.02-.14-.03-.15-.03Z"/>
      <path class="cls-8" d="m365.14,421.42c9.2-7.38,13.53-20.94,10.52-32.97-1.77-7.07-6.88-12.16-13.68-13.62-6.54-1.4-13.2.81-16.99,5.63-2.29,2.91-5.42,9.27-.65,19.15.93,1.93,3.25,2.74,5.18,1.81,1.93-.93,2.74-3.25,1.81-5.18-2.17-4.51-2.26-8.42-.24-10.99,1.94-2.47,5.66-3.61,9.27-2.84,2.29.49,6.34,2.17,7.77,7.91,2.26,9.04-1.04,19.57-7.85,25.03-6.04,4.84-13.77,5.13-22.36.84-.16-.08-.33-.13-.5-.19.62,3.09,1.2,6.14,1.74,9.13,3.72,1.31,7.12,1.85,10.16,1.85,7.38,0,12.72-3.09,15.81-5.58Z"/>
      <path class="cls-8" d="m332.71,417.94c-.96,1.92-.18,4.25,1.74,5.21,1.63.82,3.2,1.47,4.72,2-.54-3-1.12-6.04-1.74-9.13-1.81-.61-3.83.17-4.71,1.93Z"/>
      <path class="cls-8" d="m66.06,449.34c-4.23-3.63-6.28-7.08-6.08-10.27.27-4.46,4.87-7.58,4.9-7.6,1.23-.8,1.91-2.23,1.74-3.68-.16-1.46-1.13-2.7-2.51-3.21-10.1-3.74-38.46-17.41-36.33-30.68.51-3.2,1.94-5.5,4.35-7.04,6.6-4.19,19.09-1.94,23.34-.72,1.83.53,3.76-.34,4.58-2.05.82-1.71.28-3.77-1.27-4.86-11.41-7.99-29.69-24.16-30.18-33.51-.15-2.9.88-5.07,3.16-6.63,6.88-4.74,26.22-4.5,59.86,10.39.46.2.94.3,1.41.32-7.08-3.25-14.27-7.03-21.31-11.45-3.97-2.49-7.51-5.04-10.69-7.64-15.14-3.41-26.71-2.81-33.68,1.99-4.49,3.09-6.8,7.86-6.5,13.44.54,10.25,12.5,22.41,22.03,30.55-5.06.01-10.54.86-14.9,3.62-4.35,2.76-7,6.92-7.87,12.37-2.87,17.91,23.46,31.58,35.69,36.91-1.73,2.25-3.32,5.27-3.57,8.94-.38,5.77,2.57,11.39,8.78,16.71,9.05,7.76,21.67,9.68,31.97,9.68,5.25,0,9.88-.5,13.14-.98.24-2.62.51-5.28.84-8-7.03,1.21-28.69,3.88-40.9-6.59Z"/>
      <path class="cls-8" d="m93.02,349.79c1.55.06,3.04-.8,3.71-2.3.87-1.96-.02-4.25-1.98-5.12-12.59-5.57-23.9-9.46-33.73-11.67,3.18,2.59,6.72,5.15,10.69,7.64,7.05,4.42,14.24,8.2,21.31,11.45Z"/>
      <path class="cls-8" d="m113.9,458.4c-.48-2.09-2.57-3.39-4.66-2.91-.05.01-.88.2-2.28.44-.32,2.73-.6,5.39-.84,8,2.78-.41,4.57-.81,4.86-.88,2.09-.48,3.39-2.57,2.91-4.65Z"/>
      <path class="cls-8" d="m92.23,415.37c-6.81-5.46-10.11-15.99-7.85-25.03,1.44-5.74,5.49-7.42,7.77-7.91,3.61-.77,7.33.37,9.27,2.84,2.02,2.57,1.94,6.47-.24,10.99-.93,1.93-.12,4.25,1.81,5.18,1.93.93,4.25.12,5.18-1.81,4.76-9.89,1.63-16.24-.65-19.15-3.79-4.82-10.46-7.03-16.99-5.63-6.8,1.45-11.91,6.55-13.68,13.62-3.01,12.03,1.32,25.59,10.52,32.97,3.1,2.48,8.44,5.58,15.81,5.58,2.64,0,5.55-.4,8.71-1.37.6-2.97,1.23-5.99,1.9-9.06-8.28,3.89-15.72,3.49-21.57-1.21Z"/>
      <path class="cls-8" d="m118.06,423.15c1.92-.96,2.69-3.29,1.74-5.21-.96-1.92-3.29-2.7-5.21-1.74-.26.13-.53.25-.79.37-.68,3.07-1.31,6.09-1.9,9.06,1.96-.6,4.01-1.41,6.17-2.49Z"/>
      <path class="cls-8" d="m355.35,578.28c2.02.72,3.07,2.95,2.34,4.96-.17.48-.32.95-.49,1.42,9.6.92,18.02,2.3,20.5,7.48,4.72,9.88,1.86,16.83-1.06,18.89-1.68,1.19-3.4.92-5.11-.8-1.51-1.52-3.97-1.52-5.49,0-1.52,1.52-1.52,3.97,0,5.49,2.51,2.51,5.53,3.8,8.56,3.8,2.25,0,4.49-.71,6.53-2.15,6.41-4.53,9.69-15.8,3.58-28.58-4.76-9.96-17.6-11.08-31.19-12.26-14.58-1.27-29.64-2.59-33.73-14.92-.6,3.99-1.23,7.88-1.88,11.66,7.61,7.83,20.07,9.62,31.33,10.67.35-1.09.73-2.19,1.13-3.33.72-2.02,2.95-3.06,4.96-2.34Z"/>
      <path class="cls-8" d="m319.7,561.36c-.64-2.05-2.82-3.18-4.87-2.54-2.05.64-3.18,2.82-2.54,4.87,1.24,3.94,3.18,7.08,5.63,9.59.65-3.78,1.28-7.67,1.88-11.66-.03-.09-.07-.17-.1-.26Z"/>
      <path class="cls-8" d="m415.82,570.81c.81-1.53,2.49-2.28,4.1-2-9.76-18.81-28.71-22.69-44.4-23.35-4.49,2.82-9.59,5.42-15.52,7.53-.43.15-.86.22-1.29.22,1.46,0,3.03-.03,4.7-.05,20.89-.35,52.43-.86,55.07,41.44,2.29,36.63-22.88,52.94-34.09,58.34-.52-5.3-2.74-12.67-10.4-17.6-.94-.6-1.96-1.22-3.03-1.87-10.7-6.46-25.27-15.3-13.75-48.81-1.43-.14-2.88-.26-4.35-.39-1.18-.1-2.39-.21-3.6-.32-12.36,38,6.37,49.33,17.69,56.17,1.01.61,1.97,1.19,2.85,1.76,8.5,5.46,6.89,15.83,6.82,16.25-.24,1.34.25,2.71,1.28,3.61.72.62,1.62.95,2.54.95.41,0,.81-.06,1.21-.19.48-.16,47.84-16.29,44.59-68.37-.38-6.15-1.32-11.52-2.7-16.23-2.04-.21-4.08-.77-6.09-1.83-1.9-1-2.63-3.35-1.63-5.24Z"/>
      <path class="cls-8" d="m358.69,553.21c-1.59,0-3.08-.99-3.65-2.58-.72-2.02.34-4.24,2.36-4.96.2-.07.39-.15.6-.23-19.55-.03-23.21-1.21-24.18-7.58-.05-.3-.13-.58-.24-.85-1.47,3.13-3.07,6.13-4.84,8.99,4.96,7.18,15.89,7.21,29.96,7.21Z"/>
      <path class="cls-8" d="m329.39,534.62c-2.12.33-3.57,2.31-3.25,4.43.44,2.87,1.33,5.13,2.59,6.95,1.76-2.86,3.37-5.86,4.84-8.99-.65-1.64-2.36-2.68-4.19-2.39Z"/>
      <path class="cls-8" d="m357.21,584.67c.16-.47.31-.94.49-1.42.72-2.02-.33-4.24-2.34-4.96-2.01-.72-4.24.33-4.96,2.34-.41,1.13-.78,2.24-1.13,3.33,1.22.11,2.42.22,3.6.32,1.47.13,2.92.25,4.35.39Z"/>
      <polygon class="cls-8" points="358.69 553.21 358.7 553.21 358.71 553.21 358.7 553.21 358.69 553.21"/>
      <path class="cls-8" d="m419.51,518.05c10.91,3.9,10.87,11.35,10.35,14.38-.86,4.95-4.64,9.14-8.26,9.14-4.18,0-6-2.24-6.3-4.34-.07-.48-.3-2.9,1.98-3.59,2.05-.62,3.22-2.78,2.6-4.83-.62-2.05-2.78-3.22-4.83-2.6-5.2,1.56-8.26,6.56-7.43,12.15.8,5.46,5.44,10.97,13.99,10.97,7.53,0,14.37-6.7,15.91-15.58,1.38-7.98-1.93-18.21-15.38-23.01-13.94-4.98-22.31,3.17-32,12.6-8.01,7.8-17.09,16.62-32.12,22.11.24,0,.46,0,.7,0,1.42,0,2.96-.03,4.59-.05,3.63-.06,7.8-.12,12.23.07,8.39-5.27,14.64-11.33,20.01-16.56,9.85-9.59,14.99-14.06,23.97-10.85Z"/>
      <path class="cls-8" d="m363.29,545.4c-1.63.03-3.17.05-4.59.05-.24,0-.47,0-.7,0-.2.07-.39.15-.6.23-2.02.72-3.07,2.94-2.36,4.96.56,1.59,2.05,2.58,3.65,2.58h.02c.43,0,.86-.07,1.29-.22,5.93-2.11,11.03-4.7,15.52-7.53-4.43-.19-8.6-.12-12.23-.07Z"/>
      <path class="cls-8" d="m422.03,474.82c-20.31-2.3-36.63,12.72-51.03,25.97-10.91,10.05-21.25,19.55-31.59,20.49-.75,2.67-1.59,5.25-2.51,7.76.27.06.55.1.85.1,13.93,0,25.87-11,38.52-22.64,13.82-12.72,28.1-25.89,44.89-23.97,14.61,1.66,27.51,10.11,35.4,23.19,9.46,15.69,10.81,35.76,3.96,57.07-6.36-4.1-14.67-.2-21.12,2.83-6.51,3.06-13.26,6.23-18.32,3.56-.37-.19-.75-.3-1.14-.37,1.41,2.71,2.63,5.71,3.61,9.08.62.06,1.23.1,1.85.1,5.95,0,11.88-2.79,17.31-5.34,10.18-4.78,13.3-5.39,15.83-.56.71,1.35,2.13,2.15,3.65,2.07,1.52-.08,2.85-1.05,3.4-2.46,10.1-25.85,9.25-50.7-2.38-69.99-9.14-15.16-24.14-24.96-41.17-26.89Z"/>
      <path class="cls-8" d="m333.86,525.26c0,1.85,1.3,3.4,3.04,3.78.92-2.51,1.76-5.09,2.51-7.76-.55.05-1.11.09-1.66.09-2.14,0-3.88,1.74-3.88,3.88Z"/>
      <path class="cls-8" d="m415.82,570.81c-1,1.9-.27,4.24,1.63,5.24,2.01,1.06,4.05,1.63,6.09,1.83-.99-3.36-2.21-6.37-3.61-9.08-1.62-.28-3.3.47-4.1,2Z"/>
      <g>
        <path class="cls-3" d="m227.22,3.89c-19.4-.71-35.94,112.11-36.48,126.86-.54,14.74,17.11,20.82,31.85,21.36,14.74.54,35.86-3.35,37.17-18.07S238.86,4.31,227.22,3.89Z"/>
        <path class="cls-8" d="m225.4,156.03c-.99,0-1.98-.02-2.95-.05-18.15-.66-36.2-8.77-35.59-25.38.3-8.03,4.79-40.68,11.26-69.92C210.04,6.8,220.24,0,226.99,0c.12,0,.25,0,.38,0,1.85.07,3.6,1.02,5.2,2.83,12.7,14.4,32.36,117.08,31.06,131.54-1.43,16.08-20.85,21.65-38.22,21.65Zm1.26-148.2c-1.92.6-10.24,6.03-20.97,54.52-6.78,30.64-10.83,61.92-11.07,68.53-.47,12.86,17.45,16.95,28.11,17.34,10.96.4,32.06-2.12,33.16-14.53,1.56-17.52-20.04-117.7-29.23-125.85Z"/>
        <path class="cls-8" d="m243.26,58.07c-.19,0-.38-.01-.57-.04-.92-.14-22.8-3.59-35.34-23.97-1.12-1.83-.55-4.22,1.28-5.34,1.83-1.13,4.22-.55,5.34,1.27,10.59,17.22,29.68,20.33,29.87,20.36,2.11.33,3.57,2.3,3.25,4.42-.29,1.92-1.94,3.3-3.83,3.3Z"/>
        <path class="cls-8" d="m250.96,97.2c-3.19,0-31.42-.73-51.67-25.75-1.35-1.67-1.09-4.11.58-5.46,1.65-1.35,4.1-1.1,5.46.58,18.57,22.95,45.78,22.85,45.75,22.87,2.16-.08,3.91,1.68,3.94,3.82.04,2.14-1.67,3.9-3.81,3.94h-.25Z"/>
        <path class="cls-8" d="m251.2,131.74c-11.51,0-39.32-2.24-58.5-22.21-1.48-1.55-1.44-4.01.11-5.49,1.53-1.48,4-1.44,5.48.11,21.6,22.48,57.14,19.7,57.48,19.68,2.21-.16,4.02,1.4,4.2,3.53.18,2.13-1.39,4.01-3.52,4.2-.33.03-2.23.18-5.25.18Z"/>
      </g>
      <path class="cls-8" d="m83.85,278.7c-.45,0-.9-.08-1.34-.24-.35-.13-35.67-12.98-78.69-13.73-2.14-.04-3.85-1.81-3.81-3.95.04-2.15,1.53-3.93,3.95-3.81,44.4.78,79.76,13.67,81.24,14.22,2.02.74,3.04,2.98,2.3,4.99-.58,1.57-2.06,2.54-3.64,2.54Z"/>
      <path class="cls-8" d="m10.09,315.96c-1.42,0-2.79-.79-3.47-2.14-.96-1.92-.18-4.25,1.73-5.21,34.6-17.3,72.39-16.69,74.02-16.71,2.14.05,3.85,1.82,3.8,3.96-.04,2.12-1.77,3.8-3.88,3.8-.04,0,.14,0-.62,0-4.7,0-39.15.55-69.85,15.9-.56.28-1.15.41-1.74.41Z"/>
      <path class="cls-8" d="m376.54,278.7c-1.58,0-3.06-.97-3.64-2.54-.74-2.01.28-4.25,2.3-4.99,1.48-.55,36.84-13.44,81.24-14.22,2.11-.15,3.91,1.67,3.95,3.81.04,2.14-1.67,3.91-3.81,3.95-43.09.75-78.34,13.61-78.69,13.73-.44.16-.89.24-1.34.24Z"/>
      <path class="cls-8" d="m450.3,315.96c-.59,0-1.18-.13-1.74-.41-32.88-16.44-70.03-15.89-70.39-15.89h-.08c-2.11,0-3.84-1.69-3.88-3.8-.04-2.14,1.66-3.91,3.8-3.96,1.61,0,39.41-.59,74.03,16.71,1.92.96,2.69,3.29,1.73,5.21-.68,1.36-2.05,2.15-3.47,2.15Z"/>
      <path class="cls-2" d="m304.43,294.37c0,11.79,9.56,21.35,21.35,21.35s21.35-9.56,21.35-21.35-9.56-21.35-21.35-21.35-21.35,9.56-21.35,21.35Z"/>
      <path class="cls-2" d="m145.28,294.37c0,11.79-9.56,21.35-21.35,21.35s-21.35-9.56-21.35-21.35,9.56-21.35,21.35-21.35,21.35,9.56,21.35,21.35Z"/>
      <path class="cls-8" d="m169.42,271.39c0,9.86-7.99,17.86-17.86,17.86s-17.86-7.99-17.86-17.86,7.99-17.86,17.86-17.86,17.86,7.99,17.86,17.86Z"/>
      <path class="cls-8" d="m239.69,290.02c-5.8,0-11.25-2.6-14.84-6.73-3.59,4.12-9.03,6.73-14.84,6.73h-.06c-8.65-.02-15.54-5.71-17.98-14.83-.55-2.07.68-4.2,2.76-4.75,2.09-.55,4.2.69,4.75,2.75,1.53,5.75,5.35,9.05,10.49,9.07h.03c4.44,0,9.67-2.72,11.09-7.93.46-1.69,2-2.86,3.75-2.86s3.28,1.17,3.75,2.86c1.42,5.21,6.65,7.93,11.09,7.93h.03c5.14-.02,8.96-3.32,10.49-9.07.55-2.06,2.67-3.3,4.75-2.75,2.08.55,3.3,2.68,2.75,4.75-2.43,9.12-9.32,14.81-17.97,14.83h-.06Z"/>
      <circle class="cls-8" cx="298.14" cy="271.39" r="17.86" transform="translate(-65.91 444.61) rotate(-67.76)"/>
      <path class="cls-4" d="m225.63,481c51.51-21.54,71.18-65.56,57.13-90.85-14.05-25.29-39.33-21.54-57.13,8.43-17.79-29.97-43.08-33.72-57.13-8.43-14.05,25.29,5.62,69.31,57.13,90.85Z"/>
      <path class="cls-8" d="m225.63,484.88c-.51,0-1.02-.1-1.5-.3-30.13-12.6-52.22-33.72-60.62-57.94-4.89-14.09-4.32-27.72,1.6-38.37,6.64-11.94,16.16-18.6,26.8-18.75.12,0,.25,0,.38,0,11.72,0,23.64,7.88,33.34,21.88,9.71-14,21.63-21.88,33.35-21.88.12,0,.25,0,.38,0,10.65.15,20.17,6.81,26.8,18.75,5.92,10.66,6.48,24.29,1.6,38.37-8.4,24.22-30.5,45.34-60.63,57.94-.48.2-.99.3-1.5.3Zm-33.34-107.6c-.09,0-.18,0-.27,0-7.86.11-14.83,5.22-20.13,14.76-4.83,8.7-5.21,20.09-1.05,32.06,7.43,21.42,27.85,41.02,54.79,52.68,26.94-11.66,47.36-31.27,54.79-52.68,4.15-11.97,3.78-23.36-1.05-32.06-5.3-9.54-12.26-14.65-20.13-14.76-10.3-.43-21.39,8.33-30.27,23.28-.7,1.18-1.97,1.9-3.34,1.9h0c-1.37,0-2.64-.72-3.34-1.9-8.79-14.82-19.71-23.29-30-23.29Z"/>
      <path class="cls-5" d="m137.69,409.07c40.89-15.53,68.84-21.74,73.5,1.04,4.66,22.77-55.9,56.42-55.9,56.42l-17.6-57.45Z"/>
      <path class="cls-8" d="m155.3,470.4c-1.37,0-2.69-.72-3.4-2-1.04-1.87-.36-4.24,1.51-5.28,22.45-12.48,56.96-37.7,53.98-52.25-.96-4.68-3.04-7.84-6.37-9.68-11.4-6.27-37.71,2.29-61.94,11.49-2.01.77-4.25-.25-5.01-2.25-.76-2,.25-4.25,2.25-5.01,31.44-11.93,55.11-18.38,68.45-11.04,5.37,2.95,8.81,7.98,10.23,14.93,5.08,24.85-51.36,57-57.81,60.59-.6.33-1.24.49-1.88.49Z"/>
      <path class="cls-5" d="m314.76,409.07c-40.89-15.53-68.84-21.74-73.5,1.04-4.66,22.77,55.9,56.42,55.9,56.42l17.6-57.45Z"/>
      <path class="cls-8" d="m297.15,470.4c-.63,0-1.28-.16-1.88-.49-6.45-3.58-62.9-35.74-57.81-60.59,1.42-6.95,4.86-11.97,10.24-14.93,13.35-7.34,37.01-.89,68.44,11.04,2,.76,3.01,3,2.25,5.01-.76,2.01-2.98,3.02-5.01,2.25-24.23-9.2-50.52-17.77-61.94-11.49-3.33,1.83-5.41,5-6.37,9.68-2.98,14.55,31.53,39.77,53.98,52.25,1.87,1.04,2.55,3.4,1.51,5.28-.71,1.28-2.03,2-3.4,2Z"/>
      <path class="cls-4" d="m381.99,180.3c7.25-46.06-15.01-98.86-15.01-98.86,0,0-37.78,10.35-62.11,39.34,22.77-3.62,50.2,8.8,50.2,8.8,0,0-20.7-2.59-27.95,1.04,19.15,2.59,37.78,18.12,37.78,18.12,0,0-10.87-4.66-20.19-2.59,22.77,16.04,37.27,34.16,37.27,34.16Z"/>
      <path class="cls-4" d="m70.57,180.3c-7.25-46.06,15.01-98.86,15.01-98.86,0,0,37.78,10.35,62.11,39.34-22.77-3.62-50.21,8.8-50.21,8.8,0,0,20.7-2.59,27.95,1.04-19.15,2.59-37.78,18.12-37.78,18.12,0,0,10.87-4.66,20.19-2.59-22.77,16.04-37.27,34.16-37.27,34.16Z"/>
    </g>
  </g>
</svg>