<?xml version="1.0" encoding="UTF-8"?>
<svg id="Layer_2" data-name="Layer 2" xmlns="http://www.w3.org/2000/svg" viewBox="0 0 254.65 561.73">
  <defs>
    <style>
      .cls-1 {
        fill: #f7ca94;
      }

      .cls-1, .cls-2, .cls-3, .cls-4, .cls-5, .cls-6 {
        stroke-width: 0px;
      }

      .cls-2 {
        fill: #88cf8d;
      }

      .cls-3 {
        fill: #fff;
      }

      .cls-4 {
        fill: #9e4d1f;
      }

      .cls-5 {
        fill: #ffa1a8;
      }

      .cls-6 {
        fill: #73371a;
      }
    </style>
  </defs>
  <g id="objects">
    <g>
      <path class="cls-2" d="m44.63,232.72c-4.48,7.82-17.72,32.15-17.72,46.45v211.2c0,20.49,11.41,44.02,100.41,44.02,64.75,0,100.41-13.15,100.41-37.02v-208.13c0-18.09-13.51-47.37-17.93-56.47-17.23,4.26-44.28,8.67-82.48,8.67s-65.48-4.44-82.69-8.72Z"/>
      <path class="cls-1" d="m177.75,98.33L215.03,14.17c-3.59-3.01-11.67-8.62-18.78-5.39l-40.28,83.31c2.09,2.04,3.8,4.34,4.98,7,6.34-1.02,11.91-1.19,16.8-.77Z"/>
      <path class="cls-5" d="m28.54,181.05c-3.58,5.11-.25,10.6,1.09,12.44,23.31,10.18,62.68,13.5,63.08,13.53,2.14.17,3.73,2.05,3.55,4.18-.17,2.03-1.86,3.57-3.86,3.57-.11,0-.21,0-.32-.01-1.64-.13-38.88-3.28-63.45-13.27-2.8,4.64-6.34,12.6-3.12,16.87,5.1,2.26,37.38,15.3,101.82,15.3s96.74-13.04,101.82-15.3c3.27-4.32-.4-12.43-3.22-17.05-36.45,12.31-98.93,13.41-101.64,13.45h-.06c-2.12,0-3.85-1.7-3.88-3.82-.03-2.14,1.68-3.91,3.82-3.94.66-.01,65.99-1.16,100.94-13.62,1.43-1.99,4.53-7.34,1.02-12.34-10.08,2.48-50.91,11.73-98.79,11.73s-88.7-9.25-98.79-11.73Z"/>
      <path class="cls-3" d="m81.53,125.75c4.04.15,37.31.5,72.18-23.71-3.85-8.09-15.86-12.34-28.54-16.8-18.83-6.62-42.01-14.77-37.58-40.28-14.74.26-32.6,12.54-40.84,28.79-4.74,9.36-9.9,27.67,7.84,46.23,10.09.98,18.87,3.12,26.93,5.78Z"/>
      <path class="cls-3" d="m127.32,185.02c46.56,0,86.2-8.88,96.51-11.4.3-6.57-.46-23.55-15.77-26.72-1.09-.22-2.02-.9-2.58-1.86-.55-.96-.67-2.11-.32-3.17,2.83-8.5.65-18.54-5.55-25.57-8.15-9.23-22.22-12.45-39.69-9.13-23.41,16.77-46.04,22.96-61.11,25.18,1.13.47,2.25.94,3.36,1.41,19.26,8.12,39.19,16.54,73.49,14.77,2.18-.11,3.97,1.54,4.07,3.68.11,2.14-1.54,3.97-3.68,4.07-3.29.17-6.45.25-9.49.25-30.36,0-49.17-7.93-67.41-15.62-6.42-2.71-12.68-5.34-19.32-7.58-.04-.01-.08-.03-.12-.04-8.18-2.75-16.93-4.88-27.25-5.75-.05,0-.09-.02-.14-.03-.08,0-.15,0-.23-.02-11.4-2.08-23.7,4.22-29.26,14.96-5.23,10.11-2.89,21.27,6.36,30.76,6.88,1.75,48.63,11.8,98.12,11.8Z"/>
      <path class="cls-5" d="m229.16,226.79c-2.63,1.04-6.52,2.42-11.72,3.93,5.2,10.82,18.05,39.47,18.05,58.52v208.13c0,20.43-18.77,44.78-108.17,44.78-73.8,0-108.17-16.45-108.17-51.78v-211.2c0-15.3,12.25-38.8,17.73-48.54-5.04-1.48-8.82-2.83-11.4-3.84-1.62,4.74-3.81,9.48-6.1,14.43-5.45,11.78-11.63,25.12-11.63,42.54v213.61c0,19.19,5.9,31.05,19.72,39.66,18.29,11.39,50.96,16.93,99.85,16.93s81.55-5.54,99.85-16.93c13.82-8.61,19.72-20.47,19.72-39.66v-213.61c0-17.42-6.18-30.77-11.63-42.54-2.29-4.95-4.48-9.69-6.1-14.43Z"/>
      <path class="cls-6" d="m235.89,222.36c5.73-8.57-.5-20.54-3.68-25.62,3.24-5.19,5.72-13.83-.69-21.39.92-10.86-1.9-29.18-17.97-34.96,1.95-10.12-1.05-21.22-8.12-29.23-3.43-3.89-9.67-9.02-19.77-11.53L223.26,14.76c.64-1.44.34-3.13-.75-4.27-.66-.68-16.26-16.59-31.15-7.9-.67.39-1.2.97-1.54,1.66l-40.15,83.03c-6.32-3.87-14.19-6.64-21.93-9.36-23.55-8.28-37.43-14.8-31.62-35.47.3-1.07.13-2.22-.47-3.15-.6-.93-1.58-1.57-2.67-1.73-18.72-2.89-42.55,11.78-53.14,32.68-8.49,16.76-6.87,34.33,4.26,49.33-11.59,1.29-22.57,8.55-28.15,19.33-6.44,12.45-4.14,26.41,6.04,37.96-4.93,7.17-2.57,15.04.46,19.89-3.18,5.07-9.41,17.04-3.68,25.62-1.5,4.97-3.9,10.15-6.42,15.6-5.79,12.5-12.34,26.68-12.34,45.8v213.61c0,14.75,2.66,33.34,23.37,46.25,19.56,12.18,53.57,18.11,103.95,18.11,105.67,0,127.32-25.73,127.32-64.35v-213.61c0-19.13-6.56-33.3-12.34-45.8-2.52-5.45-4.92-10.63-6.42-15.6Zm-10.79-28.96c-34.94,12.46-100.27,13.61-100.94,13.62-2.14.03-3.85,1.8-3.82,3.94.03,2.12,1.76,3.82,3.88,3.82h.06c2.71-.04,65.19-1.14,101.64-13.45,2.82,4.62,6.49,12.73,3.22,17.05-5.07,2.26-37.13,15.3-101.82,15.3s-96.72-13.05-101.82-15.3c-3.23-4.27.31-12.23,3.12-16.87,24.57,9.99,61.81,13.13,63.45,13.27.11,0,.21.01.32.01,2,0,3.7-1.54,3.86-3.57.17-2.14-1.42-4.01-3.55-4.18-.4-.03-39.77-3.36-63.08-13.53-1.34-1.84-4.67-7.33-1.09-12.44,10.08,2.48,50.92,11.73,98.79,11.73s88.71-9.25,98.79-11.73c3.51,5,.41,10.35-1.02,12.34Zm-15.29,39.38c4.42,9.1,17.93,38.38,17.93,56.47v208.13c0,23.87-35.66,37.02-100.41,37.02-89,0-100.41-23.52-100.41-44.02v-211.2c0-14.3,13.24-38.64,17.72-46.45,17.21,4.27,44.34,8.72,82.69,8.72s65.26-4.41,82.48-8.67Zm-13.55-223.99c7.11-3.24,15.19,2.38,18.78,5.39l-37.28,84.16c-4.89-.42-10.46-.25-16.8.77-1.18-2.66-2.9-4.95-4.98-7L196.25,8.78ZM46.76,73.74c8.23-16.24,26.09-28.53,40.84-28.79-4.43,25.51,18.75,33.66,37.58,40.28,12.68,4.46,24.69,8.7,28.54,16.8-34.87,24.21-68.14,23.86-72.18,23.71-8.07-2.66-16.84-4.8-26.93-5.78-17.74-18.55-12.58-36.87-7.84-46.23Zm-23.92,68.72c5.55-10.74,17.86-17.03,29.26-14.96.08.01.15.01.23.02.05,0,.09.02.14.03,10.32.87,19.07,3,27.25,5.75.04.01.08.03.12.04,6.63,2.23,12.9,4.87,19.32,7.58,18.24,7.69,37.04,15.62,67.41,15.62,3.04,0,6.2-.08,9.49-.25,2.14-.11,3.79-1.93,3.68-4.07-.11-2.14-1.89-3.79-4.07-3.68-34.3,1.77-54.22-6.65-73.49-14.77-1.12-.47-2.24-.94-3.36-1.41,15.07-2.22,37.7-8.41,61.11-25.18,17.47-3.32,31.55-.1,39.69,9.13,6.21,7.03,8.39,17.07,5.55,25.57-.35,1.05-.23,2.2.32,3.17.55.96,1.49,1.64,2.58,1.86,15.32,3.17,16.07,20.16,15.77,26.72-10.31,2.52-49.95,11.4-96.51,11.4-49.49,0-91.24-10.05-98.12-11.8-9.26-9.48-11.59-20.65-6.36-30.76Zm224.05,354.91c0,19.19-5.9,31.05-19.72,39.66-18.29,11.39-50.96,16.93-99.85,16.93s-81.55-5.54-99.85-16.93c-13.82-8.61-19.72-20.47-19.72-39.66v-213.61c0-17.42,6.18-30.77,11.63-42.54,2.29-4.95,4.48-9.69,6.1-14.43,2.58,1.01,6.36,2.37,11.4,3.84-5.48,9.74-17.73,33.24-17.73,48.54v211.2c0,35.33,34.37,51.78,108.17,51.78,89.41,0,108.17-24.35,108.17-44.78v-208.13c0-19.05-12.85-47.7-18.05-58.52,5.19-1.51,9.09-2.9,11.72-3.93,1.62,4.74,3.81,9.48,6.1,14.43,5.45,11.78,11.63,25.12,11.63,42.54v213.61Z"/>
      <g>
        <path class="cls-4" d="m94.49,483.96c0,13.4-10.86,24.26-24.25,24.26s-24.25-10.86-24.25-24.26,10.86-24.25,24.25-24.25,24.25,10.86,24.25,24.25Z"/>
        <path class="cls-6" d="m70.23,512.1c-15.52,0-28.14-12.62-28.14-28.14s12.62-28.14,28.14-28.14,28.14,12.62,28.14,28.14-12.62,28.14-28.14,28.14Zm0-48.51c-11.23,0-20.37,9.14-20.37,20.37s9.14,20.37,20.37,20.37,20.37-9.14,20.37-20.37-9.14-20.37-20.37-20.37Z"/>
      </g>
      <g>
        <path class="cls-4" d="m153.49,497.94c0,13.4-10.86,24.25-24.25,24.25s-24.25-10.86-24.25-24.25,10.86-24.25,24.25-24.25,24.25,10.86,24.25,24.25Z"/>
        <path class="cls-6" d="m129.24,526.07c-15.52,0-28.14-12.62-28.14-28.13s12.63-28.14,28.14-28.14,28.14,12.62,28.14,28.14-12.62,28.13-28.14,28.13Zm0-48.51c-11.24,0-20.38,9.14-20.38,20.38s9.14,20.37,20.38,20.37,20.37-9.14,20.37-20.37-9.14-20.38-20.37-20.38Z"/>
      </g>
      <g>
        <circle class="cls-4" cx="136.23" cy="461.45" r="24.26"/>
        <path class="cls-6" d="m136.23,489.59c-15.52,0-28.14-12.62-28.14-28.14s12.63-28.14,28.14-28.14,28.14,12.62,28.14,28.14-12.62,28.14-28.14,28.14Zm0-48.51c-11.24,0-20.38,9.14-20.38,20.38s9.14,20.37,20.38,20.37,20.37-9.14,20.37-20.37-9.14-20.38-20.37-20.38Z"/>
      </g>
      <g>
        <path class="cls-4" d="m214.05,419.52c0,13.4-10.86,24.26-24.25,24.26s-24.25-10.86-24.25-24.26,10.86-24.25,24.25-24.25,24.25,10.86,24.25,24.25Z"/>
        <path class="cls-6" d="m189.8,447.66c-15.52,0-28.14-12.62-28.14-28.14s12.62-28.14,28.14-28.14,28.14,12.62,28.14,28.14-12.62,28.14-28.14,28.14Zm0-48.51c-11.23,0-20.37,9.14-20.37,20.38s9.14,20.37,20.37,20.37,20.37-9.14,20.37-20.37-9.14-20.38-20.37-20.38Z"/>
      </g>
      <g>
        <path class="cls-4" d="m88.28,418.75c0,13.4-10.86,24.25-24.25,24.25s-24.26-10.86-24.26-24.25,10.86-24.26,24.26-24.26,24.25,10.86,24.25,24.26Z"/>
        <path class="cls-6" d="m64.02,446.89c-15.52,0-28.14-12.62-28.14-28.14s12.62-28.14,28.14-28.14,28.14,12.62,28.14,28.14-12.62,28.14-28.14,28.14Zm0-48.51c-11.23,0-20.37,9.14-20.37,20.38s9.14,20.37,20.37,20.37,20.37-9.14,20.37-20.37-9.14-20.38-20.37-20.38Z"/>
      </g>
      <g>
        <path class="cls-4" d="m126.32,402.44c0,13.4-10.86,24.25-24.26,24.25s-24.25-10.86-24.25-24.25,10.86-24.26,24.25-24.26,24.26,10.86,24.26,24.26Z"/>
        <path class="cls-6" d="m102.07,430.58c-15.52,0-28.14-12.62-28.14-28.14s12.62-28.14,28.14-28.14,28.14,12.62,28.14,28.14-12.62,28.14-28.14,28.14Zm0-48.51c-11.23,0-20.37,9.14-20.37,20.37s9.14,20.37,20.37,20.37,20.37-9.14,20.37-20.37-9.14-20.37-20.37-20.37Z"/>
      </g>
      <g>
        <circle class="cls-4" cx="191.35" cy="337.23" r="24.26"/>
        <path class="cls-6" d="m191.35,365.37c-15.52,0-28.14-12.62-28.14-28.14s12.62-28.14,28.14-28.14,28.14,12.62,28.14,28.14-12.62,28.14-28.14,28.14Zm0-48.51c-11.23,0-20.37,9.14-20.37,20.37s9.14,20.37,20.37,20.37,20.37-9.14,20.37-20.37-9.14-20.37-20.37-20.37Z"/>
      </g>
      <g>
        <path class="cls-4" d="m85.95,347.32c0,13.4-10.86,24.26-24.25,24.26s-24.26-10.86-24.26-24.26,10.86-24.25,24.26-24.25,24.25,10.86,24.25,24.25Z"/>
        <path class="cls-6" d="m61.69,375.46c-15.52,0-28.14-12.62-28.14-28.14s12.62-28.14,28.14-28.14,28.14,12.62,28.14,28.14-12.63,28.14-28.14,28.14Zm0-48.51c-11.23,0-20.37,9.14-20.37,20.37s9.14,20.37,20.37,20.37,20.38-9.14,20.38-20.37-9.14-20.37-20.38-20.37Z"/>
      </g>
      <g>
        <path class="cls-4" d="m144.95,317.04c0,13.4-10.86,24.26-24.25,24.26s-24.25-10.86-24.25-24.26,10.86-24.25,24.25-24.25,24.25,10.86,24.25,24.25Z"/>
        <path class="cls-6" d="m120.7,345.18c-15.52,0-28.14-12.62-28.14-28.14s12.62-28.14,28.14-28.14,28.14,12.62,28.14,28.14-12.62,28.14-28.14,28.14Zm0-48.51c-11.23,0-20.37,9.14-20.37,20.37s9.14,20.37,20.37,20.37,20.37-9.14,20.37-20.37-9.14-20.37-20.37-20.37Z"/>
      </g>
      <g>
        <circle class="cls-4" cx="162.62" cy="363.63" r="24.25"/>
        <path class="cls-6" d="m162.62,391.76c-15.52,0-28.14-12.62-28.14-28.14s12.62-28.14,28.14-28.14,28.14,12.62,28.14,28.14-12.62,28.14-28.14,28.14Zm0-48.51c-11.23,0-20.37,9.14-20.37,20.37s9.14,20.37,20.37,20.37,20.37-9.14,20.37-20.37-9.14-20.37-20.37-20.37Z"/>
      </g>
      <g>
        <path class="cls-4" d="m218.71,485.52c0,13.4-10.86,24.25-24.25,24.25s-24.25-10.86-24.25-24.25,10.86-24.26,24.25-24.26,24.25,10.86,24.25,24.26Z"/>
        <path class="cls-6" d="m194.46,513.65c-15.52,0-28.14-12.62-28.14-28.14s12.62-28.14,28.14-28.14,28.14,12.62,28.14,28.14-12.62,28.14-28.14,28.14Zm0-48.51c-11.23,0-20.37,9.14-20.37,20.37s9.14,20.37,20.37,20.37,20.37-9.14,20.37-20.37-9.14-20.37-20.37-20.37Z"/>
      </g>
    </g>
  </g>
</svg>