<?xml version="1.0" encoding="UTF-8"?>
<svg id="Layer_2" data-name="Layer 2" xmlns="http://www.w3.org/2000/svg" viewBox="0 0 315.09 284.76">
  <defs>
    <style>
      .cls-1 {
        fill: #f7ca94;
      }

      .cls-1, .cls-2, .cls-3, .cls-4 {
        stroke-width: 0px;
      }

      .cls-2 {
        fill: #88cf8d;
      }

      .cls-3 {
        fill: #73371a;
      }

      .cls-4 {
        fill: #fc6b60;
      }
    </style>
  </defs>
  <g id="objects">
    <g>
      <g>
        <path class="cls-2" d="m206.65,99.12C172.49,61.85,188.02,3.88,188.02,3.88c0,0,21.74,19.67,28.98,52.79,5.18-22.77,30.02-41.41,30.02-41.41,0,0,14.49,33.12-1.04,63.14,21.74-15.53,52.79-9.32,52.79-9.32,0,0-7.25,25.88-34.16,36.23,25.88,2.07,40.37,18.63,46.58,41.41-50.72,14.49-104.55-47.62-104.55-47.62Z"/>
        <path class="cls-3" d="m295.14,152.83c-46.22,0-88.93-48.31-91.38-51.13C168.6,63.31,183.62,5.33,184.27,2.88c.35-1.31,1.35-2.34,2.65-2.72,1.26-.39,2.69-.07,3.7.84.81.73,17.73,16.28,26.88,43.05,8.99-18.09,26.31-31.24,27.19-31.9.95-.72,2.17-.96,3.32-.65,1.15.3,2.1,1.11,2.57,2.2.55,1.26,11.99,28.01,3.22,55.91,21.09-9.08,44.6-4.56,45.75-4.33,1.05.21,1.98.85,2.54,1.77.57.92.72,2.04.43,3.08-.28.97-6.06,20.88-25.73,33.39,18.94,5.31,32.02,19.69,38.16,42.18.56,2.05-.63,4.17-2.68,4.75-5.72,1.64-11.46,2.36-17.14,2.37ZM190.33,12.01c-2.72,16.24-6.24,56.75,19.18,84.49.03.02.05.05.07.08.51.59,50.01,56.98,96.73,47.36-6.97-21.38-21.09-33.07-42.01-34.74-1.81-.15-3.27-1.52-3.53-3.32-.26-1.79.75-3.53,2.45-4.18,18.34-7.06,26.96-22.08,30.2-29.44-9.08-.96-29.86-1.64-45.19,9.3-1.47,1.04-3.44.95-4.8-.23-1.35-1.17-1.73-3.12-.91-4.72,11.09-21.43,5.85-44.84,2.71-54.84-7.02,6.2-20.9,20.09-24.46,35.74-.4,1.77-2.11,2.86-3.8,3.02-1.82,0-3.38-1.28-3.77-3.05-4.79-21.87-16.27-37.78-22.89-45.5Z"/>
      </g>
      <g>
        <path class="cls-4" d="m12.4,233.14C.4,209.49.43,179.59,17.51,149.49,44.89,101.23,124.28,17.19,188.31,40.28c73.4,26.46,108.27,111.96,74.49,164.65-31.39,48.96-109.26,76.25-164.62,75.95-40.06-.21-71.48-19.54-85.79-47.74Z"/>
        <path class="cls-3" d="m99.08,284.76h-.92c-40.14-.21-73.5-18.85-89.23-49.86h0c-13.5-26.61-11.65-57.63,5.2-87.33C42.74,97.14,123.59,12.8,189.63,36.63c39.13,14.11,70.4,45.83,83.66,84.86,10.48,30.86,7.85,62.04-7.22,85.54-31.28,48.79-109.24,77.74-166.99,77.74ZM15.86,231.39c14.39,28.36,45.17,45.42,82.34,45.61,55.69,0,131.33-27.37,161.34-74.16,13.78-21.51,16.11-50.25,6.4-78.86-12.5-36.81-42.01-66.74-78.94-80.05C126.04,21.96,47.51,104.47,20.89,151.41c-15.52,27.36-17.31,55.76-5.03,79.98h0Z"/>
      </g>
      <path class="cls-1" d="m162.24,65.89c-1.75-1.6-3.89-2.62-6.31-2.62-2.29,0-4.69,1-6.31,2.62s-2.71,4.09-2.61,6.31c.1,2.31.86,4.7,2.61,6.31,1.75,1.6,3.89,2.61,6.31,2.61,2.29,0,4.69-1,6.31-2.61,1.55-1.55,2.71-4.09,2.62-6.31-.1-2.31-.86-4.7-2.62-6.31Z"/>
      <path class="cls-1" d="m209.76,88.12c-11.49,0-11.51,17.86,0,17.86s11.51-17.86,0-17.86Z"/>
      <path class="cls-1" d="m168.35,147.61c-10.87,0-10.88,16.89,0,16.89s10.88-16.89,0-16.89Z"/>
      <path class="cls-1" d="m234.6,134.41c-11.86,0-11.88,18.44,0,18.44s11.88-18.44,0-18.44Z"/>
      <path class="cls-1" d="m117.63,99.28c-9.12,0-9.13,14.17,0,14.17s9.13-14.17,0-14.17Z"/>
      <path class="cls-1" d="m201.48,209.27c-10.12,0-10.13,15.72,0,15.72s10.13-15.72,0-15.72Z"/>
      <path class="cls-1" d="m112.76,142.7c-.24.08-.48.15-.71.23-1.96.63-3.57,1.7-4.84,3.34-1.21,1.57-2.09,3.6-2,5.64.07,1.65.5,3.24,1.27,4.7,1.11,2.1,3.38,3.58,5.57,4.28.24.08.48.15.71.23,5.96,1.91,12.09-3.22,12.09-9.21s-6.13-11.12-12.09-9.21Z"/>
      <path class="cls-1" d="m160.07,202.64c-11.99,0-12.01,18.63,0,18.63s12.01-18.63,0-18.63Z"/>
      <path class="cls-1" d="m95.89,242c-10.62,0-10.63,16.5,0,16.5s10.63-16.5,0-16.5Z"/>
      <path class="cls-1" d="m104.07,187.21c-1.69-1.55-3.77-2.53-6.11-2.53-2.21,0-4.54.96-6.11,2.53-1.5,1.5-2.63,3.96-2.53,6.11.1,2.23.83,4.55,2.53,6.11,1.69,1.55,3.77,2.53,6.11,2.53,2.21,0,4.54-.96,6.11-2.53s2.63-3.96,2.53-6.11c-.1-2.23-.83-4.55-2.53-6.11Z"/>
      <path class="cls-1" d="m65.87,135.03c-9.74,0-9.76,15.14,0,15.14s9.76-15.14,0-15.14Z"/>
      <path class="cls-1" d="m53.02,201c-1.63-1.63-4.55-2.68-6.81-1.8-.32.12-.64.25-.95.37-1.27.36-2.36,1-3.3,1.92-.93.93-1.57,2.03-1.92,3.3-.71,2.57.04,5.39,1.92,7.27,1.88,1.88,4.7,2.63,7.27,1.92,1.27-.36,2.37-1,3.3-1.92.93-.93,1.57-2.03,1.92-3.3.12-.32.25-.64.37-.95.88-2.26-.17-5.18-1.8-6.81Z"/>
      <path class="cls-1" d="m172.49,111.15c-8.49,0-8.51,13.2,0,13.2s8.51-13.2,0-13.2Z"/>
      <path class="cls-1" d="m233.57,177.5c-12.36,0-12.38,19.22,0,19.22s12.38-19.22,0-19.22Z"/>
    </g>
  </g>
</svg>