<?xml version="1.0" encoding="UTF-8"?>
<svg id="Layer_2" data-name="Layer 2" xmlns="http://www.w3.org/2000/svg" viewBox="0 0 694.44 608.63">
  <defs>
    <style>
      .cls-1 {
        fill: #c5a6fb;
      }

      .cls-1, .cls-2, .cls-3, .cls-4, .cls-5, .cls-6, .cls-7, .cls-8, .cls-9, .cls-10 {
        stroke-width: 0px;
      }

      .cls-2 {
        fill: #f58f99;
      }

      .cls-3 {
        fill: #f7ca94;
      }

      .cls-4 {
        fill: #fc908a;
      }

      .cls-5 {
        fill: #88cf8d;
      }

      .cls-6 {
        fill: #fff;
      }

      .cls-7 {
        fill: #fc9189;
      }

      .cls-8 {
        fill: #a7b5ee;
      }

      .cls-9 {
        fill: #ffa1a8;
      }

      .cls-10 {
        fill: #73371a;
      }
    </style>
  </defs>
  <g id="objects">
    <g>
      <path class="cls-6" d="m121.13,120.05c.47-5.69,1.8-11.05,3.81-15.95-23.55-8.53-48.38-8.38-56.99-8-1.12,11.86-3.74,54.51,11.98,85.14,3.84-6.73,7.84-12.48,11.65-17.28,12.87-16.23,25.59-24.77,29.97-27.44-.77-5.02-.92-10.51-.43-16.47Z"/>
      <path class="cls-10" d="m67.95,96.1c8.61-.37,33.44-.53,56.99,8,1.01-2.45,2.18-4.79,3.52-6.98-30.79-11.45-62.98-8.69-64.37-8.57-1.81.16-3.26,1.56-3.5,3.35-.32,2.42-7.61,59.53,15,97.53,1.41-2.89,2.86-5.61,4.34-8.2-15.72-30.63-13.1-73.28-11.98-85.14Z"/>
      <path class="cls-4" d="m90.06,169.28c-12.42-26.4-9.32-57.45-9.32-57.45,0,0,29.5-5.43,44.25,6.99v19.41s-28.73,17.08-34.94,31.05Z"/>
      <path class="cls-8" d="m413.79,324.69c5.68,3.23,13.43,3.5,23.03.79,11.18-3.15,17.71-9.18,18.89-17.43,1.18-8.27-3.37-15.97-8.25-19.02-5.63-3.52-10.57-2.16-13.09.07-2.57,2.27-3.12,5.54-1.52,8.97.91,1.94.07,4.25-1.88,5.16-1.94.9-4.25.07-5.16-1.88-3.07-6.57-1.76-13.5,3.41-18.07,4.88-4.32,13.68-6.25,22.35-.84,8.32,5.2,13.29,16.43,11.82,26.7-.85,5.94-4.58,16.15-19.35,22.05,9.24,10.91,25.54,12.4,37.51,7.78,9.72-3.75,19.08-12.55,16.19-26.03-.26-1.22.08-2.5.92-3.43.84-.93,2.07-1.39,3.32-1.24,11.03,1.3,17.08-7.1,19.08-15.39,2.25-9.37-.22-21.14-9.23-24.48-1.45-.54-2.44-1.88-2.53-3.43-.08-1.54.76-2.99,2.14-3.68.9-.45,22.16-11.48,18.11-33.08-.68-3.65-4-6.18-9.84-7.52-23.23-5.31-75.65,11.16-100.45,44.81-.22.3-.49.55-.78.77-1.57,16.17-5.8,32.93-12.6,48.68,0,.03.02.05.03.08.08.3,1.72,6.14,7.87,9.64Z"/>
      <path class="cls-8" d="m306.23,86.46c-8.24-21.14-33.18-27.22-44.35-28.9-28.86-4.34-65.54,4.67-79.2,27.09,2.96,2.04,5.77,4.5,8.37,7.4,10.68-6.13,47.81-25,76.06-9.8,2.07-.68,4.22-1.18,6.48-1.45,13.23-1.59,24.03,1.18,32.63,5.66Z"/>
      <path class="cls-6" d="m484.35,346.22c-5.15,1.99-10.86,3.06-16.59,3.06-11.98,0-24.09-4.7-31.64-15.63-3.99.94-7.76,1.43-11.26,1.43-5.72,0-10.76-1.25-15.07-3.76-3.75-2.18-6.33-4.97-8.07-7.51-13.58,26.6-32.96,44.35-55.22,50.29-.34.09-.67.13-1,.13-1.72,0-3.28-1.15-3.75-2.88-.55-2.07.68-4.2,2.75-4.75,21.98-5.86,41.06-24.84,53.73-53.44,15.69-35.42,17.49-77.9,4.38-103.29-.55-1.06-.58-2.32-.08-3.41.12-.27,12.74-29.77-3.43-107.5-54.05,6.27-87.78,39.33-88.12,39.67-1.52,1.51-3.97,1.51-5.49,0-1.51-1.52-1.51-3.97,0-5.49.21-.21,1.09-1.08,2.59-2.41-5.47,1.35-11.64,7.92-20.82,18.17-8.08,9.02-18.13,20.24-31.08,29.71-13.93,10.19-28.66,14.58-42.35,14.58-18.3,0-34.72-7.85-44.91-20.13-16.87-.82-29.55-5.84-37.7-14.97-3.43-3.84-6-8.37-7.73-13.57-12.44,8.39-55.28,42.58-55.92,115.61-.01,1.21-.58,2.35-1.55,3.07-13.43,10.07-21.3,26.56-20.55,43.03.84,18.53,12.17,35.44,31.9,47.61,45.15,27.84,138.39,29.69,139.33,29.7,2.14.04,3.85,1.8,3.82,3.94-.03,2.12-1.77,3.82-3.88,3.82-.02,0-.04,0-.07,0-2.13-.03-30.58-.6-63.62-5.8-.56,61.67,30.35,98.63,91.94,109.92-1.13-9.56-1.82-15.79-1.84-15.96-.24-2.13,1.3-4.05,3.43-4.29,2.14-.24,4.05,1.3,4.29,3.43.05.49,5.49,49.26,10.85,85.26,3.11,20.88,6.47,30.93,11.6,34.71,3.23,2.38,7.81,2.85,15.8,1.62,11.57-1.78,28.07-23.53,41-117.03.29-2.12,2.25-3.61,4.38-3.31,2.12.29,3.61,2.25,3.31,4.38-.95,6.9-1.94,13.48-2.95,19.78,45.57,3.83,82.4-2.86,89.97-4.38-.7-3-1.42-5.91-2.21-8.65-.59-2.06.61-4.21,2.67-4.8,2.06-.59,4.21.61,4.8,2.67,3.75,13.13,6.39,29.24,8.94,44.82,3.73,22.79,7.59,46.36,14.66,57.41,3.38,5.29,7.31,7.69,11.66,7.15,8.55-1.06,17.92-12.64,23.31-28.8,4.51-13.53,11.95-39.42,18.52-62.27,7.34-25.54,13.68-47.59,15.79-52.24.41-.89,1.1-2.13,2.05-3.83,28.08-50.09,25.4-96.73-7.92-138.66-3.24,2.12-6.96,3.39-11,3.67.72,13.11-7.38,24.61-21.63,30.11Z"/>
      <path class="cls-9" d="m325.67,116.58c-.62-1.32-15.68-32.34-51.14-28.06-15.37,1.84-25.46,17.18-37.15,34.94-13.91,21.14-29.53,44.87-58.27,49.07,16.56,14.82,46.46,18.88,72.48-.16,12.29-8.99,21.63-19.43,29.88-28.63,12.55-14.02,22.57-25.19,34.89-19.74,2.75-2.07,5.99-4.36,9.71-6.76-.15-.2-.28-.42-.39-.66Z"/>
      <path class="cls-5" d="m230.89,119.19c8.5-12.91,16.67-25.32,27.22-32.45-26.95-9.49-62.02,11.29-65.51,13.43-8.38,8.26-17.76,12.91-25.05,12.91-2.85,0-5.39-.71-7.41-2.2-1.74-1.28-6.99-6.31-1.32-17.15.99-1.9,3.34-2.63,5.24-1.64,1.9,1,2.63,3.34,1.64,5.24-1.84,3.51-2.22,6.37-.96,7.29,2.22,1.63,10.38.73,20.1-7.83-8.94-9.64-20.55-13.41-31.67-10.06-13.38,4.03-22.92,17.36-24.31,33.97-1.17,14.05,1.56,24.9,8.13,32.25,6.94,7.78,18.33,11.97,33.83,12.46,29.94-.44,45.25-23.71,60.06-46.21Z"/>
      <path class="cls-6" d="m386.26,516.31c-2.24,35.63-2.3,48.04,11.71,49.72,13.71,1.66,28.72-21.47,33.35-30.52,0-.01.01-.02.02-.03-.03-.18-.06-.37-.09-.55-1.53-9.32-3.09-18.82-4.89-27.7-4.61.95-19.16,3.68-39.85,5.01l-.25,4.08Z"/>
      <path class="cls-7" d="m589.45,326.6c17.02,2.64,32.59,12.35,39.68,24.75,1.54,2.7,3.15,5.12,4.78,7.29,1.99-2.62,4.93-5.01,8.56-6.83,9.14-4.57,20.07-4.46,30,.29,1.02.49,2.02,1.05,2.99,1.66,10.84-29.52-8.33-41.73-14.76-44.87-13.65-6.66-32.73-5.1-40.67,7.41,2.23,1.48,4.26,3.01,6.01,4.59,3.67,3.32,9.05,6.91,13.87,5.14,3.52-1.29,5.17-4.72,5.27-5.48,0-2.14,1.74-3.83,3.88-3.83s3.88,1.79,3.88,3.93c0,3.91-3.78,9.78-9.4,12.27-4.82,2.14-12.68,2.79-22.71-6.29-8.99-8.13-30.76-17.9-51.03-14.17-12.98,2.39-22.89,9.94-29.48,22.43.69,1.44,1.38,2.89,2.01,4.34,13.34-10.83,29.92-15.33,47.12-12.66Z"/>
      <path class="cls-3" d="m673.44,361.79c-1.37-1.05-2.82-1.96-4.33-2.68-11.01-5.27-19.88-2-23.18-.35-3.66,1.83-5.9,4.21-6.73,6.01,5.56,5.52,11.03,8.32,15.17,9.07,3.45.62,6.31.02,8.49-1.8,1.65-1.37,4.1-1.15,5.47.5,1.37,1.65,1.15,4.1-.5,5.47-3.05,2.54-6.78,3.84-10.94,3.84-1.26,0-2.56-.12-3.9-.36-10.89-1.96-22.33-11.79-30.61-26.28-5.96-10.43-19.35-18.64-34.13-20.93-15.81-2.45-31.02,2.05-42.96,12.66,1.9,5.37,3.42,10.8,4.49,16.3,24.03-.43,38.35,26.3,49.94,47.95,3.18,5.93,6.18,11.54,9.1,16.08,5.96,9.28,17.45,15.18,29.96,15.39,14.63.25,28.29-7.1,37.34-20.16,9.46-13.66,12.7-28.61,9.12-42.09-1.74-6.53-5.03-12.26-9.28-16.41-.19-.05-.39-.11-.58-.19-.92-.42-1.59-1.15-1.96-2.01Z"/>
      <path class="cls-1" d="m568.39,304.85c15.42-2.84,32.21,1.13,44.87,7.54,8.2-13.35,24.82-17.26,39.73-14.21-.36-24.91-19.12-35.19-35.73-36.37-16.49-1.17-34.26,6.27-36.41,20.75,6.17.4,11.61,1.31,15.49,1.97,1.03.18,1.99.34,2.84.47,11.68,1.84,16-5.5,16.18-5.81,1.05-1.85,3.4-2.53,5.27-1.5,1.86,1.03,2.56,3.34,1.55,5.21-.27.51-6.93,12.49-24.21,9.76-.88-.14-1.86-.31-2.93-.49-16.77-2.85-51.66-8.78-61.02,28.65-.13.51-.36.96-.65,1.36.94,1.52,1.82,3.05,2.69,4.59,7.66-11.89,18.73-19.43,32.32-21.93Z"/>
      <path class="cls-6" d="m185.52,510.67c-6.02,27.04-11.72,52.59,1.67,58.8,17.6,8.17,49.83-31.91,59.3-51.72.23-.48.55-.89.92-1.23-.57-4.61-1.1-8.99-1.59-13.03-21.64-3.71-39.91-10.53-54.71-20.31-1.56,9.22-3.59,18.49-5.6,27.49Z"/>
      <path class="cls-10" d="m330.83,118.45c-1.7.8-3.69.24-4.77-1.22-3.72,2.4-6.96,4.69-9.71,6.76.5.22.99.46,1.5.73,1.88,1.03,2.58,3.38,1.55,5.27-1.03,1.88-3.38,2.58-5.27,1.55-2-1.09-3.98-1.31-6.06-.8-1.49,1.33-2.38,2.2-2.59,2.41-1.52,1.51-1.51,3.97,0,5.49,1.51,1.52,3.97,1.52,5.49,0,.34-.34,34.07-33.4,88.12-39.67,16.17,77.73,3.55,107.23,3.43,107.5-.5,1.09-.47,2.34.08,3.41,13.11,25.39,11.31,67.87-4.38,103.29-12.66,28.6-31.74,47.57-53.73,53.44-2.07.55-3.3,2.68-2.75,4.75.46,1.74,2.03,2.88,3.75,2.88.33,0,.67-.04,1-.13,22.26-5.94,41.64-23.69,55.22-50.29-2.45-3.57-3.26-6.65-3.31-6.87-.52-2.08.74-4.19,2.82-4.71,2.04-.51,4.1.7,4.67,2.72,6.8-15.75,11.02-32.5,12.6-48.68-1.34,1.02-3.23,1.11-4.65.06-1.73-1.27-2.09-3.7-.82-5.43,1.92-2.6,3.99-5.09,6.16-7.49.16-17.02-2.77-32.87-8.89-45.53,2.74-7.78,11.42-40.71-4.33-113.97-.41-1.92-2.2-3.23-4.16-3.05-29.15,2.72-52.65,12.72-69.15,22.32.02.04.04.09.05.09.91,1.94.07,4.25-1.88,5.16Z"/>
      <path class="cls-10" d="m312.77,97.02c-.22.04-.45.06-.67.06-1.85,0-3.49-1.33-3.82-3.22-.46-2.65-1.16-5.11-2.05-7.4-8.59-4.48-19.39-7.25-32.63-5.66-2.26.27-4.42.77-6.48,1.45.37.2.75.38,1.12.59,1.86,1.07,2.5,3.44,1.43,5.3-1.07,1.86-3.44,2.5-5.3,1.43-2.02-1.16-4.11-2.08-6.25-2.84-10.56,7.13-18.73,19.54-27.22,32.45-14.81,22.5-30.12,45.77-60.06,46.21.03,0,.06,0,.09,0,2.14.07,3.83,1.86,3.76,4-.06,2.1-1.79,3.76-3.88,3.76-.04,0-.08,0-.12,0-.61-.02-1.19-.05-1.79-.08,10.2,12.28,26.61,20.13,44.91,20.13,13.69,0,28.42-4.39,42.35-14.58,12.95-9.47,23-20.7,31.08-29.71,9.18-10.25,15.35-16.82,20.82-18.17,1.83-1.64,4.61-3.98,8.28-6.75-12.31-5.46-22.33,5.72-34.89,19.74-8.24,9.2-17.59,19.63-29.88,28.63-26.02,19.04-55.93,14.98-72.48.16,28.74-4.19,44.36-27.92,58.27-49.07,11.69-17.76,21.78-33.1,37.15-34.94,35.47-4.27,50.52,26.75,51.14,28.06.11.24.24.46.39.66,2.05-1.32,4.26-2.67,6.6-4.03-.48-.98-5.78-11.45-16.7-20.32.16,1.98-1.19,3.79-3.18,4.14Z"/>
      <path class="cls-10" d="m330.83,118.45c1.94-.91,2.78-3.22,1.88-5.16,0,0-.03-.05-.05-.09-2.34,1.36-4.54,2.71-6.6,4.03,1.07,1.46,3.06,2.01,4.77,1.22Z"/>
      <path class="cls-10" d="m314.13,131.54c1.88,1.03,4.24.33,5.27-1.55,1.03-1.88.33-4.24-1.55-5.27-.5-.27-1-.51-1.5-.73-3.68,2.77-6.45,5.11-8.28,6.75,2.08-.51,4.06-.3,6.06.8Z"/>
      <path class="cls-10" d="m133.26,103.18c-.8,1.99-3.06,2.96-5.05,2.16-1.09-.43-2.18-.84-3.27-1.24-2.01,4.89-3.34,10.25-3.81,15.95-.5,5.96-.35,11.46.43,16.47.91-.56,1.49-.88,1.6-.94,1.89-1.02,4.24-.31,5.26,1.58,1.02,1.89.31,4.24-1.57,5.26-.08.04-1.33.75-3.37,2.13,1.73,5.19,4.3,9.73,7.73,13.57,8.15,9.13,20.83,14.15,37.7,14.97-.39-.47-.8-.94-1.17-1.43-.9-1.16-1.06-2.74-.42-4.06.64-1.32,1.97-2.17,3.44-2.19.03,0,.05,0,.08,0-15.51-.49-26.89-4.68-33.83-12.46-6.56-7.35-9.3-18.2-8.13-32.25,1.38-16.6,10.92-29.94,24.31-33.97,11.11-3.35,22.73.42,31.67,10.06.87-.76,1.74-1.56,2.63-2.45,1.51-1.52,3.97-1.52,5.49,0,1.52,1.52,1.52,3.97,0,5.49-.12.12-.24.23-.35.34,3.49-2.14,38.56-22.91,65.51-13.43,2.81-1.9,5.8-3.43,9.01-4.49-28.25-15.2-65.38,3.67-76.06,9.8-2.6-2.9-5.41-5.36-8.37-7.4-.51.83-.99,1.67-1.43,2.54-.97,1.91-3.31,2.67-5.22,1.7-1.91-.97-2.67-3.31-1.7-5.22.49-.96,1.01-1.89,1.56-2.81-7.91-3.47-16.52-4.11-24.96-1.57-9.35,2.82-17.16,9.21-22.47,17.83.88.33,1.76.66,2.63,1.01,1.99.8,2.96,3.06,2.16,5.05Z"/>
      <path class="cls-10" d="m170.81,173.16c2.09,0,3.81-1.66,3.88-3.76.06-2.14-1.62-3.93-3.76-4-.03,0-.06,0-.09,0-.03,0-.05,0-.08,0-1.47.02-2.8.87-3.44,2.19-.64,1.32-.48,2.89.42,4.06.38.49.78.95,1.17,1.43.6.03,1.18.07,1.79.08.04,0,.08,0,.12,0Z"/>
      <path class="cls-10" d="m269.66,88.14c1.07-1.86.43-4.23-1.43-5.3-.37-.21-.74-.39-1.12-.59-3.21,1.06-6.19,2.59-9.01,4.49,2.14.75,4.23,1.68,6.25,2.84,1.86,1.07,4.23.43,5.3-1.43Z"/>
      <path class="cls-10" d="m164.74,104.62c-1.25-.92-.87-3.78.96-7.29,1-1.9.26-4.24-1.64-5.24-1.9-1-4.25-.26-5.24,1.64-5.68,10.84-.43,15.87,1.32,17.15,2.03,1.49,4.56,2.2,7.41,2.2,7.29,0,16.67-4.66,25.05-12.91-.17.1-.29.18-.31.19-1.68,1.07-3.9.69-5.13-.87-.75-.95-1.53-1.84-2.33-2.7-9.72,8.56-17.87,9.47-20.1,7.83Z"/>
      <path class="cls-10" d="m192.3,100.35s.14-.09.31-.19c.12-.11.24-.22.35-.34,1.52-1.52,1.52-3.97,0-5.49-1.51-1.52-3.97-1.52-5.49,0-.89.89-1.76,1.69-2.63,2.45.8.86,1.58,1.75,2.33,2.7,1.23,1.56,3.45,1.94,5.13.87Z"/>
      <path class="cls-10" d="m261.88,57.56c11.17,1.68,36.11,7.76,44.35,28.9,3.64,1.9,6.87,4.1,9.73,6.42-.01-.12,0-.23-.03-.35-3.88-22.31-23.65-38.25-52.9-42.65-31.12-4.68-71.4,4.69-87.14,30.98,2.33,1.02,4.6,2.28,6.79,3.79,13.66-22.42,50.33-31.43,79.2-27.09Z"/>
      <path class="cls-10" d="m308.28,93.86c.33,1.89,1.97,3.22,3.82,3.22.22,0,.44-.02.67-.06,2-.35,3.35-2.16,3.18-4.14-2.85-2.32-6.09-4.52-9.73-6.42.89,2.29,1.59,4.74,2.05,7.4Z"/>
      <path class="cls-10" d="m176.03,88.89c1.91.97,4.25.21,5.22-1.7.44-.87.92-1.71,1.43-2.54-2.19-1.51-4.46-2.77-6.79-3.79-.55.92-1.07,1.85-1.56,2.81-.97,1.91-.21,4.25,1.7,5.22Z"/>
      <path class="cls-10" d="m149.16,378.9c2.14.05,3.84,1.83,3.79,3.97-.02.9-.01,1.77-.02,2.65,33.04,5.2,61.49,5.76,63.62,5.8.02,0,.04,0,.07,0,2.11,0,3.84-1.7,3.88-3.82.04-2.14-1.67-3.91-3.82-3.94-.94-.02-94.17-1.86-139.33-29.7-19.73-12.17-31.06-29.08-31.9-47.61-.75-16.47,7.13-32.96,20.55-43.03.97-.73,1.54-1.86,1.55-3.07.64-73.03,43.49-107.22,55.92-115.61-.84-2.52-1.48-5.2-1.92-8.02-4.38,2.67-17.1,11.21-29.97,27.44-3.81,4.8-7.81,10.55-11.65,17.28.81,1.59,1.66,3.15,2.58,4.67,1.11,1.84.52,4.22-1.31,5.33-.63.38-1.32.56-2,.56-1.31,0-2.6-.67-3.33-1.88-.1-.16-.18-.32-.27-.48-8.46,17.36-15.26,40.1-15.79,68.76-14.52,11.67-22.96,30.04-22.12,48.4.96,21.18,13.6,40.31,35.59,53.87,19.37,11.94,46.47,19.27,71.9,23.76,0-.52,0-1.02.01-1.54.05-2.14,1.84-3.83,3.97-3.79Z"/>
      <path class="cls-10" d="m128.42,137.16c-1.02-1.89-3.37-2.6-5.26-1.58-.11.06-.69.38-1.6.94.44,2.83,1.08,5.5,1.92,8.02,2.04-1.38,3.29-2.08,3.37-2.13,1.88-1.02,2.59-3.37,1.57-5.26Z"/>
      <path class="cls-10" d="m409.78,331.33c4.32,2.5,9.36,3.76,15.07,3.76,3.5,0,7.26-.49,11.26-1.43-.55-.8-1.09-1.63-1.59-2.5-1.07-1.86-.44-4.23,1.41-5.3,1.85-1.08,4.23-.44,5.3,1.41.83,1.44,1.79,2.72,2.81,3.93,14.77-5.9,18.5-16.11,19.35-22.05,1.47-10.28-3.5-21.51-11.82-26.7-8.67-5.41-17.47-3.48-22.35.84-5.17,4.58-6.48,11.5-3.41,18.07.91,1.94,3.22,2.78,5.16,1.88,1.94-.91,2.78-3.22,1.88-5.16-1.6-3.43-1.05-6.7,1.52-8.97,2.52-2.23,7.46-3.58,13.09-.07,4.88,3.05,9.43,10.75,8.25,19.02-1.18,8.25-7.71,14.27-18.89,17.43-9.6,2.71-17.35,2.44-23.03-.79-6.15-3.5-7.79-9.34-7.87-9.64,0-.03-.02-.05-.03-.08-.19.45-.38.9-.58,1.35-1.14,2.58-2.36,5.07-3.6,7.51,1.75,2.55,4.32,5.34,8.07,7.51Z"/>
      <path class="cls-10" d="m405.89,314.96c-.57-2.01-2.63-3.23-4.67-2.72-2.08.52-3.34,2.63-2.82,4.71.05.22.87,3.3,3.31,6.87,1.24-2.44,2.46-4.92,3.6-7.51.2-.45.38-.9.58-1.35Z"/>
      <path class="cls-10" d="m419.26,265.52c24.8-33.65,77.22-50.13,100.45-44.81,5.85,1.34,9.16,3.87,9.84,7.52,4.05,21.6-17.21,32.62-18.11,33.08-1.38.69-2.22,2.14-2.14,3.68.08,1.54,1.08,2.89,2.53,3.43,9.02,3.34,11.49,15.1,9.23,24.48-1.99,8.29-8.05,16.68-19.08,15.39-1.25-.14-2.48.32-3.32,1.24-.84.93-1.19,2.2-.92,3.43,2.89,13.48-6.47,22.28-16.19,26.03-11.97,4.62-28.26,3.13-37.51-7.78-1.59.63-3.26,1.23-5.12,1.76-.96.27-1.89.49-2.82.71,7.55,10.93,19.67,15.63,31.64,15.63,5.74,0,11.44-1.08,16.59-3.06,14.26-5.5,22.35-17,21.63-30.11,4.04-.29,7.76-1.56,11-3.67-.46-.58-.9-1.16-1.37-1.73-1.36-1.66-1.11-4.11.55-5.46,1.66-1.36,4.11-1.11,5.46.55.38.46.72.93,1.09,1.39,2.68-3.36,4.72-7.56,5.9-12.48,2.57-10.67.41-23.21-7.92-30.05,9.19-6.8,19.85-19.94,16.49-37.86-.9-4.79-4.36-11.05-15.74-13.65-23.21-5.31-73.25,8.3-102.26,40.28-.04,4.23-.27,8.52-.69,12.86.28-.22.55-.46.78-.77Z"/>
      <path class="cls-10" d="m413.83,266.35c1.42,1.05,3.32.97,4.65-.06.42-4.34.65-8.64.69-12.86-2.18,2.4-4.25,4.89-6.16,7.49-1.27,1.73-.9,4.16.82,5.43Z"/>
      <path class="cls-10" d="m435.93,325.85c-1.86,1.07-2.49,3.45-1.41,5.3.5.87,1.04,1.7,1.59,2.5.93-.22,1.86-.44,2.82-.71,1.85-.52,3.53-1.12,5.12-1.76-1.02-1.2-1.98-2.49-2.81-3.93-1.07-1.86-3.45-2.49-5.3-1.41Z"/>
      <path class="cls-10" d="m188.48,475.22c2.12.33,3.57,2.31,3.25,4.43-.18,1.18-.4,2.36-.6,3.54,14.79,9.78,33.07,16.6,54.71,20.31-.35-2.88-.66-5.57-.96-8.05-61.59-11.29-92.51-48.25-91.94-109.92-2.56-.4-5.15-.83-7.75-1.29-.64,41.54,12.64,73.2,38.95,93.92.46-1.95,2.34-3.25,4.35-2.94Z"/>
      <path class="cls-10" d="m152.95,382.87c.05-2.14-1.65-3.92-3.79-3.97-2.13-.04-3.92,1.65-3.97,3.79-.01.52,0,1.02-.01,1.54,2.6.46,5.19.89,7.75,1.29,0-.88,0-1.76.02-2.65Z"/>
      <path class="cls-10" d="m329.2,507.44c.19-2.14,2.08-3.71,4.21-3.53.45.04.88.07,1.33.11,1.01-6.3,2-12.87,2.95-19.78.29-2.12-1.19-4.08-3.31-4.38-2.13-.3-4.08,1.19-4.38,3.31-12.93,93.5-29.43,115.25-41,117.03-8,1.23-12.58.76-15.8-1.62-5.13-3.78-8.49-13.84-11.6-34.71-5.36-36-10.8-84.77-10.85-85.26-.24-2.13-2.15-3.67-4.29-3.43-2.13.24-3.67,2.16-3.43,4.29.02.17.71,6.4,1.84,15.96,1.39.25,2.77.51,4.19.74,2.12.34,3.56,2.33,3.22,4.45-.31,1.91-1.96,3.27-3.83,3.27-.2,0-.41-.02-.62-.05-.68-.11-1.33-.24-2-.36.48,4.04,1.02,8.42,1.59,13.03,1.13-1.01,2.8-1.3,4.25-.6,1.93.93,2.75,3.24,1.83,5.18-.99,2.08-2.53,4.86-4.49,8.06,1.53,11.95,3.23,24.53,4.91,35.86,3.54,23.75,7.51,34.55,14.67,39.82,3.92,2.89,8.56,3.78,13.23,3.78,2.83,0,5.67-.33,8.37-.74,18.65-2.87,32.57-33.63,43.28-96.18-.25-.02-.49-.03-.74-.06-2.14-.19-3.71-2.07-3.53-4.21Z"/>
      <path class="cls-10" d="m247.83,503.85c.21.03.42.05.62.05,1.87,0,3.52-1.36,3.83-3.27.34-2.12-1.1-4.11-3.22-4.45-1.42-.23-2.8-.49-4.19-.74.29,2.48.61,5.17.96,8.05.67.11,1.32.25,2,.36Z"/>
      <path class="cls-10" d="m246.49,517.75c-9.47,19.81-41.7,59.89-59.3,51.72-13.38-6.21-7.69-31.76-1.67-58.8,2-9,4.04-18.27,5.6-27.49-2.42-1.6-4.76-3.27-6.99-5.03-.02.1-.06.2-.08.31-1.56,10.13-3.87,20.5-6.1,30.52-7.02,31.49-13.07,58.69,5.97,67.53,2.73,1.27,5.55,1.84,8.44,1.84,21.27,0,45.72-31.34,56.65-49.19-.55-4.33-1.09-8.57-1.59-12.64-.38.33-.69.75-.92,1.23Z"/>
      <path class="cls-10" d="m191.72,479.64c.33-2.12-1.13-4.1-3.25-4.43-2.01-.31-3.88.99-4.35,2.94,2.23,1.76,4.57,3.43,6.99,5.03.2-1.18.42-2.36.6-3.54Z"/>
      <path class="cls-10" d="m251.67,515.92c-1.45-.7-3.12-.41-4.25.6.5,4.07,1.04,8.31,1.59,12.64,1.96-3.21,3.5-5.99,4.49-8.06.93-1.93.11-4.25-1.83-5.18Z"/>
      <path class="cls-10" d="m547.75,371.12c-2.13.22-4.04-1.32-4.27-3.45-.22-2.13,1.32-4.04,3.45-4.27.97-.1,1.92-.15,2.86-.16-1.08-5.5-2.59-10.93-4.49-16.3-.25.22-.51.44-.76.67-1.58,1.45-4.03,1.35-5.49-.23-1.45-1.58-1.35-4.03.23-5.49.99-.92,2.01-1.78,3.05-2.62-.63-1.45-1.32-2.9-2.01-4.34-.13.24-.26.47-.38.71-.69,1.35-2.05,2.12-3.46,2.12-.59,0-1.19-.14-1.76-.42-1.91-.97-2.67-3.31-1.7-5.22.95-1.86,1.97-3.64,3.05-5.32-.87-1.53-1.75-3.07-2.69-4.59-.72.98-1.87,1.58-3.11,1.58-.31,0-.63-.04-.94-.12-2.08-.52-3.34-2.63-2.82-4.71.43-1.71.91-3.31,1.43-4.86-1.66-2.32-3.39-4.62-5.21-6.9-1.67,2.09-3.6,3.86-5.73,5.25,33.32,41.93,36,88.57,7.92,138.66-.96,1.71-1.65,2.94-2.05,3.83-2.11,4.64-8.45,26.7-15.79,52.24-6.57,22.85-14.01,48.74-18.52,62.27-5.39,16.16-14.75,27.73-23.31,28.8-4.36.55-8.28-1.86-11.66-7.15-7.07-11.05-10.93-34.62-14.66-57.41-2.55-15.58-5.19-31.69-8.94-44.82-.59-2.06-2.74-3.25-4.8-2.67-2.06.59-3.26,2.74-2.67,4.8.78,2.74,1.51,5.65,2.21,8.65.89-.18,1.4-.29,1.45-.3,2.09-.47,4.17.84,4.64,2.93.47,2.09-.84,4.17-2.93,4.64-.16.04-.68.15-1.51.32,1.8,8.88,3.36,18.38,4.89,27.7.03.18.06.37.09.55.99-1.88,3.31-2.63,5.2-1.66,1.91.98,2.67,3.31,1.69,5.22-.23.45-1.99,3.85-4.91,8.35,3.39,19.82,7.14,37.6,13.71,47.88,4.5,7.03,10.48,10.8,17.01,10.8.71,0,1.43-.04,2.15-.13,11.82-1.47,23.2-14.52,29.71-34.05,4.56-13.68,11.7-38.54,18.62-62.58,6.65-23.13,13.52-47.05,15.4-51.17.27-.6.96-1.82,1.76-3.25,4.83-8.61,16.13-28.78,19.36-55.39,1.17-9.66,1.14-19.17-.02-28.5-1.07-.03-2.15,0-3.26.11Z"/>
      <path class="cls-10" d="m516.16,305.24c-1.66,1.36-1.91,3.8-.55,5.46.47.58.91,1.16,1.37,1.73,2.14-1.39,4.06-3.16,5.73-5.25-.37-.46-.71-.93-1.09-1.39-1.36-1.66-3.8-1.91-5.46-.55Z"/>
      <path class="cls-10" d="m382.99,506.23c2.14.13,3.77,1.97,3.64,4.11l-.12,1.89c20.68-1.33,35.24-4.06,39.85-5.01-.53-2.6-1.08-5.13-1.65-7.59-7.56,1.52-44.39,8.21-89.97,4.38-.42,2.61-.84,5.18-1.27,7.68,10.52.91,20.56,1.28,29.89,1.28,5.37,0,10.49-.12,15.35-.33l.17-2.78c.13-2.14,1.97-3.78,4.11-3.64Z"/>
      <path class="cls-10" d="m333.41,503.91c-2.12-.19-4.02,1.39-4.21,3.53-.19,2.14,1.39,4.02,3.53,4.21.25.02.49.04.74.06.43-2.51.85-5.07,1.27-7.68-.44-.04-.88-.07-1.33-.11Z"/>
      <path class="cls-10" d="m427.86,506.91c2.09-.47,3.4-2.55,2.93-4.64-.47-2.09-2.55-3.4-4.64-2.93-.04,0-.55.12-1.45.3.57,2.47,1.12,5,1.65,7.59.83-.17,1.35-.29,1.51-.32Z"/>
      <path class="cls-10" d="m431.31,535.51c-4.62,9.05-19.64,32.18-33.35,30.52-14.01-1.68-13.95-14.09-11.71-49.72l.25-4.08c-2.51.16-5.12.3-7.8.42l-.2,3.18c-2.17,34.47-3.48,55.27,18.53,57.92.77.09,1.54.14,2.3.14,14.5,0,27.29-16.16,33.97-26.48-.67-3.91-1.32-7.89-1.98-11.91,0,.01-.01.02-.02.03Z"/>
      <path class="cls-10" d="m436.54,533.82c-1.9-.97-4.22-.22-5.2,1.66.66,4.02,1.31,8.01,1.98,11.91,2.92-4.5,4.68-7.9,4.91-8.35.98-1.91.22-4.25-1.69-5.22Z"/>
      <path class="cls-10" d="m386.63,510.34c.13-2.14-1.5-3.98-3.64-4.11-2.14-.14-3.98,1.5-4.11,3.64l-.17,2.78c2.69-.11,5.29-.25,7.8-.42l.12-1.89Z"/>
      <path class="cls-10" d="m128.22,105.34c1.99.79,4.25-.17,5.05-2.16.8-1.99-.17-4.25-2.16-5.05-.88-.35-1.75-.68-2.63-1.01-1.35,2.19-2.51,4.53-3.52,6.98,1.09.4,2.19.8,3.27,1.24Z"/>
      <path class="cls-10" d="m79.2,191.8c.68,0,1.38-.18,2-.56,1.83-1.11,2.42-3.49,1.31-5.33-.92-1.52-1.77-3.08-2.58-4.67-1.48,2.59-2.93,5.32-4.34,8.2.09.16.18.32.27.48.73,1.21,2.01,1.88,3.33,1.88Z"/>
      <path class="cls-10" d="m588.26,334.27c14.77,2.29,28.17,10.5,34.13,20.93,8.28,14.49,19.72,24.31,30.61,26.28,1.33.24,2.63.36,3.9.36,4.16,0,7.89-1.3,10.94-3.84,1.65-1.37,1.87-3.82.5-5.47-1.37-1.65-3.82-1.87-5.47-.5-2.18,1.82-5.04,2.42-8.49,1.8-4.14-.75-9.61-3.55-15.17-9.07-.15.32-.27.64-.33.92-.42,2.1-2.46,3.46-4.57,3.05-2.1-.42-3.47-2.47-3.05-4.57.38-1.89,1.3-3.75,2.64-5.52-1.63-2.17-3.23-4.59-4.78-7.29-7.09-12.4-22.66-22.12-39.68-24.75-17.2-2.67-33.78,1.83-47.12,12.66,1.1,2.54,2.07,5.1,2.98,7.66,11.93-10.6,27.15-15.1,42.96-12.66Z"/>
      <path class="cls-10" d="m539.28,341.88c-1.58,1.45-1.68,3.91-.23,5.49,1.45,1.58,3.91,1.68,5.49.23.25-.23.51-.44.76-.67-.91-2.57-1.88-5.13-2.98-7.66-1.03.84-2.05,1.71-3.05,2.62Z"/>
      <path class="cls-10" d="m681.82,358.87c-.4.99-.83,1.98-1.28,2.99-.65,1.43-2.06,2.28-3.54,2.28-.34,0-.68-.06-1.02-.15,4.25,4.15,7.54,9.88,9.28,16.41,3.58,13.48.34,28.42-9.12,42.09-9.04,13.06-22.71,20.41-37.34,20.16-12.52-.21-24-6.11-29.96-15.39-2.92-4.54-5.92-10.15-9.1-16.08-11.59-21.65-25.91-48.38-49.94-47.95.5,2.58.89,5.17,1.22,7.78,18.7.58,30.98,23.49,41.88,43.84,3.25,6.07,6.32,11.81,9.41,16.61,7.35,11.43,21.28,18.7,36.36,18.95.29,0,.58,0,.87,0,16.99,0,32.61-8.53,42.98-23.51,10.77-15.56,14.41-32.79,10.24-48.5-2.03-7.66-5.9-14.45-10.94-19.54Z"/>
      <path class="cls-10" d="m642.46,351.82c-3.63,1.82-6.57,4.2-8.56,6.83,1.75,2.33,3.53,4.37,5.3,6.12.83-1.79,3.06-4.18,6.73-6.01,3.3-1.65,12.17-4.92,23.18.35,1.51.72,2.95,1.63,4.33,2.68-.41-.97-.45-2.09.02-3.12.76-1.69,1.41-3.32,1.99-4.9-.97-.61-1.97-1.17-2.99-1.66-9.93-4.75-20.87-4.86-30-.29Z"/>
      <path class="cls-10" d="m546.94,363.39c-2.13.22-3.68,2.14-3.45,4.27.22,2.13,2.14,3.67,4.27,3.45,1.11-.12,2.2-.14,3.26-.11-.32-2.6-.71-5.2-1.22-7.78-.94.02-1.89.06-2.86.16Z"/>
      <path class="cls-10" d="m633.9,358.65c-1.34,1.76-2.26,3.63-2.64,5.52-.42,2.1.94,4.15,3.05,4.57,2.1.42,4.15-.94,4.57-3.05.06-.28.18-.59.33-.92-1.77-1.76-3.55-3.79-5.3-6.12Z"/>
      <path class="cls-10" d="m569.8,312.49c20.27-3.73,42.04,6.04,51.03,14.17,10.03,9.08,17.89,8.43,22.71,6.29,5.62-2.49,9.4-8.36,9.4-12.27,0-2.14-1.74-3.93-3.88-3.93s-3.88,1.68-3.88,3.83c-.1.76-1.75,4.19-5.27,5.48-4.82,1.76-10.2-1.82-13.87-5.14-1.74-1.58-3.78-3.11-6.01-4.59-.31.5-.65.98-.93,1.51-1,1.9-3.34,2.63-5.24,1.63-1.9-1-2.63-3.34-1.63-5.24.33-.62.68-1.23,1.04-1.81-12.66-6.42-29.45-10.38-44.87-7.54-13.59,2.5-24.65,10.04-32.32,21.93,1.53,2.69,2.94,5.4,4.25,8.13,6.59-12.49,16.49-20.04,29.48-22.43Z"/>
      <path class="cls-10" d="m533.02,332.11c-.97,1.91-.21,4.25,1.7,5.22.56.29,1.17.42,1.76.42,1.41,0,2.78-.77,3.46-2.12.12-.24.26-.47.38-.71-1.31-2.73-2.72-5.44-4.25-8.13-1.09,1.69-2.11,3.46-3.05,5.32Z"/>
      <path class="cls-10" d="m673.44,361.79c.37.86,1.04,1.6,1.96,2.01.19.09.39.14.58.19-.81-.79-1.66-1.53-2.54-2.21Z"/>
      <path class="cls-10" d="m656.82,305.92c-.07,0-.14,0-.22,0-2.14-.12-3.78-1.95-3.66-4.09.07-1.25.08-2.46.06-3.65-14.91-3.05-31.53.87-39.73,14.21,2.42,1.23,4.68,2.54,6.76,3.91,7.94-12.51,27.02-14.07,40.67-7.41,6.43,3.14,25.6,15.35,14.76,44.87,2.27,1.41,4.4,3.13,6.36,5.11,12.03-29.66-1.03-48.81-17.71-56.95-1.09-.53-2.21-1.02-3.36-1.47-.02.6-.02,1.19-.06,1.8-.11,2.07-1.83,3.67-3.87,3.67Z"/>
      <path class="cls-10" d="m673.46,358.67c-.47,1.03-.43,2.16-.02,3.12.88.67,1.73,1.41,2.54,2.21.34.09.68.15,1.02.15,1.48,0,2.89-.85,3.54-2.28.46-1.01.88-2.01,1.28-2.99-1.96-1.98-4.09-3.7-6.36-5.11-.58,1.59-1.23,3.21-1.99,4.9Z"/>
      <path class="cls-10" d="m613.86,319.45c1.9,1,4.24.27,5.24-1.63.28-.53.61-1.01.93-1.51-2.08-1.38-4.34-2.69-6.76-3.91-.36.59-.71,1.19-1.04,1.81-1,1.9-.27,4.24,1.63,5.24Z"/>
      <path class="cls-10" d="m534.03,320.84c9.36-37.43,44.25-31.5,61.02-28.65,1.07.18,2.05.35,2.93.49,17.27,2.73,23.93-9.24,24.21-9.76,1.01-1.87.31-4.18-1.55-5.21-1.86-1.03-4.21-.35-5.27,1.5-.18.31-4.51,7.65-16.18,5.81-.86-.14-1.81-.3-2.84-.47-3.88-.66-9.32-1.58-15.49-1.97-.06.39-.11.78-.15,1.18-.19,2.14-2.07,3.71-4.2,3.53-2.14-.19-3.72-2.07-3.53-4.2.02-.23.06-.45.08-.68-17.07.42-36.77,6.49-45.13,31.7,1.92,2.68,3.76,5.38,5.45,8.11.29-.4.53-.85.65-1.36Z"/>
      <path class="cls-10" d="m529.32,323.66c.32.08.63.12.94.12,1.24,0,2.38-.6,3.11-1.58-1.69-2.73-3.53-5.43-5.45-8.11-.52,1.56-1,3.16-1.43,4.86-.52,2.08.74,4.19,2.82,4.71Z"/>
      <path class="cls-10" d="m580.86,282.56c2.15-14.48,19.92-21.92,36.41-20.75,16.61,1.18,35.37,11.47,35.73,36.37,2.66.54,5.26,1.3,7.75,2.27.77-29.86-20.81-44.82-42.93-46.39-20.16-1.43-42.52,8.03-44.76,28.33,2.68-.07,5.3,0,7.8.17Z"/>
      <path class="cls-10" d="m652.94,301.83c-.12,2.14,1.52,3.97,3.66,4.09.07,0,.14,0,.22,0,2.05,0,3.76-1.6,3.87-3.67.03-.61.04-1.2.06-1.8-2.49-.97-5.09-1.73-7.75-2.27.02,1.19,0,2.39-.06,3.65Z"/>
      <path class="cls-10" d="m576.51,287.27c2.14.18,4.02-1.39,4.2-3.53.03-.4.09-.79.15-1.18-2.5-.16-5.11-.23-7.8-.17-.03.23-.06.45-.08.68-.19,2.14,1.4,4.02,3.53,4.2Z"/>
      <g>
        <path class="cls-3" d="m253.88,96.13c-7.27,7.3-12.65,17.5-19.42,28.29-5.59,8.9-12.11,18.21-21.41,26.61-10.22-1.75-19.05-6.75-19.91-16.83-1.24-14.7,1.57-128.69,20.92-130.32,8.17-.7,28.42,54.44,39.83,92.25Z"/>
        <path class="cls-10" d="m213.04,154.92c-.22,0-.44-.02-.66-.06-14-2.41-22.21-9.63-23.11-20.33-.68-8.02-.15-40.98,2.74-70.77C197.44,7.8,207.01.58,213.72.02c.11,0,.22-.02.33-.02,13.78,0,36.78,72.6,43.54,95.01.41,1.36.04,2.85-.97,3.86-5.34,5.36-9.81,12.74-14.55,20.55-1.4,2.31-2.83,4.67-4.33,7.07-5.37,8.54-12.19,18.48-22.1,27.43-.72.65-1.64,1-2.6,1Zm.94-147.05c-1.85.83-9.45,7.24-14.24,56.64-3.03,31.22-3.29,62.77-2.73,69.36.68,8.04,8.07,11.49,14.84,12.97,8.46-7.99,14.5-16.83,19.32-24.49,1.48-2.36,2.89-4.69,4.27-6.96,4.53-7.47,8.82-14.55,14.07-20.3-13.14-43.06-29.37-82.9-35.53-87.22Z"/>
        <path class="cls-10" d="m236.03,55.76s-.07,0-.1,0c-.93-.02-23.06-.82-37.96-19.53-1.34-1.68-1.06-4.12.62-5.46,1.68-1.32,4.12-1.06,5.45.62,12.59,15.82,31.91,16.61,32.1,16.61,2.14.07,3.83,1.85,3.77,3.99-.06,2.1-1.78,3.77-3.88,3.77Z"/>
        <path class="cls-10" d="m243.12,93.95c-10.04,0-30.84-2.36-48.64-19.63-1.54-1.49-1.58-3.95-.09-5.49,1.49-1.54,3.95-1.58,5.48-.09,21.2,20.55,47.94,17.22,48.18,17.19,2.18-.29,4.08,1.2,4.37,3.32.3,2.12-1.18,4.08-3.3,4.37-.32.04-2.51.33-6,.33Z"/>
        <path class="cls-10" d="m234.46,128.3c-.1,0-.19,0-.29,0-16.62-1.21-30.63-6.38-41.66-15.38-1.66-1.36-1.91-3.8-.55-5.46,1.36-1.66,3.81-1.9,5.46-.55,9.77,7.97,22.32,12.56,37.32,13.65,2.14.16,3.75,2.01,3.59,4.15-.15,2.04-1.85,3.6-3.86,3.6Z"/>
      </g>
      <path class="cls-2" d="m276.61,313.87c-.85,11.76,7.99,21.98,19.75,22.83,11.76.85,21.98-7.99,22.83-19.75.85-11.76-7.99-21.98-19.75-22.83-11.76-.85-21.98,7.99-22.83,19.75Z"/>
      <circle class="cls-2" cx="96.58" cy="300.85" r="21.35" transform="translate(-219.38 303.69) rotate(-72.72)"/>
      <path class="cls-10" d="m143.61,281.21c-.71,9.84-9.26,17.23-19.1,16.52-9.84-.71-17.23-9.26-16.52-19.1.71-9.84,9.26-17.23,19.1-16.52,9.84.71,17.23,9.26,16.52,19.1Z"/>
      <path class="cls-10" d="m213.75,304.91c-.44,0-.89-.02-1.34-.05-5.82-.4-11.08-3.4-14.38-7.78-3.89,3.86-9.6,6.07-15.34,5.64-8.63-.65-15.08-6.82-16.85-16.09-.4-2.11.98-4.14,3.09-4.54,2.12-.39,4.13.98,4.54,3.09,1.11,5.84,4.69,9.42,9.8,9.8,4.42.32,9.87-2,11.67-7.1.58-1.65,2.22-2.7,3.94-2.59,1.75.13,3.19,1.4,3.53,3.12,1.05,5.31,6.09,8.4,10.53,8.71,5.11.4,9.18-2.67,11.12-8.29.7-2.03,2.91-3.1,4.94-2.4,2.03.7,3.1,2.91,2.4,4.94-2.92,8.46-9.61,13.55-17.65,13.55Z"/>
      <path class="cls-10" d="m254.19,289.21c-.71,9.84,6.69,18.39,16.52,19.1,9.84.71,18.39-6.69,19.1-16.52.71-9.84-6.69-18.39-16.52-19.1-9.84-.71-18.39,6.69-19.1,16.52Z"/>
      <path class="cls-4" d="m483.22,422.35c21.93-7.39,31.36-25.01,26.3-35.87-5.06-10.87-15.63-10.07-23.87,1.8-6.47-12.91-16.82-15.21-23.37-5.17-6.55,10.04.28,28.82,20.94,39.24Z"/>
      <path class="cls-4" d="m388.19,192.57c10.09-38.04,0-77.64,0-77.64,0,0-32.61,1.55-62.89,29.5,23.29-3.88,42.7,6.99,42.7,6.99,0,0-20.96,0-25.62,3.11,17.08,2.33,32.61,11.65,32.61,11.65l-17.08.78s23.29,14.75,30.28,25.62Z"/>
      <path class="cls-10" d="m69.1,279.53c-.68,0-1.37-.18-2-.56-.33-.19-32.59-19.41-58.69-15.02-2.08.34-4.12-1.07-4.47-3.19-.36-2.11,1.07-4.11,3.19-4.47,29.08-4.83,62.57,15.18,63.99,16.04,1.84,1.11,2.42,3.49,1.31,5.33-.73,1.21-2.01,1.88-3.33,1.88Z"/>
      <path class="cls-10" d="m65.22,298.94c-.44,0-.9-.08-1.34-.24-.26-.1-26.58-9.56-59.05-1.43-2.08.55-4.19-.75-4.71-2.82-.52-2.08.75-4.19,2.82-4.71,34.94-8.74,62.47,1.25,63.63,1.68,2.01.75,3.03,2.98,2.29,4.98-.58,1.57-2.06,2.54-3.64,2.54Z"/>
      <path class="cls-10" d="m421.76,313.03c-.62,0-1.26-.15-1.85-.47-23.56-12.83-62.85-9.79-63.24-9.75-2.11.14-4.02-1.41-4.19-3.55-.17-2.14,1.42-4.01,3.55-4.19,1.71-.13,41.99-3.27,67.59,10.68,1.89,1.02,2.58,3.38,1.55,5.27-.7,1.29-2.03,2.02-3.41,2.02Z"/>
      <path class="cls-10" d="m402.55,356.14c-1.05,0-2.09-.42-2.86-1.26-22.73-24.78-49.78-31.28-50.05-31.35-2.09-.48-3.39-2.57-2.91-4.66.49-2.09,2.59-3.4,4.66-2.9,1.2.28,29.69,7.13,54.02,33.66,1.45,1.58,1.34,4.04-.23,5.49-.75.68-1.69,1.02-2.62,1.02Z"/>
    </g>
  </g>
</svg>